<svg id="Capa_1" data-name="Capa 1" xmlns="http://www.w3.org/2000/svg" viewBox="0 0 226.91 302"><defs><style>.cls-1,.cls-4{fill:#fff;}.cls-2{fill:#921116;}.cls-3{fill:#ed4040;}.cls-4{opacity:0.6;}</style></defs><title>pp</title><ellipse class="cls-1" cx="113.51" cy="50.91" rx="101.39" ry="47.05"/><path class="cls-2" d="M195.29,166.82c-59,0-105.25-22.36-105.25-50.91S136.27,65,195.29,65s105.25,22.36,105.25,50.91S254.31,166.82,195.29,166.82Zm0-94.09c-52.86,0-97.53,19.78-97.53,43.18s44.66,43.18,97.53,43.18,97.53-19.78,97.53-43.18S248.16,72.73,195.29,72.73Z" transform="translate(-81.78 -65)"/><polygon class="cls-3" points="114.87 68.09 112.22 68.09 17.56 68.09 50.66 298.14 112.22 298.14 114.87 298.14 176.44 298.14 209.54 68.09 114.87 68.09"/><path class="cls-2" d="M258.23,367H132.44a3.86,3.86,0,0,1-3.82-3.31l-33.1-230a3.86,3.86,0,0,1,3.82-4.41h192a3.86,3.86,0,0,1,3.82,4.41l-33.1,230A3.86,3.86,0,0,1,258.23,367Zm-122.44-7.73H254.88l32-222.31H103.8Z" transform="translate(-81.78 -65)"/><path class="cls-1" d="M304.83,113.88c0-10.49-8.06-19-18-19H103.64c-9.94,0-18,8.51-18,19h0c0,10.49,8.06,19,18,19H286.83c9.94,0,18-8.51,18-19Z" transform="translate(-81.78 -65)"/><path class="cls-2" d="M286.83,136.74H103.64c-12.05,0-21.86-10.26-21.86-22.86S91.59,91,103.64,91H286.83c12.05,0,21.86,10.26,21.86,22.86S298.88,136.74,286.83,136.74Zm-183.18-38c-7.79,0-14.13,6.79-14.13,15.14S95.85,129,103.64,129H286.83c7.79,0,14.13-6.79,14.13-15.14s-6.34-15.14-14.13-15.14Z" transform="translate(-81.78 -65)"/><polygon class="cls-1" points="29.45 150.76 38.02 210.27 189.08 210.27 197.65 150.76 29.45 150.76"/><path class="cls-2" d="M274.22,279.14H116.45l-9.68-67.24H283.89Zm-151.07-7.73H267.52L275,219.62H115.7Z" transform="translate(-81.78 -65)"/><rect class="cls-1" x="152.54" y="204.45" width="80.81" height="80.81" transform="translate(-198.41 143.16) rotate(-45)"/><path class="cls-2" d="M193,307.47l-62.61-62.61L193,182.25l62.61,62.61Zm-51.68-62.61L193,296.54l51.68-51.68L193,193.18Z" transform="translate(-81.78 -65)"/><path class="cls-4" d="M127,207.35a2.7,2.7,0,0,1-2.69-2.41L118,146.21a2.7,2.7,0,0,1,5.38-.58l6.35,58.72a2.7,2.7,0,0,1-2.4,3Z" transform="translate(-81.78 -65)"/><path class="cls-4" d="M167.52,349.4h-23a2.7,2.7,0,0,1-2.69-2.39l-7.14-61.1a2.7,2.7,0,0,1,5.37-.63L146.92,344h20.61a2.7,2.7,0,0,1,0,5.41Z" transform="translate(-81.78 -65)"/><path class="cls-2" d="M156.81,119H98.35a3.86,3.86,0,0,1,0-7.73h58.46a3.86,3.86,0,0,1,0,7.73Z" transform="translate(-81.78 -65)"/></svg>