<svg id="Capa_1" data-name="Capa 1" xmlns="http://www.w3.org/2000/svg" viewBox="0 0 180 184"><defs><style>.cls-1{font-size:27px;font-family:Pacifico-Regular, Pacifico;}.cls-1,.cls-22{fill:#fff;}.cls-2{letter-spacing:-0.01em;}.cls-3{letter-spacing:-0.02em;}.cls-4{letter-spacing:0em;}.cls-5{fill:none;stroke:#fff;stroke-linecap:round;stroke-miterlimit:10;stroke-width:3px;}.cls-6{fill:#11393b;}.cls-7{fill:#e9f1df;}.cls-8{fill:#174c4f;}.cls-9{letter-spacing:-0.04em;}.cls-10{letter-spacing:0em;}.cls-11{fill:#2e3192;}.cls-12{fill:#db2209;}.cls-13{fill:#f78107;}.cls-14{fill:#fff68a;}.cls-15{fill:#ffbd03;}.cls-16{fill:#d4ef2c;}.cls-17{fill:#eef779;}.cls-18{fill:#ffff8a;}.cls-19{fill:#ffd236;}.cls-20{fill:#90bae0;}.cls-21{fill:#599fd3;}.cls-23{fill:#f28a2e;}</style></defs><title>c02</title><text class="cls-1" transform="translate(60.56 170.98)">C<tspan class="cls-2" x="18.52" y="0">a</tspan><tspan class="cls-3" x="30.94" y="0">f</tspan><tspan class="cls-4" x="40.42" y="0">é</tspan></text><line class="cls-5" x1="50.5" y1="160.5" x2="23.5" y2="160.5"/><line class="cls-5" x1="155.5" y1="160.5" x2="128.5" y2="160.5"/><path class="cls-6" d="M0,141H180a0,0,0,0,1,0,0v35.51a7.49,7.49,0,0,1-7.49,7.49H7.49A7.49,7.49,0,0,1,0,176.51V141a0,0,0,0,1,0,0Z"/><path class="cls-7" d="M232.16,238H67.49A7.49,7.49,0,0,1,60,230.51V70A12,12,0,0,1,72,58H227.65a12,12,0,0,1,12,12V230.51A7.49,7.49,0,0,1,232.16,238Z" transform="translate(-60 -58)"/><path class="cls-8" d="M0,138H180a0,0,0,0,1,0,0v35.51a7.49,7.49,0,0,1-7.49,7.49H7.49A7.49,7.49,0,0,1,0,173.51V138a0,0,0,0,1,0,0Z"/><text class="cls-1" transform="translate(59.56 167.98)"><tspan class="cls-9">J</tspan><tspan x="18.98" y="0">ug</tspan><tspan class="cls-10" x="44.39" y="0">o</tspan><tspan x="56.48" y="0">s</tspan></text><line class="cls-5" x1="55.5" y1="160.5" x2="37.5" y2="160.5"/><line class="cls-5" x1="151.5" y1="160.5" x2="133.5" y2="160.5"/><path class="cls-11" d="M180.35,111.92,169,177.51l2.89-2.2h-32.2l2.89,2.2h0l-2.89,3.8h32.2a3,3,0,0,0,2.89-2.2l9.46-54.43-2.89,2.2h0a3,3,0,0,0,2.89-2.2l1.94-11.16a3,3,0,0,0-2.89-3.8H132.06l2.89,2.2c-1.14-3.15-1.87-7.82-3.81-10.52-.09-.13-.65,1.85.11.25a18.47,18.47,0,0,0,.81-3.25l1.29-5.16c.35-1.42-.46-3.46-2.1-3.69h0l2.1,3.69L134,90.8a3,3,0,0,0-2.1-3.69,33,33,0,0,0-8.24-.7l2.89,2.2-5.8-16c-.52-1.43-2.07-2.68-3.69-2.1l-6.54,2.37c-1.43.52-2.68,2.07-2.1,3.69l5.54,15.29,1.38-3.39C92.49,98.57,94.74,132.24,118.78,139a3,3,0,0,0,3.69-2.1l4.7-18.88h-5.79l11.43,65.76a3,3,0,0,0,2.89,2.2h40.08a3,3,0,0,0,2.89-2.2l12.21-70.28a3,3,0,0,0-2.89-3.8h-4.76c-3.86,0-3.87,6,0,6H188l-2.89-3.8L172.89,182.2l2.89-2.2H135.71l2.89,2.2-11.43-65.76c-.52-3-5.1-2.74-5.79,0l-4.7,18.88,3.69-2.1c-19.46-5.48-19.87-31.68-2-39.59a3,3,0,0,0,1.38-3.39L114.17,75l-2.1,3.69,6.54-2.37-3.69-2.1,5.8,16a3.08,3.08,0,0,0,2.89,2.2,25.22,25.22,0,0,1,6.65.49l-2.1-3.69-.61,2.44c-.35,1.42.46,3.46,2.1,3.69h0l-2.1-3.69c-.82,3.31-2.84,7.61-2.32,11,.55,3.57,2.69,7.43,3.93,10.84a3.1,3.1,0,0,0,2.89,2.2h51.19l-2.89-3.8-1.94,11.16,2.89-2.2h0a3,3,0,0,0-2.89,2.2L169,177.51l2.89-2.2h-32.2a3,3,0,0,0-2.89,3.8h0a3,3,0,0,0,2.89,2.2h32.2a3,3,0,0,0,2.89-2.2l11.4-65.59C186.79,109.74,181,108.12,180.35,111.92Z" transform="translate(-60 -58)"/><path class="cls-11" d="M128.88,133.77l3.71,21.36,5.79-1.6-3.71-21.36-.77,2.92h0c2.88-2.59-1.38-6.82-4.24-4.24-2.22,2,.32,9.22.73,11.56l2.21,12.72c.66,3.8,6.44,2.19,5.79-1.6l-3.71-21.36C134,128.38,128.22,130,128.88,133.77Z" transform="translate(-60 -58)"/><rect class="cls-12" x="121.95" y="72.66" width="6.95" height="63.91" transform="translate(-88.12 -9.05) rotate(-19.9)"/><path class="cls-13" d="M119.58,136.12A23.77,23.77,0,0,1,131.06,90Z" transform="translate(-60 -58)"/><path class="cls-14" d="M120.18,133.68a21.25,21.25,0,0,1,10.27-41.23Z" transform="translate(-60 -58)"/><path class="cls-15" d="M130,94.14l-4.32,17.35a1.2,1.2,0,0,1-.94-1c-.16-1.65-1.43-14.92-1.58-16.49a1.14,1.14,0,0,1,1.48-1.16Z" transform="translate(-60 -58)"/><path class="cls-15" d="M124.82,110.42,120,94.65a1.11,1.11,0,0,0-1.8-.44l-8.81,6.88a1.16,1.16,0,0,0,0,1.89L123,111.88a1.29,1.29,0,0,0,1.85-1.45Z" transform="translate(-60 -58)"/><path class="cls-15" d="M123,111.84,107.81,106a1.14,1.14,0,0,0-1.48,1.16l-.27,11.25a1.13,1.13,0,0,0,1.43,1.21l15.44-5.39a1.3,1.3,0,0,0,.06-2.37Z" transform="translate(-60 -58)"/><path class="cls-15" d="M124.63,115.82l-5.55,15.47a1.12,1.12,0,0,1-1.82.38l-8.47-7.15a1.16,1.16,0,0,1,0-1.89l13.92-8.37a1.25,1.25,0,0,1,1.87,1.56Z" transform="translate(-60 -58)"/><path class="cls-16" d="M124.68,115.67l-.05.14,0-.15a.47.47,0,0,1,.07-.24.49.49,0,0,1,0,.25Z" transform="translate(-60 -58)"/><path class="cls-17" d="M126.18,109.59l-1.73,6.94a3.58,3.58,0,0,1,1.73-6.94Z" transform="translate(-60 -58)"/><path class="cls-18" d="M124.68,115.67l-.05.14.1-.39a.49.49,0,0,1,0,.25Z" transform="translate(-60 -58)"/><path class="cls-18" d="M124.53,116.55h-.07l.18-.72Z" transform="translate(-60 -58)"/><polygon class="cls-19" points="94.32 65.88 94.32 120.31 79.65 120.31 70.19 65.88 94.32 65.88"/><path class="cls-20" d="M183.25,112.72l-11.4,65.59h-32.2l-11.4-65.59h-4.76L135.71,183h40.08L188,112.72Z" transform="translate(-60 -58)"/><polygon class="cls-21" points="123.25 54.72 121.3 65.88 70.19 65.88 68.25 54.72 123.25 54.72"/><rect class="cls-22" x="126.57" y="116.28" width="5.52" height="5.52" transform="translate(-106.29 68.31) rotate(-45)"/><rect class="cls-22" x="129.77" y="129.03" width="3.49" height="3.49" transform="translate(-113.95 73.28) rotate(-45)"/><polygon class="cls-23" points="121.3 65.88 111.84 120.31 94.32 120.31 94.32 65.88 121.3 65.88"/><path class="cls-22" d="M169.73,173.08l4.83-37.23c.12-1-1.38-.95-1.5,0l-4.83,37.23c-.12,1,1.38.95,1.5,0Z" transform="translate(-60 -58)"/></svg>