<svg id="Capa_1" data-name="Capa 1" xmlns="http://www.w3.org/2000/svg" viewBox="0 0 180 184"><defs><style>.cls-1{fill:#11393b;}.cls-2{fill:#e9f1df;}.cls-3{fill:#174c4f;}.cls-4{fill:#fff;}.cls-5{fill:#921116;}.cls-6{fill:#fff200;}</style></defs><title>c03</title><path class="cls-1" d="M0,141H180a0,0,0,0,1,0,0v35.51a7.49,7.49,0,0,1-7.49,7.49H7.49A7.49,7.49,0,0,1,0,176.51V141a0,0,0,0,1,0,0Z"/><path class="cls-2" d="M232.16,238H67.49A7.49,7.49,0,0,1,60,230.51V70A12,12,0,0,1,72,58H227.65a12,12,0,0,1,12,12V230.51A7.49,7.49,0,0,1,232.16,238Z" transform="translate(-60 -58)"/><path class="cls-3" d="M0,138H180a0,0,0,0,1,0,0v35.51a7.49,7.49,0,0,1-7.49,7.49H7.49A7.49,7.49,0,0,1,0,173.51V138a0,0,0,0,1,0,0Z"/><path class="cls-4" d="M200.45,153.55c0-25.56-20.72-73-46.28-73s-46.28,47.47-46.28,73,20.72,8.61,46.28,8.61S200.45,179.12,200.45,153.55Z" transform="translate(-60 -58)"/><path class="cls-5" d="M190.23,169h0c-3.82,0-8.36-1-13.61-2.24-6.72-1.53-14.33-3.27-22.45-3.27s-15.73,1.74-22.45,3.27c-5.25,1.2-9.79,2.24-13.61,2.24-8,0-11.55-4.76-11.55-15.45,0-13.4,5.39-31.75,13.72-46.75,4.49-8.07,9.68-14.81,15-19.47,6.17-5.4,12.53-8.14,18.89-8.14s12.72,2.74,18.89,8.14c5.32,4.66,10.51,11.39,15,19.47,8.34,15,13.72,33.34,13.72,46.75,0,5.6-1,9.53-3,12C196.89,167.88,194.09,169,190.23,169Zm-36.06-8.16c8.41,0,16.18,1.77,23,3.34,5.1,1.16,9.5,2.17,13,2.17h0c3.06,0,5.12-.78,6.49-2.45,1.63-2,2.42-5.38,2.42-10.35,0-12.79-5.38-31.06-13.39-45.46-4.34-7.81-9.33-14.3-14.43-18.76-5.67-5-11.44-7.49-17.14-7.49S142.7,84.37,137,89.33c-5.09,4.46-10.08,10.95-14.43,18.76-8,14.4-13.39,32.67-13.39,45.46,0,10.62,3.56,12.8,8.9,12.8,3.52,0,7.92-1,13-2.17C138,162.62,145.75,160.84,154.17,160.84Z" transform="translate(-60 -58)"/><circle class="cls-6" cx="94.17" cy="67.62" r="21.22"/><path class="cls-5" d="M154.17,148.16a22.55,22.55,0,1,1,22.55-22.54A22.57,22.57,0,0,1,154.17,148.16Zm0-42.44a19.9,19.9,0,1,0,19.9,19.9A19.92,19.92,0,0,0,154.17,105.72Z" transform="translate(-60 -58)"/><path class="cls-4" d="M140.39,135.76a1.32,1.32,0,0,1-1.13-.63c-3-4.86-3.17-10.66-.47-16.75a30.28,30.28,0,0,1,4.93-7.67,1.32,1.32,0,0,1,1.94,1.81c-.15.16-10.28,11.3-4.15,21.22a1.32,1.32,0,0,1-1.13,2Z" transform="translate(-60 -58)"/><circle class="cls-4" cx="83.43" cy="79.99" r="1.65"/><path class="cls-5" d="M115.81,144.31h-.18a1.32,1.32,0,0,1-1.13-1.49c3.46-25,17.87-43.19,18.49-44a1.32,1.32,0,0,1,2.07,1.66c-.15.18-14.58,18.44-17.93,42.66A1.32,1.32,0,0,1,115.81,144.31Z" transform="translate(-60 -58)"/><path class="cls-4" d="M95.34,227.85a2.44,2.44,0,0,1-1.48-.57,1.85,1.85,0,0,1-.35-1.4,64.49,64.49,0,0,1,.89-6.6q.7-3.93,1.7-7.57a1.4,1.4,0,0,1,.76-.94,3.48,3.48,0,0,1,1.48-.27q1.65,0,1.65.92a2.78,2.78,0,0,1-.16.86,50.38,50.38,0,0,0-1.4,5.79,69.33,69.33,0,0,0-1,6.93q.81.08,1.84.08,4.72,0,7.06-2.86a11.72,11.72,0,0,0,2.34-7.64,6.55,6.55,0,0,0-1.84-5,7.2,7.2,0,0,0-5.18-1.75,14,14,0,0,0-4.28.67,15.69,15.69,0,0,0-3.82,1.78,1.31,1.31,0,0,1-.76.24.84.84,0,0,1-.73-.39,1.64,1.64,0,0,1-.27-1,2.31,2.31,0,0,1,.22-1.07,2.16,2.16,0,0,1,.73-.77,14.08,14.08,0,0,1,4.37-1.93,19,19,0,0,1,4.83-.66,13.11,13.11,0,0,1,5.7,1.15,8.34,8.34,0,0,1,3.7,3.36,10.41,10.41,0,0,1,1.3,5.35,14.9,14.9,0,0,1-1.62,7.11,11.31,11.31,0,0,1-4.73,4.71,15.37,15.37,0,0,1-7.4,1.67A26.37,26.37,0,0,1,95.34,227.85Z" transform="translate(-60 -58)"/><path class="cls-4" d="M127,222.29a1.68,1.68,0,0,1,.2.89,2.48,2.48,0,0,1-.51,1.67,9.88,9.88,0,0,1-2.82,2.24,7.83,7.83,0,0,1-3.9,1,6,6,0,0,1-4.4-1.54,5.63,5.63,0,0,1-1.57-4.21,7.81,7.81,0,0,1,.78-3.47,6.41,6.41,0,0,1,2.17-2.55,5.47,5.47,0,0,1,3.15-.95,3.42,3.42,0,0,1,2.51.93,3.39,3.39,0,0,1,.95,2.52,4.36,4.36,0,0,1-1.34,3.2,9.66,9.66,0,0,1-4.52,2.12,2.65,2.65,0,0,0,2.56,1.24,5.91,5.91,0,0,0,2.77-.85,9.14,9.14,0,0,0,2.69-2.23,1,1,0,0,1,.73-.38A.63.63,0,0,1,127,222.29Zm-9-3.08a5.42,5.42,0,0,0-.69,2.81v.05a6.14,6.14,0,0,0,2.51-1.13,2.23,2.23,0,0,0,.92-1.75,1.18,1.18,0,0,0-.28-.82,1,1,0,0,0-.77-.31A2,2,0,0,0,118,219.21Z" transform="translate(-60 -58)"/><path class="cls-4" d="M127.92,228.06a1.91,1.91,0,0,1-.74-1.46,1.66,1.66,0,0,1,.51-1.21,2.05,2.05,0,0,1,1.51-.51,6,6,0,0,1,.82.07l.72.09a3.48,3.48,0,0,0-.31-1.32,6.63,6.63,0,0,0-.72-1.2q-.43-.58-.81-1a17.69,17.69,0,0,1-1.66,2.65,19.79,19.79,0,0,1-1.8,2,1.45,1.45,0,0,1-1,.49.89.89,0,0,1-.7-.31,1.13,1.13,0,0,1-.27-.77,1.54,1.54,0,0,1,.38-1l.35-.43a34.87,34.87,0,0,0,2.24-3q.46-.78,1.08-2.09t1.21-2.71a2.08,2.08,0,0,1,2.13-1.19,2.84,2.84,0,0,1,1.05.13.45.45,0,0,1,.3.43,2,2,0,0,1-.11.51,3.89,3.89,0,0,1-.3.7,3.85,3.85,0,0,0-.49,1.65,1.8,1.8,0,0,0,.28.89,10.21,10.21,0,0,0,.88,1.21,17.13,17.13,0,0,1,1.31,1.93,3.5,3.5,0,0,1,.45,1.74,7.3,7.3,0,0,1-.05.76,8.61,8.61,0,0,0,3.1-2.73A1,1,0,0,1,138,222a.63.63,0,0,1,.55.32,1.68,1.68,0,0,1,.2.89,2.62,2.62,0,0,1-.51,1.67,8.24,8.24,0,0,1-2.58,2.28,7.3,7.3,0,0,1-3,.66,3.83,3.83,0,0,1-2.56.92A3.17,3.17,0,0,1,127.92,228.06Z" transform="translate(-60 -58)"/><path class="cls-4" d="M137.22,226.9a4.85,4.85,0,0,1-1-3.19,8.78,8.78,0,0,1,1-4.09,8.53,8.53,0,0,1,2.66-3.11,6,6,0,0,1,3.52-1.17,1.05,1.05,0,0,1,.8.23,1.94,1.94,0,0,1,.34.82,6.4,6.4,0,0,1,1.19-.11q1.32,0,1.32.95a20.36,20.36,0,0,1-.41,2.7,26.2,26.2,0,0,0-.62,4.32,1,1,0,0,0,.2.65.65.65,0,0,0,.53.24,2.05,2.05,0,0,0,1.24-.66,23.34,23.34,0,0,0,2-2.15,1,1,0,0,1,.73-.38.63.63,0,0,1,.55.32,1.68,1.68,0,0,1,.2.89,2.48,2.48,0,0,1-.51,1.67,13.61,13.61,0,0,1-2.35,2.32,4,4,0,0,1-2.4.94,2.52,2.52,0,0,1-1.63-.61,3.7,3.7,0,0,1-1.12-1.66,4.1,4.1,0,0,1-3.54,2.27A3.28,3.28,0,0,1,137.22,226.9Zm4.78-2.21a4.55,4.55,0,0,0,.78-1.86l1-5a3.28,3.28,0,0,0-2.09.85,5.73,5.73,0,0,0-1.53,2.17,7.31,7.31,0,0,0-.57,2.86,1.91,1.91,0,0,0,.34,1.24,1.15,1.15,0,0,0,.93.41A1.48,1.48,0,0,0,142,224.69Z" transform="translate(-60 -58)"/><path class="cls-4" d="M163.64,222.35a1.63,1.63,0,0,1,.2.85,2.07,2.07,0,0,1-.19,1,1.76,1.76,0,0,1-.59.62l-5.18,3.48a32.14,32.14,0,0,1-2.69,8.79q-1.66,3.2-4.23,3.2a3.06,3.06,0,0,1-2.24-.85,3,3,0,0,1-.86-2.23,6.41,6.41,0,0,1,.58-2.59,11.71,11.71,0,0,1,2.16-3,35.77,35.77,0,0,1,4.47-3.93l.08-.62q.19-1,.43-2.86a6.86,6.86,0,0,1-1.51,3,2.84,2.84,0,0,1-2.05,1,2.32,2.32,0,0,1-2-1.12,4.83,4.83,0,0,1-.77-2.79,21.66,21.66,0,0,1,1.16-7.29,2.26,2.26,0,0,1,.76-1.16,2.67,2.67,0,0,1,1.54-.35,1.33,1.33,0,0,1,.82.19.69.69,0,0,1,.23.57,11.1,11.1,0,0,1-.3,1.46q-.27,1-.43,1.81-.22,1.11-.38,2.12a10.88,10.88,0,0,0-.16,1.66q0,1,.57,1,.41,0,1-.81a11.86,11.86,0,0,0,1.3-2.46,32.79,32.79,0,0,0,1.34-4.05,1.75,1.75,0,0,1,2-1.51,1.65,1.65,0,0,1,.86.16.6.6,0,0,1,.24.54q0,.68-.7,4.64l-.7,4.35q2.08-1.57,4-2.86a1.23,1.23,0,0,1,.62-.22A.62.62,0,0,1,163.64,222.35Zm-10.87,13.73a22.9,22.9,0,0,0,1.67-5.21,15.33,15.33,0,0,0-3,3.2,4.86,4.86,0,0,0-.93,2.52,1.47,1.47,0,0,0,.18.76.62.62,0,0,0,.58.3Q151.93,237.65,152.77,236.08Z" transform="translate(-60 -58)"/><path class="cls-4" d="M162.66,227a4.83,4.83,0,0,1-.77-2.79,21.66,21.66,0,0,1,1.16-7.29,2.26,2.26,0,0,1,.76-1.16,2.67,2.67,0,0,1,1.54-.35,1.33,1.33,0,0,1,.82.19.69.69,0,0,1,.23.57,11.1,11.1,0,0,1-.3,1.46q-.27,1-.43,1.81a25.48,25.48,0,0,0-.54,3.78,1.69,1.69,0,0,0,.13.8.46.46,0,0,0,.43.23q.41,0,1-.81A11.86,11.86,0,0,0,168,221a32.79,32.79,0,0,0,1.34-4.05,1.75,1.75,0,0,1,2-1.51,1.79,1.79,0,0,1,.86.15.6.6,0,0,1,.24.55,26.1,26.1,0,0,1-.67,3.7,29.93,29.93,0,0,0-.76,4.27,1.3,1.3,0,0,0,.22.8.68.68,0,0,0,.57.28,2.11,2.11,0,0,0,1.28-.66,21.81,21.81,0,0,0,2-2.15,1,1,0,0,1,.73-.38.63.63,0,0,1,.55.32,1.68,1.68,0,0,1,.2.89,2.48,2.48,0,0,1-.51,1.67,11.92,11.92,0,0,1-2.5,2.35,5.23,5.23,0,0,1-3,.92,2.07,2.07,0,0,1-1.9-1,5.41,5.41,0,0,1-.61-2.81,6.33,6.33,0,0,1-1.38,2.82,2.68,2.68,0,0,1-2,1A2.32,2.32,0,0,1,162.66,227Z" transform="translate(-60 -58)"/><path class="cls-4" d="M174.84,227a10.33,10.33,0,0,1-.42-3.46,22,22,0,0,1,1-6.67,2,2,0,0,1,.8-1.15,2.81,2.81,0,0,1,1.55-.36,1.53,1.53,0,0,1,.76.13.56.56,0,0,1,.22.51,10.25,10.25,0,0,1-.41,1.94q-.27,1.08-.43,1.89a19.08,19.08,0,0,0-.27,2,15.33,15.33,0,0,1,2-3.78,7.85,7.85,0,0,1,2.17-2.08,4,4,0,0,1,2-.62,1.55,1.55,0,0,1,1.75,1.75,21.69,21.69,0,0,1-.59,3.81,18.74,18.74,0,0,0-.51,3.1q0,1.08.78,1.08a2.11,2.11,0,0,0,1.28-.66,21.81,21.81,0,0,0,2-2.15,1,1,0,0,1,.73-.38.63.63,0,0,1,.55.32,1.68,1.68,0,0,1,.2.89,2.48,2.48,0,0,1-.51,1.67,11.92,11.92,0,0,1-2.5,2.35,5.23,5.23,0,0,1-3,.92,2.62,2.62,0,0,1-2.08-.8,3.39,3.39,0,0,1-.7-2.31,16.86,16.86,0,0,1,.38-2.7,14,14,0,0,0,.35-2.35q0-.43-.3-.43t-1,.9a14.6,14.6,0,0,0-1.3,2.39A18.61,18.61,0,0,0,178.2,226a4.21,4.21,0,0,1-.69,1.71,1.55,1.55,0,0,1-1.23.45A1.47,1.47,0,0,1,174.84,227Z" transform="translate(-60 -58)"/><path class="cls-4" d="M189.61,227.32a5,5,0,0,1-1.69-2.09,6.86,6.86,0,0,1-.57-2.78,8.37,8.37,0,0,1,.77-3.66,6.21,6.21,0,0,1,2.09-2.51,5.14,5.14,0,0,1,3-.91,4.63,4.63,0,0,1,2.73.8,4.91,4.91,0,0,1,1.7,2.09,6.86,6.86,0,0,1,.57,2.78,8.24,8.24,0,0,1-.78,3.66,6.26,6.26,0,0,1-2.12,2.51,5.15,5.15,0,0,1-3,.9A4.56,4.56,0,0,1,189.61,227.32Zm4.56-3.12a5.49,5.49,0,0,0,.63-2.92,3.84,3.84,0,0,0-.54-2.24,1.57,1.57,0,0,0-1.3-.76,1.87,1.87,0,0,0-1.61,1,5.47,5.47,0,0,0-.63,2.93,3.83,3.83,0,0,0,.54,2.27,1.63,1.63,0,0,0,1.35.73A1.83,1.83,0,0,0,194.17,224.2Z" transform="translate(-60 -58)"/><path class="cls-4" d="M202.73,228.06a1.9,1.9,0,0,1-.74-1.46,1.66,1.66,0,0,1,.51-1.21,2.05,2.05,0,0,1,1.51-.51,6,6,0,0,1,.82.07l.72.09a3.49,3.49,0,0,0-.31-1.32,6.66,6.66,0,0,0-.72-1.2q-.43-.58-.81-1a17.69,17.69,0,0,1-1.66,2.65,19.79,19.79,0,0,1-1.79,2,1.45,1.45,0,0,1-1,.49.89.89,0,0,1-.7-.31,1.13,1.13,0,0,1-.27-.77,1.54,1.54,0,0,1,.38-1l.35-.43a34.79,34.79,0,0,0,2.24-3,17.48,17.48,0,0,0,1-1.86q.5-1.08,1.31-2.94a2.08,2.08,0,0,1,2.13-1.19,2.84,2.84,0,0,1,1.05.13.45.45,0,0,1,.3.43,2,2,0,0,1-.11.51,3.92,3.92,0,0,1-.3.7,3.85,3.85,0,0,0-.49,1.65,1.8,1.8,0,0,0,.28.89,10.18,10.18,0,0,0,.88,1.21,17.08,17.08,0,0,1,1.31,1.93,3.51,3.51,0,0,1,.45,1.74,4.58,4.58,0,0,1-.53,2.15,4.29,4.29,0,0,1-1.47,1.63,3.85,3.85,0,0,1-2.16.62A3.17,3.17,0,0,1,202.73,228.06Z" transform="translate(-60 -58)"/><path class="cls-4" d="M85.5,220h-18a1.5,1.5,0,0,1,0-3h18a1.5,1.5,0,0,1,0,3Z" transform="translate(-60 -58)"/><path class="cls-4" d="M232.5,220h-18a1.5,1.5,0,0,1,0-3h18a1.5,1.5,0,0,1,0,3Z" transform="translate(-60 -58)"/></svg>