<svg id="Capa_1" data-name="Capa 1" xmlns="http://www.w3.org/2000/svg" viewBox="0 0 180 184"><defs><style>.cls-1{fill:none;stroke:#fff;stroke-linecap:round;stroke-miterlimit:10;stroke-width:3px;}.cls-2{fill:#11393b;}.cls-3{fill:#e9f1df;}.cls-4{fill:#174c4f;}.cls-5{font-size:27px;font-family:Pacifico-Regular, Pacifico;}.cls-5,.cls-9{fill:#fff;}.cls-6{letter-spacing:-0.01em;}.cls-7{letter-spacing:0em;}.cls-8{letter-spacing:0em;}.cls-10{fill:#921116;}.cls-11{fill:#fff200;}</style></defs><title>c03</title><line class="cls-1" x1="50.5" y1="160.5" x2="23.5" y2="160.5"/><line class="cls-1" x1="155.5" y1="160.5" x2="128.5" y2="160.5"/><line class="cls-1" x1="55.5" y1="160.5" x2="37.5" y2="160.5"/><line class="cls-1" x1="151.5" y1="160.5" x2="133.5" y2="160.5"/><path class="cls-2" d="M0,141H180a0,0,0,0,1,0,0v35.51a7.49,7.49,0,0,1-7.49,7.49H7.49A7.49,7.49,0,0,1,0,176.51V141a0,0,0,0,1,0,0Z"/><path class="cls-3" d="M232.16,238H67.49A7.49,7.49,0,0,1,60,230.51V70A12,12,0,0,1,72,58H227.65a12,12,0,0,1,12,12V230.51A7.49,7.49,0,0,1,232.16,238Z" transform="translate(-60 -58)"/><path class="cls-4" d="M0,138H180a0,0,0,0,1,0,0v35.51a7.49,7.49,0,0,1-7.49,7.49H7.49A7.49,7.49,0,0,1,0,173.51V138a0,0,0,0,1,0,0Z"/><text class="cls-5" transform="translate(30.56 169.98)">Desa<tspan class="cls-6" x="57.4" y="0">y</tspan><tspan class="cls-7" x="70.04" y="0">un</tspan><tspan class="cls-8" x="95.9" y="0">o</tspan><tspan x="108" y="0">s</tspan></text><line class="cls-1" x1="25.5" y1="160.5" x2="7.5" y2="160.5"/><line class="cls-1" x1="172.5" y1="160.5" x2="154.5" y2="160.5"/><path class="cls-9" d="M200.45,153.55c0-25.56-20.72-73-46.28-73s-46.28,47.47-46.28,73,20.72,8.61,46.28,8.61S200.45,179.12,200.45,153.55Z" transform="translate(-60 -58)"/><path class="cls-10" d="M190.23,169h0c-3.82,0-8.36-1-13.61-2.24-6.72-1.53-14.33-3.27-22.45-3.27s-15.73,1.74-22.45,3.27c-5.25,1.2-9.79,2.24-13.61,2.24-8,0-11.55-4.76-11.55-15.45,0-13.4,5.39-31.75,13.72-46.75,4.49-8.07,9.68-14.81,15-19.47,6.17-5.4,12.53-8.14,18.89-8.14s12.72,2.74,18.89,8.14c5.32,4.66,10.51,11.39,15,19.47,8.34,15,13.72,33.34,13.72,46.75,0,5.6-1,9.53-3,12C196.89,167.88,194.09,169,190.23,169Zm-36.06-8.16c8.41,0,16.18,1.77,23,3.34,5.1,1.16,9.5,2.17,13,2.17h0c3.06,0,5.12-.78,6.49-2.45,1.63-2,2.42-5.38,2.42-10.35,0-12.79-5.38-31.06-13.39-45.46-4.34-7.81-9.33-14.3-14.43-18.76-5.67-5-11.44-7.49-17.14-7.49S142.7,84.37,137,89.33c-5.09,4.46-10.08,10.95-14.43,18.76-8,14.4-13.39,32.67-13.39,45.46,0,10.62,3.56,12.8,8.9,12.8,3.52,0,7.92-1,13-2.17C138,162.62,145.75,160.84,154.17,160.84Z" transform="translate(-60 -58)"/><circle class="cls-11" cx="94.17" cy="67.62" r="21.22"/><path class="cls-10" d="M154.17,148.16a22.55,22.55,0,1,1,22.55-22.54A22.57,22.57,0,0,1,154.17,148.16Zm0-42.44a19.9,19.9,0,1,0,19.9,19.9A19.92,19.92,0,0,0,154.17,105.72Z" transform="translate(-60 -58)"/><path class="cls-9" d="M140.39,135.76a1.32,1.32,0,0,1-1.13-.63c-3-4.86-3.17-10.66-.47-16.75a30.28,30.28,0,0,1,4.93-7.67,1.32,1.32,0,0,1,1.94,1.81c-.15.16-10.28,11.3-4.15,21.22a1.32,1.32,0,0,1-1.13,2Z" transform="translate(-60 -58)"/><circle class="cls-9" cx="83.43" cy="79.99" r="1.65"/><path class="cls-10" d="M115.81,144.31h-.18a1.32,1.32,0,0,1-1.13-1.49c3.46-25,17.87-43.19,18.49-44a1.32,1.32,0,0,1,2.07,1.66c-.15.18-14.58,18.44-17.93,42.66A1.32,1.32,0,0,1,115.81,144.31Z" transform="translate(-60 -58)"/></svg>