<svg id="Capa_1" data-name="Capa 1" xmlns="http://www.w3.org/2000/svg" viewBox="0 0 180 184"><defs><style>.cls-1{fill:#11393b;}.cls-2{fill:#e9f1df;}.cls-3{fill:#174c4f;}.cls-4{fill:#27a57a;stroke:#6b5630;stroke-miterlimit:10;stroke-width:3px;}.cls-5{fill:#7a3303;}.cls-6{fill:#d6ab5f;}.cls-7{fill:#f7c90d;}.cls-8{fill:#b2d43b;}.cls-9{fill:#e0ef1d;}.cls-10{fill:#aa4907;}.cls-11{fill:#cc1906;}.cls-12{fill:#ff4e10;}.cls-13{fill:#f9eac5;}.cls-14{fill:#a9cc15;}.cls-15{fill:#c61c4d;}.cls-16{fill:#e5a3c6;}.cls-17{fill:#eac986;}.cls-18{fill:#fff;}</style></defs><title>c04</title><path class="cls-1" d="M0,141H180a0,0,0,0,1,0,0v35.51a7.49,7.49,0,0,1-7.49,7.49H7.49A7.49,7.49,0,0,1,0,176.51V141a0,0,0,0,1,0,0Z"/><path class="cls-2" d="M232.16,238H67.49A7.49,7.49,0,0,1,60,230.51V70A12,12,0,0,1,72,58H227.65a12,12,0,0,1,12,12V230.51A7.49,7.49,0,0,1,232.16,238Z" transform="translate(-60 -58)"/><path class="cls-3" d="M0,138H180a0,0,0,0,1,0,0v35.51a7.49,7.49,0,0,1-7.49,7.49H7.49A7.49,7.49,0,0,1,0,173.51V138a0,0,0,0,1,0,0Z"/><path class="cls-4" d="M196.32,125.19s-.67.15-1.83.36c.06-.22.12-.44.18-.65a5.08,5.08,0,0,0,.8-.63c1.72-1.71,1.52-3.15.83-4.94,1-.84,2.5-1.31,3.49-2.3,2.85-2.85,0-6,.11-9.32.34-8.86-3.39-10.32-9.88-6.53a8.6,8.6,0,0,0-.06-1V93c.51-5-2.67-7.54-6.31-8.15-16-2.69-47-2.92-62.92-.23-2.17.37-6.08,2-6.34,6.63h0v.11c0,.27,0,.54,0,.83v5.92a12.25,12.25,0,0,0-4.58,19c-4.23,5.71-2.76,16.79,5.67,20.8-.57.68-1.15,1.41-1.72,2.19a14.64,14.64,0,0,0-4.08,7.2c-2.56,6.37-2.86,14.11,3.58,22,0,0,1.28-.25,3.35-.5l0,2.52a9.94,9.94,0,0,0,9.94,10.1h12.86a13.65,13.65,0,0,0,1.68,0h16.4L160.9,184l.83-2.66H178a9.94,9.94,0,0,0,9.91-9.25,14.41,14.41,0,0,0,3.07-11C195.87,156.35,209.71,140.62,196.32,125.19Zm-2.16,25.92a2.23,2.23,0,1,1,2.23-2.23A2.23,2.23,0,0,1,194.16,151.11Zm1.78-18.77a1.78,1.78,0,1,1-1.78,1.78A1.78,1.78,0,0,1,195.94,132.34Zm-4.32,6.37a2.74,2.74,0,1,1-.32,3.87A2.74,2.74,0,0,1,191.62,138.71Z" transform="translate(-60 -58)"/><path class="cls-5" d="M183.64,109.39c-16-2.69-47-2.92-62.92-.22-3.23.55-10.37,3.86-3.44,15.87l-.72,46.2a9.94,9.94,0,0,0,9.94,10.1H178a9.94,9.94,0,0,0,9.94-10.1L187.2,125c5.82-10.09,1.58-14.78-3.57-15.64Z" transform="translate(-60 -58)"/><path class="cls-6" d="M183.64,100.16c-16-2.69-47-2.92-62.92-.23-3.23.55-10.37,3.86-3.44,15.87l-.72,46.2a9.94,9.94,0,0,0,9.94,10.1H178a9.94,9.94,0,0,0,9.94-10.1l-.72-46.2c5.82-10.09,1.58-14.78-3.57-15.64Z" transform="translate(-60 -58)"/><path class="cls-7" d="M134,163.36,160.9,184l6.43-20.64Zm24.59,15a2.3,2.3,0,1,1,2.3-2.3A2.3,2.3,0,0,1,158.6,178.37Z" transform="translate(-60 -58)"/><path class="cls-7" d="M113.24,169.23s13.63-2.71,23.82.9l-15.8-38S97.75,150.31,113.24,169.23Z" transform="translate(-60 -58)"/><circle class="cls-8" cx="59.29" cy="51.3" r="12.25"/><circle class="cls-9" cx="59.29" cy="51.3" r="9.6"/><rect class="cls-10" x="54.37" y="33.23" width="75.59" height="9.23"/><path class="cls-11" d="M142.52,157.79c-18.67-10.12-22.84,18.71-6,23.1S163.75,158.1,142.52,157.79Z" transform="translate(-60 -58)"/><path class="cls-12" d="M141.71,160.86c-13.56-7.35-16.59,13.6-4.39,16.79S157.14,161.1,141.71,160.86Z" transform="translate(-60 -58)"/><ellipse class="cls-13" cx="138.16" cy="174.44" rx="2.23" ry="1.12" transform="translate(-125.59 205.9) rotate(-75.32)"/><ellipse class="cls-13" cx="135.93" cy="161.89" rx="1.12" ry="2.23" transform="translate(-132.8 137.3) rotate(-59.08)"/><ellipse class="cls-13" cx="134.03" cy="166.44" rx="1.12" ry="2.24" transform="translate(-122.97 191.26) rotate(-73.96)"/><ellipse class="cls-13" cx="134.37" cy="171.14" rx="2.23" ry="1.12" transform="translate(-108.07 -5.44) rotate(-18.84)"/><ellipse class="cls-13" cx="146.24" cy="164.65" rx="2.23" ry="1.12" transform="translate(-64.49 -53.9) rotate(-1.58)"/><ellipse class="cls-13" cx="145.66" cy="169.55" rx="1.12" ry="2.23" transform="translate(-112.78 214.42) rotate(-76.74)"/><ellipse class="cls-13" cx="143.07" cy="173.48" rx="1.12" ry="2.23" transform="translate(-139.25 81.73) rotate(-41.86)"/><path class="cls-11" d="M124.09,115.68c-18.67-10.12-22.84,18.71-6,23.1S145.32,116,124.09,115.68Z" transform="translate(-60 -58)"/><path class="cls-12" d="M123.28,118.76c-13.56-7.35-16.59,13.6-4.39,16.79S138.71,119,123.28,118.76Z" transform="translate(-60 -58)"/><ellipse class="cls-13" cx="119.73" cy="132.34" rx="2.23" ry="1.12" transform="translate(-98.62 156.64) rotate(-75.33)"/><ellipse class="cls-13" cx="117.5" cy="119.79" rx="1.12" ry="2.23" transform="translate(-105.64 101.03) rotate(-59.08)"/><ellipse class="cls-13" cx="115.6" cy="124.34" rx="1.12" ry="2.23" transform="translate(-95.83 143.09) rotate(-73.96)"/><ellipse class="cls-13" cx="115.94" cy="129.04" rx="2.23" ry="1.12" transform="translate(-95.46 -13.64) rotate(-18.84)"/><ellipse class="cls-13" cx="127.81" cy="122.54" rx="2.23" ry="1.12" transform="translate(-63.35 -54.41) rotate(-1.59)"/><ellipse class="cls-13" cx="127.23" cy="127.44" rx="1.12" ry="2.23" transform="translate(-86 164.04) rotate(-76.74)"/><ellipse class="cls-13" cx="124.64" cy="131.37" rx="1.12" ry="2.23" transform="translate(-115.85 58.68) rotate(-41.85)"/><path class="cls-8" d="M187.27,103l.45,28.94c6.59.65,7.48-9.86,7.47-10.13-.09-2.91,2.93-3.1,4.59-4.75,2.85-2.85,0-6,.11-9.32C200.28,97.67,195.43,97.12,187.27,103Z" transform="translate(-60 -58)"/><path class="cls-14" d="M159,158.65l-34.7.54c-.79,7.9,11.83,9,12.14,9,3.49-.1,3.71,3.52,5.69,5.5,3.41,3.42,7.19,0,11.18.13C165.32,174.25,166,168.44,159,158.65Z" transform="translate(-60 -58)"/><path class="cls-9" d="M187.24,108.5v30.45c6.26.62,3.87-9.92,3.86-10.17-.08-2.77,2.79-2.94,4.36-4.51,2.08-2.08,1.35-3.74.34-6.12-1.1-2.61,1.87-4.43,2.53-6.75C199.46,107.45,193.89,103.73,187.24,108.5Z" transform="translate(-60 -58)"/><circle class="cls-15" cx="116.42" cy="104.96" r="14.67"/><circle class="cls-15" cx="63.94" cy="92.57" r="14.67"/><circle class="cls-16" cx="117.54" cy="115.07" r="1.11"/><circle class="cls-16" cx="127.09" cy="103.77" r="1.19"/><circle class="cls-16" cx="124.5" cy="111.76" r="1.04"/><circle class="cls-16" cx="113.09" cy="112.2" r="2.06"/><circle class="cls-16" cx="53.84" cy="89.42" r="1.46"/><circle class="cls-16" cx="54.93" cy="85.19" r="0.58"/><circle class="cls-16" cx="55.28" cy="96.05" r="1.85"/><path class="cls-7" d="M196.32,125.19s-13.54,3.1-23.84-.21l16.9,37.55S212.35,143.65,196.32,125.19Zm-5,17.38a2.74,2.74,0,1,1,3.87.32A2.74,2.74,0,0,1,191.3,142.57Zm2.86,8.54a2.23,2.23,0,1,1,2.23-2.23A2.23,2.23,0,0,1,194.16,151.11Zm1.78-15.21a1.78,1.78,0,1,1,1.78-1.78A1.78,1.78,0,0,1,195.94,135.9Z" transform="translate(-60 -58)"/><path class="cls-10" d="M183.64,94.06c-16-2.69-47-2.92-62.92-.23-3.23.55-10.37,3.87-3.44,15.87l-.72,46.2A9.94,9.94,0,0,0,126.5,166H178a9.94,9.94,0,0,0,9.94-10.1l-.72-46.2c5.82-10.09,1.58-14.78-3.57-15.64Z" transform="translate(-60 -58)"/><path class="cls-17" d="M183.64,84.82c-16-2.69-47-2.92-62.92-.23-3.23.55-10.37,3.87-3.44,15.87l-.72,46.2a9.94,9.94,0,0,0,9.94,10.1H178a9.94,9.94,0,0,0,9.94-10.1l-.72-46.2c5.82-10.09,1.58-14.78-3.57-15.64Z" transform="translate(-60 -58)"/><circle class="cls-6" cx="92.34" cy="87.97" r="1.67"/><circle class="cls-6" cx="88.86" cy="33.49" r="1.32"/><circle class="cls-6" cx="105.85" cy="56.54" r="1.48"/><circle class="cls-6" cx="109.31" cy="75.35" r="1.71"/><circle class="cls-6" cx="71.21" cy="74.77" r="1.34"/><circle class="cls-6" cx="67.42" cy="87.97" r="1.34"/><circle class="cls-6" cx="82.35" cy="58.91" r="2.1"/><circle class="cls-6" cx="66.26" cy="37.84" r="1.15"/><circle class="cls-6" cx="69.87" cy="55.05" r="1.15"/><circle class="cls-6" cx="77.48" cy="51.3" r="1.15"/><circle class="cls-6" cx="104.37" cy="61.01" r="1.15"/><circle class="cls-6" cx="113.67" cy="76.11" r="1.15"/><circle class="cls-6" cx="118.91" cy="85.76" r="1.15"/><circle class="cls-6" cx="98.21" cy="90.84" r="1.15"/><circle class="cls-6" cx="113.67" cy="39" r="1.38"/><path class="cls-18" d="M99.64,227.84a4.59,4.59,0,0,1-2.16-4.17A4.15,4.15,0,0,1,98,221.4a1.69,1.69,0,0,1,1.51-.78,1.81,1.81,0,0,1,1.19.38,1.2,1.2,0,0,1,.46,1,4.84,4.84,0,0,1-.08.94,2.92,2.92,0,0,1,0,.38,3.85,3.85,0,0,0,0,.57,1.92,1.92,0,0,0,1.23,1.81,8.07,8.07,0,0,0,3.44.59,6.66,6.66,0,0,0,3.59-.82,2.59,2.59,0,0,0,1.3-2.31,2.29,2.29,0,0,0-.59-1.58,5,5,0,0,0-1.48-1.11q-.89-.45-2.51-1.09a28.18,28.18,0,0,1-3.39-1.54,7,7,0,0,1-2.24-2,5.09,5.09,0,0,1-.93-3.12,6,6,0,0,1,1-3.46,6.73,6.73,0,0,1,3-2.35,11.65,11.65,0,0,1,4.6-.84,10.83,10.83,0,0,1,3.62.58,5.87,5.87,0,0,1,2.63,1.77,4.42,4.42,0,0,1,1,2.92,5.13,5.13,0,0,1-.51,2.57,1.65,1.65,0,0,1-1.51.86,1.67,1.67,0,0,1-1.17-.43,1.34,1.34,0,0,1-.47-1,5.12,5.12,0,0,1,.08-.95q.08-.81.08-1a1.87,1.87,0,0,0-1.11-1.73,5.78,5.78,0,0,0-2.75-.59,6.22,6.22,0,0,0-3.55.85,2.74,2.74,0,0,0-1.23,2.39,2.58,2.58,0,0,0,.63,1.75,5.24,5.24,0,0,0,1.58,1.22q.94.48,2.65,1.16a34.17,34.17,0,0,1,3.29,1.51,6.56,6.56,0,0,1,2.12,1.84,4.61,4.61,0,0,1,.88,2.86,5.65,5.65,0,0,1-2.42,4.9,11,11,0,0,1-6.47,1.71A10.66,10.66,0,0,1,99.64,227.84Z" transform="translate(-60 -58)"/><path class="cls-18" d="M117.22,227.9a4.85,4.85,0,0,1-1-3.19,8.78,8.78,0,0,1,1-4.09,8.53,8.53,0,0,1,2.66-3.11,6,6,0,0,1,3.52-1.17,1,1,0,0,1,.8.23,1.94,1.94,0,0,1,.34.82,6.39,6.39,0,0,1,1.19-.11q1.32,0,1.32.95a20.24,20.24,0,0,1-.4,2.7,26.15,26.15,0,0,0-.62,4.32,1,1,0,0,0,.2.65.65.65,0,0,0,.53.24,2.05,2.05,0,0,0,1.24-.66,23.21,23.21,0,0,0,2-2.15,1,1,0,0,1,.73-.38.63.63,0,0,1,.55.32,1.68,1.68,0,0,1,.2.89,2.48,2.48,0,0,1-.51,1.67,13.62,13.62,0,0,1-2.35,2.32,4,4,0,0,1-2.4.94,2.52,2.52,0,0,1-1.63-.61,3.7,3.7,0,0,1-1.12-1.66,4.1,4.1,0,0,1-3.54,2.27A3.28,3.28,0,0,1,117.22,227.9Zm4.78-2.21a4.55,4.55,0,0,0,.78-1.86l1-5a3.27,3.27,0,0,0-2.09.85,5.72,5.72,0,0,0-1.53,2.17,7.3,7.3,0,0,0-.57,2.86,1.91,1.91,0,0,0,.34,1.24,1.14,1.14,0,0,0,.93.41A1.48,1.48,0,0,0,122,225.69Z" transform="translate(-60 -58)"/><path class="cls-18" d="M129.73,228a10.34,10.34,0,0,1-.42-3.46,22,22,0,0,1,1-6.67,2,2,0,0,1,.8-1.15,2.81,2.81,0,0,1,1.55-.36,1.53,1.53,0,0,1,.76.13.56.56,0,0,1,.22.51,10.28,10.28,0,0,1-.4,1.94q-.27,1.08-.43,1.89a19.33,19.33,0,0,0-.27,2,15.35,15.35,0,0,1,2-3.78A7.84,7.84,0,0,1,136.7,217a4,4,0,0,1,2-.62,1.55,1.55,0,0,1,1.75,1.75,21.75,21.75,0,0,1-.59,3.81,18.7,18.7,0,0,0-.51,3.1q0,1.08.78,1.08a2.11,2.11,0,0,0,1.28-.66,21.8,21.8,0,0,0,2-2.15,1,1,0,0,1,.73-.38.62.62,0,0,1,.55.32,1.68,1.68,0,0,1,.2.89,2.48,2.48,0,0,1-.51,1.67,11.92,11.92,0,0,1-2.5,2.35,5.23,5.23,0,0,1-3,.92,2.62,2.62,0,0,1-2.08-.8A3.39,3.39,0,0,1,136,226a16.86,16.86,0,0,1,.38-2.7,14,14,0,0,0,.35-2.35q0-.43-.3-.43t-1,.9a14.52,14.52,0,0,0-1.3,2.39,18.61,18.61,0,0,0-1.07,3.13,4.21,4.21,0,0,1-.69,1.71,1.55,1.55,0,0,1-1.23.45A1.47,1.47,0,0,1,129.73,228Z" transform="translate(-60 -58)"/><path class="cls-18" d="M158.54,223.29a1.68,1.68,0,0,1,.2.89,2.48,2.48,0,0,1-.51,1.67,13,13,0,0,1-2.43,2.31,4.46,4.46,0,0,1-2.62,1q-2.05,0-3.13-2.4a7.77,7.77,0,0,1-2,1.92,3.94,3.94,0,0,1-2,.49,3.43,3.43,0,0,1-2.71-1.23,4.7,4.7,0,0,1-1.07-3.2,8.9,8.9,0,0,1,.92-4,8.18,8.18,0,0,1,2.53-3,7.34,7.34,0,0,1,3.6-1.39,34,34,0,0,1,2-9q1.44-3.71,3.79-3.71a2.31,2.31,0,0,1,1.93,1.05,5.4,5.4,0,0,1,.77,3.19,21,21,0,0,1-1.48,7.07,52.7,52.7,0,0,1-4,8.32,5.84,5.84,0,0,0,.47,2.24,1.07,1.07,0,0,0,.93.67,2.31,2.31,0,0,0,1.49-.65,19.83,19.83,0,0,0,2-2.16A1,1,0,0,1,158,223,.62.62,0,0,1,158.54,223.29ZM148.05,226a7.86,7.86,0,0,0,1.29-1.55,18,18,0,0,1-.27-3.27q0-.65.05-2.11a4.52,4.52,0,0,0-2.47,2,6.1,6.1,0,0,0-1,3.39q0,2,1.35,2A1.63,1.63,0,0,0,148.05,226Zm5.72-17.9a33.21,33.21,0,0,0-.88,4.76q-.36,2.94-.53,6.16,3-6.59,3-10.58a5.63,5.63,0,0,0-.18-1.59c-.12-.38-.26-.57-.42-.57Q154.28,206.25,153.77,208.07Z" transform="translate(-60 -58)"/><path class="cls-18" d="M177,220.75a.75.75,0,0,1,.62.27,1.14,1.14,0,0,1,.22.73,2.29,2.29,0,0,1-.32,1.31,1.83,1.83,0,0,1-1,.69,8.47,8.47,0,0,1-2.65.41,7.58,7.58,0,0,1-2.24-.32q-.78,1.27-1.73,2.62a9.38,9.38,0,0,1-1.85,2.11,2.86,2.86,0,0,1-1.74.57,1.83,1.83,0,0,1-1.63-.84,6,6,0,0,1-.69-2.75l-.13-2a26,26,0,0,1-1.5,3.46,4.86,4.86,0,0,1-1.32,1.65,2.65,2.65,0,0,1-1.55.46,2,2,0,0,1-1.74-.86,5.48,5.48,0,0,1-.8-2.73q-.32-3.78-.32-6.62V218a1.54,1.54,0,0,1,.49-1.24,2.25,2.25,0,0,1,1.38-.35,1.5,1.5,0,0,1,1,.31,1.36,1.36,0,0,1,.34,1q0,3.11.38,8.07,1.84-3.86,3.38-8a2.19,2.19,0,0,1,.72-1.09,1.76,1.76,0,0,1,1-.28,1.38,1.38,0,0,1,1,.3,1.52,1.52,0,0,1,.28,1.05q0,3.11.38,8.07,1.62-2.4,2.43-3.83a4,4,0,0,1-.41-1.86,4.16,4.16,0,0,1,.41-1.78,3.74,3.74,0,0,1,1.11-1.4,2.55,2.55,0,0,1,1.59-.54,1.61,1.61,0,0,1,1.27.55,2.36,2.36,0,0,1,.49,1.61,7.41,7.41,0,0,1-.65,2.78,19.2,19.2,0,0,0,2.73-.41l.73-.13A1,1,0,0,1,177,220.75Z" transform="translate(-60 -58)"/><path class="cls-18" d="M176.22,227.88a6,6,0,0,1-.8-3.29,20.15,20.15,0,0,1,.31-3.12,29.13,29.13,0,0,1,.8-3.55,2.29,2.29,0,0,1,.65-1.19,2.07,2.07,0,0,1,1.3-.32q1.38,0,1.38.92a21.23,21.23,0,0,1-.51,3.13,23.38,23.38,0,0,0-.65,4,2.84,2.84,0,0,0,.22,1.24.75.75,0,0,0,.73.43,2,2,0,0,0,1.21-.67,24.28,24.28,0,0,0,1.94-2.13,1,1,0,0,1,.73-.38.63.63,0,0,1,.55.32,1.68,1.68,0,0,1,.2.89,2.48,2.48,0,0,1-.51,1.67q-2.67,3.27-5,3.27A2.81,2.81,0,0,1,176.22,227.88Zm1.07-13.78a1.91,1.91,0,0,1-.57-1.47,2,2,0,0,1,.74-1.58,2.75,2.75,0,0,1,1.85-.63,2.56,2.56,0,0,1,1.62.49,1.65,1.65,0,0,1,.62,1.38,2.2,2.2,0,0,1-.7,1.71,2.68,2.68,0,0,1-1.86.63A2.42,2.42,0,0,1,177.29,214.09Z" transform="translate(-60 -58)"/><path class="cls-18" d="M183.14,227.62a5.4,5.4,0,0,1-1.47-4,8.14,8.14,0,0,1,.86-3.83,6.59,6.59,0,0,1,2.24-2.54,5.24,5.24,0,0,1,2.89-.89,3,3,0,0,1,2.31.88,3.16,3.16,0,0,1,.82,2.25,3.49,3.49,0,0,1-.5,1.92,1.5,1.5,0,0,1-1.31.78,1.3,1.3,0,0,1-.82-.24.81.81,0,0,1-.31-.67,2,2,0,0,1,.05-.43l.08-.35a2.4,2.4,0,0,0,.14-.76.77.77,0,0,0-.18-.54.65.65,0,0,0-.5-.19,1.61,1.61,0,0,0-1.16.55,3.94,3.94,0,0,0-.86,1.5,6.38,6.38,0,0,0-.32,2.08q0,3.13,2.73,3.13a4.82,4.82,0,0,0,2.39-.74,9.75,9.75,0,0,0,2.52-2.23,1,1,0,0,1,.73-.38.63.63,0,0,1,.55.32,1.68,1.68,0,0,1,.2.89,2.62,2.62,0,0,1-.51,1.67,8.76,8.76,0,0,1-3,2.42,7.86,7.86,0,0,1-3.42.85A5.51,5.51,0,0,1,183.14,227.62Z" transform="translate(-60 -58)"/><path class="cls-18" d="M202.9,216.85a1.77,1.77,0,0,1,.45,1.31,21.37,21.37,0,0,1-.3,2.65q-.27,1.65-.43,3.12a30.33,30.33,0,0,0-.16,3.28,2.12,2.12,0,0,1-.42,1.47,1.8,1.8,0,0,1-1.36.45,1.64,1.64,0,0,1-1.3-.46,2,2,0,0,1-.4-1.38,26.93,26.93,0,0,1,.38-3.56,25.43,25.43,0,0,0,.32-2.75q0-.43-.3-.43t-1,.9a13.38,13.38,0,0,0-1.3,2.39A19.4,19.4,0,0,0,196,227a4.21,4.21,0,0,1-.69,1.71,1.55,1.55,0,0,1-1.23.45,1.35,1.35,0,0,1-1.23-.61,4.42,4.42,0,0,1-.53-1.88q-.14-1.27-.13-3.73a46.74,46.74,0,0,1,.85-8.67,26,26,0,0,1,2.51-7.57q1.66-3.06,4-3.06a2.37,2.37,0,0,1,2,1.07,4.62,4.62,0,0,1,.77,2.77,11.83,11.83,0,0,1-1.59,5.66,36.55,36.55,0,0,1-5.18,6.84q-.08,1.4-.08,2.89a15.51,15.51,0,0,1,2-3.74,7.75,7.75,0,0,1,2.16-2.07,4,4,0,0,1,2-.62A1.78,1.78,0,0,1,202.9,216.85Zm-5-9.18a23.61,23.61,0,0,0-1.15,3.75,50,50,0,0,0-.9,5.14,19.29,19.29,0,0,0,2.77-4.29,10,10,0,0,0,1.09-4.21,3.62,3.62,0,0,0-.19-1.32q-.19-.46-.54-.46T197.92,207.67Z" transform="translate(-60 -58)"/><path class="cls-18" d="M90.5,220h-18a1.5,1.5,0,0,1,0-3h18a1.5,1.5,0,0,1,0,3Z" transform="translate(-60 -58)"/><path class="cls-18" d="M227.5,220h-18a1.5,1.5,0,0,1,0-3h18a1.5,1.5,0,0,1,0,3Z" transform="translate(-60 -58)"/></svg>