<svg id="Capa_1" data-name="Capa 1" xmlns="http://www.w3.org/2000/svg" viewBox="0 0 180 184"><defs><style>.cls-1{fill:#11393b;}.cls-2{fill:#e9f1df;}.cls-3{fill:#174c4f;}.cls-4{font-size:27px;fill:#fff;font-family:Pacifico-Regular, Pacifico;}.cls-5{fill:none;stroke:#fff;stroke-linecap:round;}.cls-5,.cls-6{stroke-miterlimit:10;stroke-width:3px;}.cls-6{fill:#27a57a;stroke:#6b5630;}.cls-7{fill:#7a3303;}.cls-8{fill:#d6ab5f;}.cls-9{fill:#f7c90d;}.cls-10{fill:#b2d43b;}.cls-11{fill:#e0ef1d;}.cls-12{fill:#aa4907;}.cls-13{fill:#cc1906;}.cls-14{fill:#ff4e10;}.cls-15{fill:#f9eac5;}.cls-16{fill:#a9cc15;}.cls-17{fill:#c61c4d;}.cls-18{fill:#e5a3c6;}.cls-19{fill:#eac986;}</style></defs><title>c04</title><path class="cls-1" d="M0,141H180a0,0,0,0,1,0,0v35.51a7.49,7.49,0,0,1-7.49,7.49H7.49A7.49,7.49,0,0,1,0,176.51V141a0,0,0,0,1,0,0Z"/><path class="cls-2" d="M232.16,238H67.49A7.49,7.49,0,0,1,60,230.51V70A12,12,0,0,1,72,58H227.65a12,12,0,0,1,12,12V230.51A7.49,7.49,0,0,1,232.16,238Z" transform="translate(-60 -58)"/><path class="cls-3" d="M0,138H180a0,0,0,0,1,0,0v35.51a7.49,7.49,0,0,1-7.49,7.49H7.49A7.49,7.49,0,0,1,0,173.51V138a0,0,0,0,1,0,0Z"/><text class="cls-4" transform="translate(36.56 170.98)">Sandwich</text><line class="cls-5" x1="30.5" y1="160.5" x2="12.5" y2="160.5"/><path class="cls-6" d="M196.32,125.19s-.67.15-1.83.36c.06-.22.12-.44.18-.65a5.08,5.08,0,0,0,.8-.63c1.72-1.71,1.52-3.15.83-4.94,1-.84,2.5-1.31,3.49-2.3,2.85-2.85,0-6,.11-9.32.34-8.86-3.39-10.32-9.88-6.53a8.6,8.6,0,0,0-.06-1V93c.51-5-2.67-7.54-6.31-8.15-16-2.69-47-2.92-62.92-.23-2.17.37-6.08,2-6.34,6.63h0v.11c0,.27,0,.54,0,.83v5.92a12.25,12.25,0,0,0-4.58,19c-4.23,5.71-2.76,16.79,5.67,20.8-.57.68-1.15,1.41-1.72,2.19a14.64,14.64,0,0,0-4.08,7.2c-2.56,6.37-2.86,14.11,3.58,22,0,0,1.28-.25,3.35-.5l0,2.52a9.94,9.94,0,0,0,9.94,10.1h12.86a13.65,13.65,0,0,0,1.68,0h16.4L160.9,184l.83-2.66H178a9.94,9.94,0,0,0,9.91-9.25,14.41,14.41,0,0,0,3.07-11C195.87,156.35,209.71,140.62,196.32,125.19Zm-2.16,25.92a2.23,2.23,0,1,1,2.23-2.23A2.23,2.23,0,0,1,194.16,151.11Zm1.78-18.77a1.78,1.78,0,1,1-1.78,1.78A1.78,1.78,0,0,1,195.94,132.34Zm-4.32,6.37a2.74,2.74,0,1,1-.32,3.87A2.74,2.74,0,0,1,191.62,138.71Z" transform="translate(-60 -58)"/><path class="cls-7" d="M183.64,109.39c-16-2.69-47-2.92-62.92-.22-3.23.55-10.37,3.86-3.44,15.87l-.72,46.2a9.94,9.94,0,0,0,9.94,10.1H178a9.94,9.94,0,0,0,9.94-10.1L187.2,125c5.82-10.09,1.58-14.78-3.57-15.64Z" transform="translate(-60 -58)"/><path class="cls-8" d="M183.64,100.16c-16-2.69-47-2.92-62.92-.23-3.23.55-10.37,3.86-3.44,15.87l-.72,46.2a9.94,9.94,0,0,0,9.94,10.1H178a9.94,9.94,0,0,0,9.94-10.1l-.72-46.2c5.82-10.09,1.58-14.78-3.57-15.64Z" transform="translate(-60 -58)"/><path class="cls-9" d="M134,163.36,160.9,184l6.43-20.64Zm24.59,15a2.3,2.3,0,1,1,2.3-2.3A2.3,2.3,0,0,1,158.6,178.37Z" transform="translate(-60 -58)"/><path class="cls-9" d="M113.24,169.23s13.63-2.71,23.82.9l-15.8-38S97.75,150.31,113.24,169.23Z" transform="translate(-60 -58)"/><circle class="cls-10" cx="59.29" cy="51.3" r="12.25"/><circle class="cls-11" cx="59.29" cy="51.3" r="9.6"/><rect class="cls-12" x="54.37" y="33.23" width="75.59" height="9.23"/><path class="cls-13" d="M142.52,157.79c-18.67-10.12-22.84,18.71-6,23.1S163.75,158.1,142.52,157.79Z" transform="translate(-60 -58)"/><path class="cls-14" d="M141.71,160.86c-13.56-7.35-16.59,13.6-4.39,16.79S157.14,161.1,141.71,160.86Z" transform="translate(-60 -58)"/><ellipse class="cls-15" cx="138.16" cy="174.44" rx="2.23" ry="1.12" transform="translate(-125.59 205.9) rotate(-75.32)"/><ellipse class="cls-15" cx="135.93" cy="161.89" rx="1.12" ry="2.23" transform="translate(-132.8 137.3) rotate(-59.08)"/><ellipse class="cls-15" cx="134.03" cy="166.44" rx="1.12" ry="2.24" transform="translate(-122.97 191.26) rotate(-73.96)"/><ellipse class="cls-15" cx="134.37" cy="171.14" rx="2.23" ry="1.12" transform="translate(-108.07 -5.44) rotate(-18.84)"/><ellipse class="cls-15" cx="146.24" cy="164.65" rx="2.23" ry="1.12" transform="translate(-64.49 -53.9) rotate(-1.58)"/><ellipse class="cls-15" cx="145.66" cy="169.55" rx="1.12" ry="2.23" transform="translate(-112.78 214.42) rotate(-76.74)"/><ellipse class="cls-15" cx="143.07" cy="173.48" rx="1.12" ry="2.23" transform="translate(-139.25 81.73) rotate(-41.86)"/><path class="cls-13" d="M124.09,115.68c-18.67-10.12-22.84,18.71-6,23.1S145.32,116,124.09,115.68Z" transform="translate(-60 -58)"/><path class="cls-14" d="M123.28,118.76c-13.56-7.35-16.59,13.6-4.39,16.79S138.71,119,123.28,118.76Z" transform="translate(-60 -58)"/><ellipse class="cls-15" cx="119.73" cy="132.34" rx="2.23" ry="1.12" transform="translate(-98.62 156.64) rotate(-75.33)"/><ellipse class="cls-15" cx="117.5" cy="119.79" rx="1.12" ry="2.23" transform="translate(-105.64 101.03) rotate(-59.08)"/><ellipse class="cls-15" cx="115.6" cy="124.34" rx="1.12" ry="2.23" transform="translate(-95.83 143.09) rotate(-73.96)"/><ellipse class="cls-15" cx="115.94" cy="129.04" rx="2.23" ry="1.12" transform="translate(-95.46 -13.64) rotate(-18.84)"/><ellipse class="cls-15" cx="127.81" cy="122.54" rx="2.23" ry="1.12" transform="translate(-63.35 -54.41) rotate(-1.59)"/><ellipse class="cls-15" cx="127.23" cy="127.44" rx="1.12" ry="2.23" transform="translate(-86 164.04) rotate(-76.74)"/><ellipse class="cls-15" cx="124.64" cy="131.37" rx="1.12" ry="2.23" transform="translate(-115.85 58.68) rotate(-41.85)"/><path class="cls-10" d="M187.27,103l.45,28.94c6.59.65,7.48-9.86,7.47-10.13-.09-2.91,2.93-3.1,4.59-4.75,2.85-2.85,0-6,.11-9.32C200.28,97.67,195.43,97.12,187.27,103Z" transform="translate(-60 -58)"/><path class="cls-16" d="M159,158.65l-34.7.54c-.79,7.9,11.83,9,12.14,9,3.49-.1,3.71,3.52,5.69,5.5,3.41,3.42,7.19,0,11.18.13C165.32,174.25,166,168.44,159,158.65Z" transform="translate(-60 -58)"/><path class="cls-11" d="M187.24,108.5v30.45c6.26.62,3.87-9.92,3.86-10.17-.08-2.77,2.79-2.94,4.36-4.51,2.08-2.08,1.35-3.74.34-6.12-1.1-2.61,1.87-4.43,2.53-6.75C199.46,107.45,193.89,103.73,187.24,108.5Z" transform="translate(-60 -58)"/><circle class="cls-17" cx="116.42" cy="104.96" r="14.67"/><circle class="cls-17" cx="63.94" cy="92.57" r="14.67"/><circle class="cls-18" cx="117.54" cy="115.07" r="1.11"/><circle class="cls-18" cx="127.09" cy="103.77" r="1.19"/><circle class="cls-18" cx="124.5" cy="111.76" r="1.04"/><circle class="cls-18" cx="113.09" cy="112.2" r="2.06"/><circle class="cls-18" cx="53.84" cy="89.42" r="1.46"/><circle class="cls-18" cx="54.93" cy="85.19" r="0.58"/><circle class="cls-18" cx="55.28" cy="96.05" r="1.85"/><path class="cls-9" d="M196.32,125.19s-13.54,3.1-23.84-.21l16.9,37.55S212.35,143.65,196.32,125.19Zm-5,17.38a2.74,2.74,0,1,1,3.87.32A2.74,2.74,0,0,1,191.3,142.57Zm2.86,8.54a2.23,2.23,0,1,1,2.23-2.23A2.23,2.23,0,0,1,194.16,151.11Zm1.78-15.21a1.78,1.78,0,1,1,1.78-1.78A1.78,1.78,0,0,1,195.94,135.9Z" transform="translate(-60 -58)"/><path class="cls-12" d="M183.64,94.06c-16-2.69-47-2.92-62.92-.23-3.23.55-10.37,3.87-3.44,15.87l-.72,46.2A9.94,9.94,0,0,0,126.5,166H178a9.94,9.94,0,0,0,9.94-10.1l-.72-46.2c5.82-10.09,1.58-14.78-3.57-15.64Z" transform="translate(-60 -58)"/><path class="cls-19" d="M183.64,84.82c-16-2.69-47-2.92-62.92-.23-3.23.55-10.37,3.87-3.44,15.87l-.72,46.2a9.94,9.94,0,0,0,9.94,10.1H178a9.94,9.94,0,0,0,9.94-10.1l-.72-46.2c5.82-10.09,1.58-14.78-3.57-15.64Z" transform="translate(-60 -58)"/><circle class="cls-8" cx="92.34" cy="87.97" r="1.67"/><circle class="cls-8" cx="88.86" cy="33.49" r="1.32"/><circle class="cls-8" cx="105.85" cy="56.54" r="1.48"/><circle class="cls-8" cx="109.31" cy="75.35" r="1.71"/><circle class="cls-8" cx="71.21" cy="74.77" r="1.34"/><circle class="cls-8" cx="67.42" cy="87.97" r="1.34"/><circle class="cls-8" cx="82.35" cy="58.91" r="2.1"/><circle class="cls-8" cx="66.26" cy="37.84" r="1.15"/><circle class="cls-8" cx="69.87" cy="55.05" r="1.15"/><circle class="cls-8" cx="77.48" cy="51.3" r="1.15"/><circle class="cls-8" cx="104.37" cy="61.01" r="1.15"/><circle class="cls-8" cx="113.67" cy="76.11" r="1.15"/><circle class="cls-8" cx="118.91" cy="85.76" r="1.15"/><circle class="cls-8" cx="98.21" cy="90.84" r="1.15"/><circle class="cls-8" cx="113.67" cy="39" r="1.38"/><line class="cls-5" x1="167.5" y1="160.5" x2="149.5" y2="160.5"/></svg>