<svg id="Capa_1" data-name="Capa 1" xmlns="http://www.w3.org/2000/svg" viewBox="0 0 180 184"><defs><style>.cls-1{fill:#11393b;}.cls-2{fill:#e9f1df;}.cls-3{fill:#174c4f;}.cls-4{font-size:27px;font-family:Pacifico-Regular, Pacifico;}.cls-4,.cls-8{fill:#fff;}.cls-5{letter-spacing:-0.05em;}.cls-6{letter-spacing:0em;}.cls-7{fill:none;stroke:#fff;stroke-linecap:round;stroke-miterlimit:10;stroke-width:3px;}.cls-9{fill:#921116;}.cls-10{fill:#fef1ba;}.cls-11{fill:#ed0a0a;}.cls-12{fill:#fcb065;}.cls-13{fill:#dbc565;}.cls-14{fill:#e2cf7d;}</style></defs><title>c05</title><path class="cls-1" d="M0,141H180a0,0,0,0,1,0,0v35.51a7.49,7.49,0,0,1-7.49,7.49H7.49A7.49,7.49,0,0,1,0,176.51V141a0,0,0,0,1,0,0Z"/><path class="cls-2" d="M232.16,238H67.49A7.49,7.49,0,0,1,60,230.51V70A12,12,0,0,1,72,58H227.65a12,12,0,0,1,12,12V230.51A7.49,7.49,0,0,1,232.16,238Z" transform="translate(-60 -58)"/><path class="cls-3" d="M0,138H180a0,0,0,0,1,0,0v35.51a7.49,7.49,0,0,1-7.49,7.49H7.49A7.49,7.49,0,0,1,0,173.51V138a0,0,0,0,1,0,0Z"/><text class="cls-4" transform="translate(46.56 170.98)"><tspan class="cls-5">P</tspan><tspan class="cls-6" x="20.39" y="0">o</tspan><tspan x="32.48" y="0">stres</tspan></text><line class="cls-7" x1="30.5" y1="160.5" x2="12.5" y2="160.5"/><line class="cls-7" x1="167.5" y1="160.5" x2="149.5" y2="160.5"/><path class="cls-8" d="M122,130.21c-7.55,0-11.94,7.15-10,15.18l8.34,34.52h19.33l-2.78-34.52C136.2,137.36,129.51,130.21,122,130.21Z" transform="translate(-60 -58)"/><path class="cls-9" d="M141.33,181.48H119.06l-8.63-35.72c-1.15-4.77-.31-9.42,2.31-12.75a11.46,11.46,0,0,1,9.22-4.37c8.19,0,15.73,7.61,16.46,16.62Zm-19.8-3.14h16.39l-2.64-32.82c-.6-7.45-6.7-13.73-13.33-13.73a8.27,8.27,0,0,0-6.75,3.17A11.71,11.71,0,0,0,113.49,145Z" transform="translate(-60 -58)"/><path class="cls-8" d="M149.3,130.21c-7.55,0-13.09,7.15-12.45,15.18l2.78,34.52H159l2.78-34.52C162.39,137.36,156.85,130.21,149.3,130.21Z" transform="translate(-60 -58)"/><path class="cls-9" d="M160.41,181.48H138.18l-2.9-36a16.43,16.43,0,0,1,4.14-12.47,13.25,13.25,0,0,1,19.73,0,16.43,16.43,0,0,1,4.14,12.47Zm-19.33-3.14h16.43l2.66-33.07a13.28,13.28,0,0,0-3.32-10.09,10.11,10.11,0,0,0-15.12,0,13.28,13.28,0,0,0-3.32,10.09Z" transform="translate(-60 -58)"/><path class="cls-8" d="M186.64,145.39c1.94-8-2.45-15.18-10-15.18s-14.24,7.15-14.89,15.18L159,179.91H178.3Z" transform="translate(-60 -58)"/><path class="cls-9" d="M179.53,181.48H157.26l2.92-36.21c.73-9,8.26-16.62,16.46-16.62a11.46,11.46,0,0,1,9.22,4.37c2.62,3.33,3.46,8,2.31,12.75Zm-18.87-3.14h16.39l8-33.31A11.71,11.71,0,0,0,183.38,135a8.27,8.27,0,0,0-6.75-3.17c-6.62,0-12.73,6.29-13.33,13.73Z" transform="translate(-60 -58)"/><circle class="cls-8" cx="83.6" cy="28.12" r="1.03"/><path class="cls-10" d="M181.12,109c-1.81-15.51-15.37-27.57-31.82-27.57s-30,12.05-31.82,27.57a19.54,19.54,0,1,0,19,32.07,33,33,0,0,0,25.65,0,19.6,19.6,0,1,0,19-32.07Z" transform="translate(-60 -58)"/><path class="cls-9" d="M176.77,149.19a21.33,21.33,0,0,1-15-6.22,34.57,34.57,0,0,1-24.85,0,21.26,21.26,0,0,1-36.28-14.88,21.06,21.06,0,0,1,4.72-13.27,21.36,21.36,0,0,1,10.75-7c2.42-16,16.51-27.88,33.24-27.88s30.82,11.91,33.24,27.88a21.36,21.36,0,0,1,10.75,7,21.07,21.07,0,0,1-16.51,34.37Zm-14.23-10,.75.83a18.11,18.11,0,0,0,31.57-12,17.88,17.88,0,0,0-14.09-17.51l-1.09-.24-.13-1.11c-1.75-14.92-14.75-26.18-30.26-26.18S120.78,94.31,119,109.23l-.13,1.11-1.09.24a17.95,17.95,0,0,0,4,35.47,18.17,18.17,0,0,0,13.48-6l.75-.83,1,.44a31.39,31.39,0,0,0,24.42,0Z" transform="translate(-60 -58)"/><circle class="cls-11" cx="89.67" cy="24.26" r="11.33"/><path class="cls-9" d="M149.67,95.16a12.9,12.9,0,1,1,12.9-12.9A12.91,12.91,0,0,1,149.67,95.16Zm0-22.65a9.76,9.76,0,1,0,9.76,9.76A9.77,9.77,0,0,0,149.67,72.5Z" transform="translate(-60 -58)"/><path class="cls-9" d="M149.71,77.23h-.09a1.57,1.57,0,0,1-1.48-1.65,19.82,19.82,0,0,1,1.25-5.52c1.53-3.93,4.15-6.46,7.58-7.29a1.57,1.57,0,1,1,.74,3.05c-5.88,1.44-6.44,9.85-6.44,9.93A1.57,1.57,0,0,1,149.71,77.23Z" transform="translate(-60 -58)"/><path class="cls-8" d="M142.54,84.24a1.1,1.1,0,0,1-1.09-.94c-.69-4.63,3-7.59,3.15-7.72A1.1,1.1,0,0,1,146,77.31,6.53,6.53,0,0,0,143.63,83a1.1,1.1,0,0,1-.92,1.25Z" transform="translate(-60 -58)"/><circle class="cls-12" cx="70.66" cy="40.18" r="1.84"/><circle class="cls-12" cx="71.19" cy="52.19" r="1.84"/><circle class="cls-12" cx="83.39" cy="45.27" r="1.84"/><circle class="cls-12" cx="77.29" cy="62.84" r="1.84"/><circle class="cls-12" cx="98.93" cy="61.78" r="1.84"/><circle class="cls-12" cx="87.75" cy="55.39" r="1.84"/><circle class="cls-12" cx="104.26" cy="50.45" r="1.84"/><circle class="cls-12" cx="113.84" cy="57.95" r="1.84"/><circle class="cls-12" cx="108.52" cy="39.7" r="1.84"/><circle class="cls-12" cx="96.46" cy="41.59" r="1.84"/><circle class="cls-12" cx="59.72" cy="62.07" r="1.84"/><circle class="cls-13" cx="57.67" cy="82.73" r="1.84"/><circle class="cls-12" cx="122.51" cy="62.84" r="1.84"/><path class="cls-14" d="M113.41,139.1a1.57,1.57,0,0,1-1.17-.52,15.48,15.48,0,0,1-3.71-15.26,20.42,20.42,0,0,1,3.6-7,1.57,1.57,0,0,1,2.4,2h0c-.32.38-7.78,9.46,0,18.12a1.57,1.57,0,0,1-1.16,2.62Z" transform="translate(-60 -58)"/></svg>