<svg id="Capa_1" data-name="Capa 1" xmlns="http://www.w3.org/2000/svg" viewBox="0 0 180 184"><defs><style>.cls-1{fill:#11393b;}.cls-2{fill:#e9f1df;}.cls-3{fill:#174c4f;}.cls-4{fill:#fff;}.cls-5{fill:#921116;}.cls-6{fill:#fef1ba;}.cls-7{fill:#ed0a0a;}.cls-8{fill:#fcb065;}.cls-9{fill:#dbc565;}.cls-10{fill:#e2cf7d;}</style></defs><title>c05</title><path class="cls-1" d="M0,141H180a0,0,0,0,1,0,0v35.51a7.49,7.49,0,0,1-7.49,7.49H7.49A7.49,7.49,0,0,1,0,176.51V141a0,0,0,0,1,0,0Z"/><path class="cls-2" d="M232.16,238H67.49A7.49,7.49,0,0,1,60,230.51V70A12,12,0,0,1,72,58H227.65a12,12,0,0,1,12,12V230.51A7.49,7.49,0,0,1,232.16,238Z" transform="translate(-60 -58)"/><path class="cls-3" d="M0,138H180a0,0,0,0,1,0,0v35.51a7.49,7.49,0,0,1-7.49,7.49H7.49A7.49,7.49,0,0,1,0,173.51V138a0,0,0,0,1,0,0Z"/><path class="cls-4" d="M122,130.21c-7.55,0-11.94,7.15-10,15.18l8.34,34.52h19.33l-2.78-34.52C136.2,137.36,129.51,130.21,122,130.21Z" transform="translate(-60 -58)"/><path class="cls-5" d="M141.33,181.48H119.06l-8.63-35.72c-1.15-4.77-.31-9.42,2.31-12.75a11.46,11.46,0,0,1,9.22-4.37c8.19,0,15.73,7.61,16.46,16.62Zm-19.8-3.14h16.39l-2.64-32.82c-.6-7.45-6.7-13.73-13.33-13.73a8.27,8.27,0,0,0-6.75,3.17A11.71,11.71,0,0,0,113.49,145Z" transform="translate(-60 -58)"/><path class="cls-4" d="M149.3,130.21c-7.55,0-13.09,7.15-12.45,15.18l2.78,34.52H159l2.78-34.52C162.39,137.36,156.85,130.21,149.3,130.21Z" transform="translate(-60 -58)"/><path class="cls-5" d="M160.41,181.48H138.18l-2.9-36a16.43,16.43,0,0,1,4.14-12.47,13.25,13.25,0,0,1,19.73,0,16.43,16.43,0,0,1,4.14,12.47Zm-19.33-3.14h16.43l2.66-33.07a13.28,13.28,0,0,0-3.32-10.09,10.11,10.11,0,0,0-15.12,0,13.28,13.28,0,0,0-3.32,10.09Z" transform="translate(-60 -58)"/><path class="cls-4" d="M186.64,145.39c1.94-8-2.45-15.18-10-15.18s-14.24,7.15-14.89,15.18L159,179.91H178.3Z" transform="translate(-60 -58)"/><path class="cls-5" d="M179.53,181.48H157.26l2.92-36.21c.73-9,8.26-16.62,16.46-16.62a11.46,11.46,0,0,1,9.22,4.37c2.62,3.33,3.46,8,2.31,12.75Zm-18.87-3.14h16.39l8-33.31A11.71,11.71,0,0,0,183.38,135a8.27,8.27,0,0,0-6.75-3.17c-6.62,0-12.73,6.29-13.33,13.73Z" transform="translate(-60 -58)"/><circle class="cls-4" cx="83.6" cy="28.12" r="1.03"/><path class="cls-6" d="M181.12,109c-1.81-15.51-15.37-27.57-31.82-27.57s-30,12.05-31.82,27.57a19.54,19.54,0,1,0,19,32.07,33,33,0,0,0,25.65,0,19.6,19.6,0,1,0,19-32.07Z" transform="translate(-60 -58)"/><path class="cls-5" d="M176.77,149.19a21.33,21.33,0,0,1-15-6.22,34.57,34.57,0,0,1-24.85,0,21.26,21.26,0,0,1-36.28-14.88,21.06,21.06,0,0,1,4.72-13.27,21.36,21.36,0,0,1,10.75-7c2.42-16,16.51-27.88,33.24-27.88s30.82,11.91,33.24,27.88a21.36,21.36,0,0,1,10.75,7,21.07,21.07,0,0,1-16.51,34.37Zm-14.23-10,.75.83a18.11,18.11,0,0,0,31.57-12,17.88,17.88,0,0,0-14.09-17.51l-1.09-.24-.13-1.11c-1.75-14.92-14.75-26.18-30.26-26.18S120.78,94.31,119,109.23l-.13,1.11-1.09.24a17.95,17.95,0,0,0,4,35.47,18.17,18.17,0,0,0,13.48-6l.75-.83,1,.44a31.39,31.39,0,0,0,24.42,0Z" transform="translate(-60 -58)"/><circle class="cls-7" cx="89.67" cy="24.26" r="11.33"/><path class="cls-5" d="M149.67,95.16a12.9,12.9,0,1,1,12.9-12.9A12.91,12.91,0,0,1,149.67,95.16Zm0-22.65a9.76,9.76,0,1,0,9.76,9.76A9.77,9.77,0,0,0,149.67,72.5Z" transform="translate(-60 -58)"/><path class="cls-5" d="M149.71,77.23h-.09a1.57,1.57,0,0,1-1.48-1.65,19.82,19.82,0,0,1,1.25-5.52c1.53-3.93,4.15-6.46,7.58-7.29a1.57,1.57,0,1,1,.74,3.05c-5.88,1.44-6.44,9.85-6.44,9.93A1.57,1.57,0,0,1,149.71,77.23Z" transform="translate(-60 -58)"/><path class="cls-4" d="M142.54,84.24a1.1,1.1,0,0,1-1.09-.94c-.69-4.63,3-7.59,3.15-7.72A1.1,1.1,0,0,1,146,77.31,6.53,6.53,0,0,0,143.63,83a1.1,1.1,0,0,1-.92,1.25Z" transform="translate(-60 -58)"/><circle class="cls-8" cx="70.66" cy="40.18" r="1.84"/><circle class="cls-8" cx="71.19" cy="52.19" r="1.84"/><circle class="cls-8" cx="83.39" cy="45.27" r="1.84"/><circle class="cls-8" cx="77.29" cy="62.84" r="1.84"/><circle class="cls-8" cx="98.93" cy="61.78" r="1.84"/><circle class="cls-8" cx="87.75" cy="55.39" r="1.84"/><circle class="cls-8" cx="104.26" cy="50.45" r="1.84"/><circle class="cls-8" cx="113.84" cy="57.95" r="1.84"/><circle class="cls-8" cx="108.52" cy="39.7" r="1.84"/><circle class="cls-8" cx="96.46" cy="41.59" r="1.84"/><circle class="cls-8" cx="59.72" cy="62.07" r="1.84"/><circle class="cls-9" cx="57.67" cy="82.73" r="1.84"/><circle class="cls-8" cx="122.51" cy="62.84" r="1.84"/><path class="cls-10" d="M113.41,139.1a1.57,1.57,0,0,1-1.17-.52,15.48,15.48,0,0,1-3.71-15.26,20.42,20.42,0,0,1,3.6-7,1.57,1.57,0,0,1,2.4,2h0c-.32.38-7.78,9.46,0,18.12a1.57,1.57,0,0,1-1.16,2.62Z" transform="translate(-60 -58)"/><path class="cls-4" d="M127.59,217.1a8.88,8.88,0,0,1-3.46,3.13,13.26,13.26,0,0,1-5.4,1.43l-1.16,6.51q-.68,3.75-3.67,3.75a5.19,5.19,0,0,1-3-1,6.61,6.61,0,0,1-2.23-3,12.73,12.73,0,0,1-.84-4.91,22,22,0,0,1,1.77-9.3,13.05,13.05,0,0,1,4.75-5.72,12,12,0,0,1,6.57-1.9,9.5,9.5,0,0,1,4.31.89,6.31,6.31,0,0,1,2.67,2.42,6.62,6.62,0,0,1,.9,3.44A7.85,7.85,0,0,1,127.59,217.1Zm-2.83-4a3.83,3.83,0,0,0-1.17-2.9,5.11,5.11,0,0,0-3.63-1.12,7.25,7.25,0,0,0-4.85,1.75,11.2,11.2,0,0,0-3.19,4.87,21,21,0,0,0-1.12,7.11,11.8,11.8,0,0,0,.34,3,5.92,5.92,0,0,0,.86,2q.53.72,1,.72.67,0,1-1.86l.89-5.1-.92-.13A1.52,1.52,0,0,1,113,221a1.65,1.65,0,0,1-.24-.93,1.31,1.31,0,0,1,.34-.95,1.23,1.23,0,0,1,.93-.35,2.3,2.3,0,0,1,.41,0c.43.07.76.12,1,.14q.35-2.11,1-5.64a1.88,1.88,0,0,1,.74-1.31,2.38,2.38,0,0,1,1.36-.39,2,2,0,0,1,1.28.34,1.34,1.34,0,0,1,.39,1.07,3.73,3.73,0,0,1-.05.7l-.89,5.24Q124.76,218.18,124.76,213.13Z" transform="translate(-60 -58)"/><path class="cls-4" d="M130.09,228.32a5,5,0,0,1-1.69-2.09,6.86,6.86,0,0,1-.57-2.78,8.37,8.37,0,0,1,.77-3.66,6.2,6.2,0,0,1,2.09-2.51,5.14,5.14,0,0,1,3-.91,4.63,4.63,0,0,1,2.73.8,4.91,4.91,0,0,1,1.7,2.09,6.86,6.86,0,0,1,.57,2.78,8.25,8.25,0,0,1-.78,3.66,6.27,6.27,0,0,1-2.12,2.51,5.16,5.16,0,0,1-3,.9A4.56,4.56,0,0,1,130.09,228.32Zm4.56-3.12a5.48,5.48,0,0,0,.63-2.92,3.85,3.85,0,0,0-.54-2.24,1.57,1.57,0,0,0-1.3-.76,1.87,1.87,0,0,0-1.61,1,5.47,5.47,0,0,0-.63,2.93,3.83,3.83,0,0,0,.54,2.27,1.62,1.62,0,0,0,1.35.73A1.83,1.83,0,0,0,134.66,225.2Z" transform="translate(-60 -58)"/><path class="cls-4" d="M143.21,229.06a1.91,1.91,0,0,1-.74-1.46,1.66,1.66,0,0,1,.51-1.21,2.05,2.05,0,0,1,1.51-.51,6,6,0,0,1,.82.07l.72.09a3.48,3.48,0,0,0-.31-1.32,6.63,6.63,0,0,0-.72-1.2q-.43-.58-.81-1a17.69,17.69,0,0,1-1.66,2.65,19.79,19.79,0,0,1-1.8,2,1.45,1.45,0,0,1-1,.49.89.89,0,0,1-.7-.31,1.13,1.13,0,0,1-.27-.77,1.54,1.54,0,0,1,.38-1l.35-.43a34.87,34.87,0,0,0,2.24-3q.46-.78,1.08-2.09t1.21-2.71a2.08,2.08,0,0,1,2.13-1.19,2.84,2.84,0,0,1,1.05.13.45.45,0,0,1,.3.43,2,2,0,0,1-.11.51,3.89,3.89,0,0,1-.3.7,3.85,3.85,0,0,0-.49,1.65,1.8,1.8,0,0,0,.28.89,10.21,10.21,0,0,0,.88,1.21,17.13,17.13,0,0,1,1.31,1.93,3.5,3.5,0,0,1,.45,1.74,7.3,7.3,0,0,1-.05.76,8.61,8.61,0,0,0,3.1-2.73,1,1,0,0,1,.73-.38.63.63,0,0,1,.55.32,1.68,1.68,0,0,1,.2.89,2.62,2.62,0,0,1-.51,1.67,8.24,8.24,0,0,1-2.58,2.28,7.3,7.3,0,0,1-3,.66,3.83,3.83,0,0,1-2.56.92A3.17,3.17,0,0,1,143.21,229.06Z" transform="translate(-60 -58)"/><path class="cls-4" d="M164.46,223.29a1.68,1.68,0,0,1,.2.89,2.48,2.48,0,0,1-.51,1.67,11.45,11.45,0,0,1-2.54,2.35,5.56,5.56,0,0,1-3.16.92q-5.51,0-5.51-7.75,0-1.19.08-2.4H152a1.51,1.51,0,0,1-1.09-.3,1.33,1.33,0,0,1-.28-.94q0-1.51,1.22-1.51h1.54a26.28,26.28,0,0,1,1.4-5.43,12.22,12.22,0,0,1,2.28-3.92,3.89,3.89,0,0,1,2.88-1.46,2,2,0,0,1,1.78,1,4.53,4.53,0,0,1,.65,2.51,9.46,9.46,0,0,1-3.51,7.29h3a.85.85,0,0,1,.62.19,1,1,0,0,1,.19.7q0,1.86-3.05,1.86h-3.29q-.05,1.35-.05,2.11a8.4,8.4,0,0,0,.66,3.94,2.25,2.25,0,0,0,2.09,1.13,3.22,3.22,0,0,0,2.05-.7,16.43,16.43,0,0,0,2.11-2.11,1,1,0,0,1,.73-.38A.62.62,0,0,1,164.46,223.29ZM158.28,209a14.35,14.35,0,0,0-.95,2.81,37.5,37.5,0,0,0-.74,4,9.24,9.24,0,0,0,2.39-3.09,7.49,7.49,0,0,0,.8-3.12c0-1.06-.2-1.59-.59-1.59S158.61,208.34,158.28,209Z" transform="translate(-60 -58)"/><path class="cls-4" d="M163,228a10.33,10.33,0,0,1-.42-3.46,22,22,0,0,1,1-6.67,2,2,0,0,1,.8-1.15,2.81,2.81,0,0,1,1.55-.36,1.53,1.53,0,0,1,.76.13.56.56,0,0,1,.22.51,10.25,10.25,0,0,1-.41,1.94q-.27,1.08-.43,1.89a19.08,19.08,0,0,0-.27,2,15.33,15.33,0,0,1,2-3.78,7.85,7.85,0,0,1,2.17-2.08,4,4,0,0,1,2-.62,1.55,1.55,0,0,1,1.75,1.75,13.53,13.53,0,0,1-.24,1.7,9.84,9.84,0,0,0-.22,1.35q0,.95.67.95a3.25,3.25,0,0,0,1.94-1.19,1,1,0,0,1,.73-.35.63.63,0,0,1,.55.31,1.49,1.49,0,0,1,.2.82,2.18,2.18,0,0,1-.54,1.57,7.26,7.26,0,0,1-1.77,1.34,4.41,4.41,0,0,1-2.15.55,3,3,0,0,1-2.17-.73,2.63,2.63,0,0,1-.74-2,4.15,4.15,0,0,1,.08-.81q.05-.54.05-.73,0-.43-.3-.43t-1.07.9a12.75,12.75,0,0,0-1.31,2.39,19.5,19.5,0,0,0-1.05,3.13,4.21,4.21,0,0,1-.69,1.71,1.55,1.55,0,0,1-1.23.45A1.47,1.47,0,0,1,163,228Z" transform="translate(-60 -58)"/><path class="cls-4" d="M187.36,223.29a1.68,1.68,0,0,1,.2.89,2.48,2.48,0,0,1-.51,1.67,9.88,9.88,0,0,1-2.82,2.24,7.83,7.83,0,0,1-3.9,1,6,6,0,0,1-4.4-1.54,5.63,5.63,0,0,1-1.57-4.21,7.81,7.81,0,0,1,.78-3.47,6.41,6.41,0,0,1,2.17-2.55,5.46,5.46,0,0,1,3.15-.95,3.42,3.42,0,0,1,2.51.93,3.39,3.39,0,0,1,.95,2.52,4.36,4.36,0,0,1-1.34,3.2,9.66,9.66,0,0,1-4.52,2.12,2.65,2.65,0,0,0,2.57,1.24,5.91,5.91,0,0,0,2.77-.85,9.17,9.17,0,0,0,2.69-2.23,1,1,0,0,1,.73-.38A.63.63,0,0,1,187.36,223.29Zm-9-3.08a5.42,5.42,0,0,0-.69,2.81v.05a6.14,6.14,0,0,0,2.51-1.13,2.23,2.23,0,0,0,.92-1.75,1.18,1.18,0,0,0-.28-.82A1,1,0,0,0,180,219,2,2,0,0,0,178.31,220.21Z" transform="translate(-60 -58)"/><path class="cls-4" d="M188.25,229.06a1.9,1.9,0,0,1-.74-1.46,1.66,1.66,0,0,1,.51-1.21,2.05,2.05,0,0,1,1.51-.51,6,6,0,0,1,.82.07l.72.09a3.49,3.49,0,0,0-.31-1.32,6.66,6.66,0,0,0-.72-1.2q-.43-.58-.81-1a17.69,17.69,0,0,1-1.66,2.65,19.79,19.79,0,0,1-1.79,2,1.45,1.45,0,0,1-1,.49.89.89,0,0,1-.7-.31,1.13,1.13,0,0,1-.27-.77,1.54,1.54,0,0,1,.38-1l.35-.43a34.79,34.79,0,0,0,2.24-3,17.48,17.48,0,0,0,1-1.86q.5-1.08,1.31-2.94a2.08,2.08,0,0,1,2.13-1.19,2.84,2.84,0,0,1,1.05.13.45.45,0,0,1,.3.43,2,2,0,0,1-.11.51,3.92,3.92,0,0,1-.3.7,3.85,3.85,0,0,0-.49,1.65,1.8,1.8,0,0,0,.28.89,10.18,10.18,0,0,0,.88,1.21,17.08,17.08,0,0,1,1.31,1.93,3.51,3.51,0,0,1,.45,1.74,4.58,4.58,0,0,1-.53,2.15,4.29,4.29,0,0,1-1.47,1.63,3.85,3.85,0,0,1-2.16.62A3.17,3.17,0,0,1,188.25,229.06Z" transform="translate(-60 -58)"/><path class="cls-4" d="M90.5,220h-18a1.5,1.5,0,0,1,0-3h18a1.5,1.5,0,0,1,0,3Z" transform="translate(-60 -58)"/></svg>