<svg id="Capa_1" data-name="Capa 1" xmlns="http://www.w3.org/2000/svg" viewBox="0 0 180 184"><defs><style>.cls-1{fill:#11393b;}.cls-2{fill:#e9f1df;}.cls-3{fill:#174c4f;}.cls-4{font-size:27px;font-family:Pacifico-Regular, Pacifico;}.cls-13,.cls-14,.cls-4{fill:#fff;}.cls-5{letter-spacing:-0.06em;}.cls-6{letter-spacing:-0.02em;}.cls-7{letter-spacing:-0.01em;}.cls-8{fill:#fef1ba;}.cls-9{fill:#921116;}.cls-10{fill:#fcb065;}.cls-11{fill:#ed0a0a;}.cls-12{fill:#90c130;}.cls-13{opacity:0.5;}.cls-14{opacity:0.6;}</style></defs><title>c06</title><path class="cls-1" d="M0,141H180a0,0,0,0,1,0,0v35.51a7.49,7.49,0,0,1-7.49,7.49H7.49A7.49,7.49,0,0,1,0,176.51V141a0,0,0,0,1,0,0Z"/><path class="cls-2" d="M232.16,238H67.49A7.49,7.49,0,0,1,60,230.51V70A12,12,0,0,1,72,58H227.65a12,12,0,0,1,12,12V230.51A7.49,7.49,0,0,1,232.16,238Z" transform="translate(-60 -58)"/><path class="cls-3" d="M0,138H180a0,0,0,0,1,0,0v35.51a7.49,7.49,0,0,1-7.49,7.49H7.49A7.49,7.49,0,0,1,0,173.51V138a0,0,0,0,1,0,0Z"/><text class="cls-4" transform="translate(57.56 169.98)"><tspan class="cls-5">P</tspan><tspan class="cls-6" x="20.11" y="0">i</tspan><tspan x="26.22" y="0">z</tspan><tspan class="cls-7" x="38.23" y="0">z</tspan><tspan x="49.98" y="0">a</tspan></text><path class="cls-8" d="M188.31,144.45c-.54.11-.88.22-.88.22-1.29-7.34-10-26.32-18.86-42.4-7.48-13.53-15.12-25-18.64-25.78-3.5.88-10.79,12.58-17.87,26.32-8.41,16.34-16.52,35.56-17.6,42.94l-.06,0c8.91,9,22.66,16.35,37.66,16.13S180.17,153.74,188.31,144.45Z" transform="translate(-60 -58)"/><path class="cls-9" d="M151.39,163.15h0c-13.45,0-27.62-6.17-37.91-16.51a1.29,1.29,0,0,1-.23-1.5c1.41-8.34,10.08-28.19,17.66-42.92,6-11.67,14.14-25.83,18.7-27a1.28,1.28,0,0,1,.59,0c1.28.28,3.58,1.49,8.61,8.62a201,201,0,0,1,10.88,17.79c7.75,14,16.66,32.79,18.74,41.52a1.29,1.29,0,0,1,.85,2.13,54.4,54.4,0,0,1-15.9,12.4,47.89,47.89,0,0,1-21.31,5.45Zm-35.57-17.81c9.77,9.55,23,15.24,35.57,15.24H152a45.34,45.34,0,0,0,20.18-5.17,51.89,51.89,0,0,0,14-10.51h0c-1.18-6.71-9.41-25.16-18.72-42-9.43-17-15.22-24.06-17.5-25.05-2.25,1.05-7.83,8.24-16.75,25.56C124.48,120.32,117.14,138.08,115.82,145.34Z" transform="translate(-60 -58)"/><path class="cls-10" d="M193.88,145.53c-1.74.61-4.28-1.35-5.57-1.08-8.14,9.29-21.16,17.19-36.26,17.41a48.09,48.09,0,0,1-17.6-3.18,56.92,56.92,0,0,1-20.07-13h0c-.56,0-2.45,2.45-4.76,2-4.56-.94-6.18,2.52-6.14,5.11,0,0,8.34,21.63,47.93,21.9,39.56-1.45,47.26-23.31,47.26-23.31C198.6,148.82,197.27,144.34,193.88,145.53Z" transform="translate(-60 -58)"/><path class="cls-9" d="M151.38,176h0c-11.49-.08-27.68-2.11-39.59-11.32-7.23-5.6-9.44-11.17-9.53-11.4a1.28,1.28,0,0,1-.09-.44A7,7,0,0,1,104,147.9a6.14,6.14,0,0,1,5.85-1.46,1.67,1.67,0,0,0,.34,0,4.65,4.65,0,0,0,2.5-1.23,2.9,2.9,0,0,1,1.57-.8,1.46,1.46,0,0,1,.48,0,1.29,1.29,0,0,1,.55.33,56,56,0,0,0,19.61,12.65,46.91,46.91,0,0,0,16.49,3.1H152a45.34,45.34,0,0,0,20.18-5.17,51.8,51.8,0,0,0,15.14-11.81,1.29,1.29,0,0,1,.7-.41,2.59,2.59,0,0,1,.53-.05,7.13,7.13,0,0,1,2.43.63,7.1,7.1,0,0,0,2.13.59,1,1,0,0,0,.32,0A4.55,4.55,0,0,1,195,144a4.46,4.46,0,0,1,4,2.9,11.12,11.12,0,0,1,1,4.43,1.28,1.28,0,0,1-.07.45c-.08.24-2.13,5.87-9.19,11.68C179,173.07,162.9,175.58,151.42,176Zm-46.65-23.45c.46,1,2.78,5.63,8.77,10.21,6.25,4.79,17.9,10.52,37.85,10.67,11.08-.41,26.6-2.81,37.67-11.91,5.78-4.75,7.9-9.34,8.32-10.34-.09-1.95-1-4.56-2.39-4.56a2,2,0,0,0-.65.12,3.54,3.54,0,0,1-1.17.19,8.81,8.81,0,0,1-3-.76,11.65,11.65,0,0,0-1.21-.42,54.45,54.45,0,0,1-15.49,11.94,47.89,47.89,0,0,1-21.31,5.45h-.67a49.47,49.47,0,0,1-17.4-3.26,58.7,58.7,0,0,1-19.81-12.54,6.73,6.73,0,0,1-4,1.71,4.27,4.27,0,0,1-.86-.09,3.63,3.63,0,0,0-3.5.74A4.39,4.39,0,0,0,104.73,152.55Z" transform="translate(-60 -58)"/><path class="cls-11" d="M137.81,122.51a13.82,13.82,0,0,0-8.22,2.85,13.41,13.41,0,0,0-5.33,10.86,13.63,13.63,0,0,0,13.94,13.31A13.79,13.79,0,0,0,149,144.16a13.3,13.3,0,0,0,2.79-8.34A13.63,13.63,0,0,0,137.81,122.51Z" transform="translate(-60 -58)"/><path class="cls-9" d="M138,150.44h0a14.59,14.59,0,0,1-14.63-14.2A14.23,14.23,0,0,1,129,124.65a14.67,14.67,0,0,1,8.75-3H138a14.59,14.59,0,0,1,14.63,14.2,14.12,14.12,0,0,1-3,8.9,14.64,14.64,0,0,1-11.46,5.73Zm0-27h-.2a12.89,12.89,0,0,0-7.69,2.67,12.44,12.44,0,0,0-5,10.14A12.78,12.78,0,0,0,138,148.64h.2a12.85,12.85,0,0,0,10.06-5,12.34,12.34,0,0,0,2.6-7.78A12.78,12.78,0,0,0,138,123.41Z" transform="translate(-60 -58)"/><circle class="cls-11" cx="167.83" cy="135.95" r="8.78" transform="translate(-61.99 -55.5) rotate(-0.85)"/><path class="cls-9" d="M167.82,145.63a9.72,9.72,0,0,1-9.68-9.54,9.68,9.68,0,0,1,9.54-9.82h.15a9.68,9.68,0,0,1,.14,19.36Zm0-17.57h-.12a7.88,7.88,0,0,0-7.77,8,7.92,7.92,0,0,0,7.88,7.77h.12a7.88,7.88,0,0,0-.11-15.77Z" transform="translate(-60 -58)"/><ellipse class="cls-11" cx="154.23" cy="102.18" rx="8.51" ry="8.55" transform="translate(-69.05 131.18) rotate(-61.58)"/><path class="cls-9" d="M154.26,111.6h0a9.46,9.46,0,0,1-8.34-13.92,9.4,9.4,0,0,1,8.28-4.92,9.46,9.46,0,0,1,8.34,13.92A9.4,9.4,0,0,1,154.26,111.6Zm-.06-17a7.6,7.6,0,0,0-3.59,14.31,7.7,7.7,0,0,0,3.65.93,7.6,7.6,0,0,0,3.59-14.31A7.7,7.7,0,0,0,154.2,94.56Z" transform="translate(-60 -58)"/><path class="cls-12" d="M141,110.68a1.72,1.72,0,0,0-.67-2.33h0A1.72,1.72,0,0,0,138,109L135,114.31a1.72,1.72,0,0,0,.67,2.33h0A1.72,1.72,0,0,0,138,116Z" transform="translate(-60 -58)"/><path class="cls-12" d="M152.25,118.94a1.72,1.72,0,0,0-2.4-.38h0a1.72,1.72,0,0,0-.38,2.4l3.55,4.9a1.72,1.72,0,0,0,2.4.38h0a1.72,1.72,0,0,0,.38-2.4Z" transform="translate(-60 -58)"/><path class="cls-12" d="M146.78,88.06a1.43,1.43,0,0,0-.74,1.88h0a1.43,1.43,0,0,0,1.88.74l4.63-2a1.43,1.43,0,0,0,.74-1.88h0a1.43,1.43,0,0,0-1.88-.74Z" transform="translate(-60 -58)"/><path class="cls-12" d="M166.39,114.48a1.72,1.72,0,0,0-1.14-2.14h0a1.72,1.72,0,0,0-2.14,1.14l-1.78,5.79a1.72,1.72,0,0,0,1.14,2.14h0a1.72,1.72,0,0,0,2.14-1.14Z" transform="translate(-60 -58)"/><path class="cls-12" d="M150.34,150.64a1.72,1.72,0,0,0-.34-2.4h0a1.72,1.72,0,0,0-2.4.34L144,153.4a1.72,1.72,0,0,0,.34,2.4h0a1.72,1.72,0,0,0,2.4-.34Z" transform="translate(-60 -58)"/><path class="cls-12" d="M166.49,154.15a1.72,1.72,0,0,0,2.3-.76h0a1.72,1.72,0,0,0-.76-2.3l-5.41-2.73a1.72,1.72,0,0,0-2.3.76h0a1.72,1.72,0,0,0,.76,2.3Z" transform="translate(-60 -58)"/><path class="cls-13" d="M134.68,169.93a1.54,1.54,0,0,1-.38,0c-18.49-4.74-25.75-14.82-26-15.25a1.54,1.54,0,0,1,2.52-1.78c.09.12,7,9.61,24.29,14a1.54,1.54,0,0,1-.38,3Z" transform="translate(-60 -58)"/><circle class="cls-13" cx="141.37" cy="169.13" r="1.86" transform="translate(-62.49 -55.88) rotate(-0.85)"/><path class="cls-14" d="M127.58,139.35a.9.9,0,0,1-.89-.81,12,12,0,0,1,7.79-12.75.9.9,0,0,1,.56,1.71,10.08,10.08,0,0,0-6.55,10.86.9.9,0,0,1-.81,1Z" transform="translate(-60 -58)"/><path class="cls-14" d="M161.54,135.36h-.08a.51.51,0,0,1-.43-.59c.72-4.53,5.08-5.94,5.26-6a.51.51,0,0,1,.31,1,6.88,6.88,0,0,0-4.56,5.18A.51.51,0,0,1,161.54,135.36Z" transform="translate(-60 -58)"/><path class="cls-14" d="M148.27,102.39h-.06a.51.51,0,0,1-.45-.57A7.51,7.51,0,0,1,153,95.53a.51.51,0,0,1,.25,1h0a6.36,6.36,0,0,0-4.52,5.41A.51.51,0,0,1,148.27,102.39Z" transform="translate(-60 -58)"/><circle class="cls-13" cx="78.48" cy="68.05" r="1.28"/></svg>