<svg id="Capa_1" data-name="Capa 1" xmlns="http://www.w3.org/2000/svg" viewBox="0 0 180 184"><defs><style>.cls-1{fill:#11393b;}.cls-2{fill:#e9f1df;}.cls-3{fill:#174c4f;}.cls-4{fill:#fcb065;}.cls-5{fill:#921116;}.cls-6{fill:#aa5602;}.cls-7{fill:#90c130;}.cls-8{fill:#f4df1c;}.cls-10,.cls-9{fill:#fff;}.cls-10{opacity:0.5;}</style></defs><title>c07</title><path class="cls-1" d="M0,141H180a0,0,0,0,1,0,0v35.51a7.49,7.49,0,0,1-7.49,7.49H7.49A7.49,7.49,0,0,1,0,176.51V141a0,0,0,0,1,0,0Z"/><path class="cls-2" d="M232.16,238H67.49A7.49,7.49,0,0,1,60,230.51V70A12,12,0,0,1,72,58H227.65a12,12,0,0,1,12,12V230.51A7.49,7.49,0,0,1,232.16,238Z" transform="translate(-60 -58)"/><path class="cls-3" d="M0,138H180a0,0,0,0,1,0,0v35.51a7.49,7.49,0,0,1-7.49,7.49H7.49A7.49,7.49,0,0,1,0,173.51V138a0,0,0,0,1,0,0Z"/><path class="cls-4" d="M198.3,115.32c0-17.45-11.07-31.59-24.73-31.59H125.86c-13.66,0-24.73,14.14-24.73,31.59,0,.15,0,.3,0,.44h97.15C198.29,115.61,198.3,115.47,198.3,115.32Z" transform="translate(-60 -58)"/><path class="cls-5" d="M199.81,117.3H99.62l0-1.65c0-.11,0-.22,0-.33,0-18.27,11.78-33.13,26.26-33.13h47.71c14.48,0,26.26,14.86,26.26,33.13,0,.11,0,.22,0,.33Zm-97.12-3.07h94.06c-.44-16.07-10.67-29-23.18-29H125.86C113.35,85.26,103.13,98.15,102.68,114.23Z" transform="translate(-60 -58)"/><path class="cls-4" d="M101.14,150c0,13,11.07,23.47,24.73,23.47h47.71c13.66,0,24.73-10.51,24.73-23.47,0-.11,0-.22,0-.33H101.14C101.14,149.77,101.14,149.88,101.14,150Z" transform="translate(-60 -58)"/><path class="cls-5" d="M173.57,175H125.86c-14.48,0-26.26-11.22-26.26-25,0-.09,0-.17,0-.26l0-1.6H199.8l0,1.61c0,.08,0,.17,0,.25C199.83,163.78,188,175,173.57,175ZM102.7,151.19c.66,11.54,10.8,20.74,23.16,20.74h47.71c12.36,0,22.49-9.2,23.16-20.74Z" transform="translate(-60 -58)"/><path class="cls-6" d="M195.84,124.24c0-4.23-3.06-7.66-6.83-7.66h-78.6c-3.77,0-6.83,3.43-6.83,7.66h0c0,4.23,3.06,7.66,6.83,7.66H189c3.77,0,6.83-3.43,6.83-7.66Z" transform="translate(-60 -58)"/><path class="cls-5" d="M189,133.44h-78.6c-4.61,0-8.36-4.13-8.36-9.2s3.75-9.2,8.36-9.2H189c4.61,0,8.36,4.13,8.36,9.2S193.62,133.44,189,133.44Zm-78.6-15.32c-2.92,0-5.29,2.75-5.29,6.13s2.37,6.13,5.29,6.13H189c2.92,0,5.29-2.75,5.29-6.13s-2.37-6.13-5.29-6.13Z" transform="translate(-60 -58)"/><path class="cls-7" d="M195.84,136.08c0-2.44-3.06-4.41-6.83-4.41h-78.6c-3.77,0-6.83,2-6.83,4.41h0c0,2.44,3.06,4.41,6.83,4.41H189c3.77,0,6.83-2,6.83-4.41Z" transform="translate(-60 -58)"/><path class="cls-5" d="M189,142h-78.6c-4.69,0-8.36-2.61-8.36-5.95s3.67-5.95,8.36-5.95H189c4.69,0,8.36,2.61,8.36,5.95S193.7,142,189,142Zm-78.6-8.82c-3.12,0-5.29,1.52-5.29,2.88s2.17,2.88,5.29,2.88H189c3.12,0,5.29-1.52,5.29-2.88s-2.17-2.88-5.29-2.88Z" transform="translate(-60 -58)"/><path class="cls-8" d="M195.84,145.14c0-2.44-3.06-4.41-6.83-4.41h-78.6c-3.77,0-6.83,2-6.83,4.41h0c0,2.44,3.06,4.41,6.83,4.41H189c3.77,0,6.83-2,6.83-4.41Z" transform="translate(-60 -58)"/><path class="cls-5" d="M189,151.08h-78.6c-4.69,0-8.36-2.61-8.36-5.95s3.67-5.95,8.36-5.95H189c4.69,0,8.36,2.61,8.36,5.95S193.7,151.08,189,151.08Zm-78.6-8.82c-3.12,0-5.29,1.52-5.29,2.88s2.17,2.88,5.29,2.88H189c3.12,0,5.29-1.52,5.29-2.88s-2.17-2.88-5.29-2.88Z" transform="translate(-60 -58)"/><ellipse class="cls-9" cx="135.44" cy="90.54" rx="3.02" ry="1.19" transform="translate(-84.13 65.4) rotate(-45.4)"/><ellipse class="cls-9" cx="159.5" cy="91" rx="1.19" ry="3.02" transform="translate(-77.96 80.19) rotate(-44.6)"/><ellipse class="cls-9" cx="148.43" cy="95.3" rx="1.19" ry="3.02" transform="translate(-60.66 -56.97) rotate(-0.4)"/><path class="cls-10" d="M142.61,169.8h-13.1c-16.75-.21-21.94-13.13-22.16-13.68a1.84,1.84,0,0,1,3.43-1.33c.19.47,4.58,11.15,18.75,11.33h13.07a1.84,1.84,0,1,1,0,3.68Z" transform="translate(-60 -58)"/><circle class="cls-10" cx="89.25" cy="109.9" r="2.03"/><path class="cls-9" d="M110.45,221.76a1.24,1.24,0,0,1,.15.66,1.89,1.89,0,0,1-.38,1.24,5.54,5.54,0,0,1-4.22,2.42,3.72,3.72,0,0,1-3.1-1.5,6.91,6.91,0,0,1-1.16-4.3q0-.68.06-1.36a28.56,28.56,0,0,1-2.88.36l-1.42.1q-.4,2-1.12,5-.42,1.74-1.6,1.74T93.5,225a3.61,3.61,0,0,1,.1-.72q.68-2.74,1.08-4.64l-1,0a1.59,1.59,0,0,1-1-.23.88.88,0,0,1-.3-.75,1.18,1.18,0,0,1,.38-1,2.17,2.17,0,0,1,1.26-.35l1.06,0a25.76,25.76,0,0,0,.52-4.3,2.1,2.1,0,0,0-.28-1.28.91.91,0,0,0-.74-.34q-1.4,0-3.16,2.34a.73.73,0,0,1-.58.34.59.59,0,0,1-.48-.26,1.06,1.06,0,0,1-.2-.66,2.31,2.31,0,0,1,.5-1.32,7.22,7.22,0,0,1,2.22-2,5.3,5.3,0,0,1,2.72-.79,2.42,2.42,0,0,1,2,.89,4.42,4.42,0,0,1,.71,2.77,28.56,28.56,0,0,1-.48,4.5l2-.1a20.91,20.91,0,0,0,2.16-.2,20.72,20.72,0,0,1,1.1-4.12,9.75,9.75,0,0,1,1.84-3.12,3.28,3.28,0,0,1,2.46-1.2,1.86,1.86,0,0,1,1.58.79,3.42,3.42,0,0,1,.58,2.07q0,5-5.06,6.88-.06.8-.06,1.66a6.22,6.22,0,0,0,.52,3,1.62,1.62,0,0,0,1.46.88,2.75,2.75,0,0,0,1.5-.43,7.06,7.06,0,0,0,1.54-1.47.7.7,0,0,1,.54-.28A.46.46,0,0,1,110.45,221.76Zm-4-10.78a10.13,10.13,0,0,0-.93,2.18,20.45,20.45,0,0,0-.7,3,4.85,4.85,0,0,0,2.36-1.88,5.86,5.86,0,0,0,.76-3.14,1.37,1.37,0,0,0-.16-.72.47.47,0,0,0-.4-.26Q106.9,210.18,106.41,211Z" transform="translate(-60 -58)"/><path class="cls-9" d="M109.46,225.18a3.6,3.6,0,0,1-.74-2.36,6.51,6.51,0,0,1,.74-3,6.31,6.31,0,0,1,2-2.3,4.44,4.44,0,0,1,2.61-.87.78.78,0,0,1,.59.17,1.45,1.45,0,0,1,.25.61,4.75,4.75,0,0,1,.88-.08q1,0,1,.7a15,15,0,0,1-.3,2,19.4,19.4,0,0,0-.46,3.2.72.72,0,0,0,.15.48.48.48,0,0,0,.39.18,1.52,1.52,0,0,0,.92-.49,17.17,17.17,0,0,0,1.46-1.59.7.7,0,0,1,.54-.28.46.46,0,0,1,.41.24,1.24,1.24,0,0,1,.15.66,1.84,1.84,0,0,1-.38,1.24,10.07,10.07,0,0,1-1.74,1.72,3,3,0,0,1-1.78.7,1.87,1.87,0,0,1-1.21-.45,2.74,2.74,0,0,1-.83-1.23,3,3,0,0,1-2.62,1.68A2.43,2.43,0,0,1,109.46,225.18Zm3.54-1.64a3.36,3.36,0,0,0,.58-1.38l.74-3.68a2.43,2.43,0,0,0-1.55.63,4.24,4.24,0,0,0-1.13,1.61,5.41,5.41,0,0,0-.42,2.12,1.42,1.42,0,0,0,.25.92.85.85,0,0,0,.69.3A1.1,1.1,0,0,0,113,223.54Z" transform="translate(-60 -58)"/><path class="cls-9" d="M118.73,225.28a7.65,7.65,0,0,1-.31-2.56,16.28,16.28,0,0,1,.74-4.94,1.5,1.5,0,0,1,.59-.85,2.07,2.07,0,0,1,1.15-.27,1.13,1.13,0,0,1,.56.1.41.41,0,0,1,.16.38,7.61,7.61,0,0,1-.3,1.44q-.2.8-.32,1.39a13.8,13.8,0,0,0-.2,1.47,10.83,10.83,0,0,1,1.29-2.64,6.07,6.07,0,0,1,1.54-1.61,2.7,2.7,0,0,1,1.49-.53,1.29,1.29,0,0,1,1,.32,1.42,1.42,0,0,1,.29,1,12.7,12.7,0,0,1-.38,2.32q-.16.72-.22,1.08a9.91,9.91,0,0,1,2.22-3.58,3.52,3.52,0,0,1,2.28-1.12,1.15,1.15,0,0,1,1.3,1.3,16.1,16.1,0,0,1-.44,2.82,13.84,13.84,0,0,0-.38,2.3q0,.8.58.8a1.56,1.56,0,0,0,1-.49,16.15,16.15,0,0,0,1.47-1.59.7.7,0,0,1,.54-.28.46.46,0,0,1,.41.24,1.24,1.24,0,0,1,.15.66,1.84,1.84,0,0,1-.38,1.24,8.84,8.84,0,0,1-1.85,1.74,3.88,3.88,0,0,1-2.25.68,1.94,1.94,0,0,1-1.54-.59,2.51,2.51,0,0,1-.52-1.71,12.46,12.46,0,0,1,.28-2,10.39,10.39,0,0,0,.26-1.74q0-.32-.22-.32t-.74.67a9.84,9.84,0,0,0-1,1.77,14.4,14.4,0,0,0-.78,2.32,3.06,3.06,0,0,1-.51,1.28,1.2,1.2,0,0,1-.93.32,1.06,1.06,0,0,1-1-.63,3.26,3.26,0,0,1-.33-1.53,17.23,17.23,0,0,1,.2-2.2q.16-1.28.16-1.68t-.22-.32q-.3,0-.76.72a10.33,10.33,0,0,0-.89,1.84,17.67,17.67,0,0,0-.69,2.2,3.12,3.12,0,0,1-.51,1.27,1.15,1.15,0,0,1-.91.33A1.09,1.09,0,0,1,118.73,225.28Z" transform="translate(-60 -58)"/><path class="cls-9" d="M144.3,220.1a1.38,1.38,0,0,1,.14.66,1.7,1.7,0,0,1-.14.77.74.74,0,0,1-.44.37,9.1,9.1,0,0,1-2.64.48,5.17,5.17,0,0,1-1.51,2.68,3.54,3.54,0,0,1-2.45,1,3.17,3.17,0,0,1-2.94-1.54,8.8,8.8,0,0,1-.92-4.46,27.22,27.22,0,0,1,.64-5.61,17.52,17.52,0,0,1,1.87-5.16q1.23-2.13,2.93-2.13a1.73,1.73,0,0,1,1.48.79,3.45,3.45,0,0,1,.56,2,9.08,9.08,0,0,1-.62,3.26,12.81,12.81,0,0,1-2.06,3.4,3,3,0,0,1,2.18,1.11,4.57,4.57,0,0,1,1,2.49,12.13,12.13,0,0,0,2.24-.4.87.87,0,0,1,.28,0A.44.44,0,0,1,144.3,220.1Zm-5.86,3.34a2.83,2.83,0,0,0,.64-1.5,2.76,2.76,0,0,1-.95-1.1,3.25,3.25,0,0,1-.33-1.44,4.86,4.86,0,0,1,.08-.76h-.06a1.62,1.62,0,0,0-1.37.81,3.81,3.81,0,0,0-.55,2.17,3,3,0,0,0,.43,1.74,1.23,1.23,0,0,0,1,.6A1.46,1.46,0,0,0,138.44,223.44Zm-.93-13.09a19.12,19.12,0,0,0-.87,3.23A40.59,40.59,0,0,0,136,218q1.32-2.42,2.11-4.27a8.54,8.54,0,0,0,.79-3.29,2.53,2.53,0,0,0-.15-1c-.1-.23-.24-.34-.41-.34S137.82,209.56,137.51,210.35Z" transform="translate(-60 -58)"/><path class="cls-9" d="M143.29,225.25a3.57,3.57,0,0,1-.57-2.07,17.41,17.41,0,0,1,.2-2.75,17.12,17.12,0,0,1,.66-2.65,1.67,1.67,0,0,1,.56-.86,2,2,0,0,1,1.14-.26,1,1,0,0,1,.61.14.51.51,0,0,1,.17.42,8.32,8.32,0,0,1-.22,1.08q-.2.74-.32,1.34a18.88,18.88,0,0,0-.4,2.8,1.25,1.25,0,0,0,.1.59.34.34,0,0,0,.32.17q.3,0,.75-.6a8.83,8.83,0,0,0,1-1.82,24.3,24.3,0,0,0,1-3,1.3,1.3,0,0,1,1.48-1.12,1.32,1.32,0,0,1,.64.11.44.44,0,0,1,.18.41,19.43,19.43,0,0,1-.5,2.74,22.1,22.1,0,0,0-.56,3.16,1,1,0,0,0,.16.59.5.5,0,0,0,.42.21,1.56,1.56,0,0,0,1-.49,16.15,16.15,0,0,0,1.47-1.59.7.7,0,0,1,.54-.28.46.46,0,0,1,.41.24,1.24,1.24,0,0,1,.15.66,1.84,1.84,0,0,1-.38,1.24,8.86,8.86,0,0,1-1.85,1.74,3.88,3.88,0,0,1-2.25.68,1.53,1.53,0,0,1-1.41-.74,4,4,0,0,1-.45-2.08,4.7,4.7,0,0,1-1,2.09,2,2,0,0,1-1.46.73A1.72,1.72,0,0,1,143.29,225.25Z" transform="translate(-60 -58)"/><path class="cls-9" d="M152.31,225.28a7.68,7.68,0,0,1-.31-2.56,16.27,16.27,0,0,1,.74-4.94,1.5,1.5,0,0,1,.59-.85,2.07,2.07,0,0,1,1.15-.27,1.13,1.13,0,0,1,.56.1.41.41,0,0,1,.16.38,7.68,7.68,0,0,1-.3,1.44c-.13.53-.24,1-.32,1.4a14.44,14.44,0,0,0-.2,1.48,11.38,11.38,0,0,1,1.48-2.8,5.81,5.81,0,0,1,1.61-1.54,2.93,2.93,0,0,1,1.45-.46,1.15,1.15,0,0,1,1.3,1.3,10,10,0,0,1-.18,1.26,7.4,7.4,0,0,0-.16,1q0,.7.5.7a2.41,2.41,0,0,0,1.44-.88.76.76,0,0,1,.54-.26.47.47,0,0,1,.41.23,1.1,1.1,0,0,1,.15.61,1.61,1.61,0,0,1-.4,1.16,5.41,5.41,0,0,1-1.31,1,3.27,3.27,0,0,1-1.59.41,2.21,2.21,0,0,1-1.61-.54,2,2,0,0,1-.55-1.46,3.13,3.13,0,0,1,.06-.6c0-.27,0-.45,0-.54s-.07-.32-.22-.32-.46.22-.79.67a9.4,9.4,0,0,0-1,1.77,14.36,14.36,0,0,0-.78,2.32,3.11,3.11,0,0,1-.51,1.27,1.15,1.15,0,0,1-.91.33A1.09,1.09,0,0,1,152.31,225.28Z" transform="translate(-60 -58)"/><path class="cls-9" d="M171.71,221.81a1.21,1.21,0,0,1,.15.63,1.54,1.54,0,0,1-.14.72,1.3,1.3,0,0,1-.44.46l-2.52,1.72-1.28.86a23.77,23.77,0,0,1-2,6.51q-1.23,2.37-3.13,2.37a2.27,2.27,0,0,1-1.66-.63,2.21,2.21,0,0,1-.64-1.65,5.47,5.47,0,0,1,1.12-3.05,20.32,20.32,0,0,1,4.2-4l.12-.78a2.42,2.42,0,0,1-2,1.12,2.43,2.43,0,0,1-2-.9,3.59,3.59,0,0,1-.74-2.36,6.5,6.5,0,0,1,.74-3,6.31,6.31,0,0,1,2-2.3,4.44,4.44,0,0,1,2.61-.87.79.79,0,0,1,.59.17,1.46,1.46,0,0,1,.25.61,4.34,4.34,0,0,1,.88-.08,1.26,1.26,0,0,1,.71.15.69.69,0,0,1,.21.59,2.75,2.75,0,0,1,0,.38q-.08.62-.5,3.14l-.17,1.05-.19,1.21q1.54-1.2,3-2.12a.91.91,0,0,1,.46-.16A.46.46,0,0,1,171.71,221.81Zm-8,10.13a16.44,16.44,0,0,0,1.21-3.82,11.61,11.61,0,0,0-2.22,2.38,3.59,3.59,0,0,0-.68,1.86,1.09,1.09,0,0,0,.13.56.46.46,0,0,0,.43.22Q163.08,233.14,163.71,231.94Zm1.41-8.44a3.71,3.71,0,0,0,.6-1.6l.64-3.42a2.36,2.36,0,0,0-1.52.63,4.3,4.3,0,0,0-1.12,1.61,5.41,5.41,0,0,0-.42,2.12,1.42,1.42,0,0,0,.25.92.85.85,0,0,0,.69.3A1.14,1.14,0,0,0,165.12,223.5Z" transform="translate(-60 -58)"/><path class="cls-9" d="M171,225.25a3.57,3.57,0,0,1-.57-2.07,17.41,17.41,0,0,1,.2-2.75,17.12,17.12,0,0,1,.66-2.65,1.67,1.67,0,0,1,.56-.86,2,2,0,0,1,1.14-.26,1,1,0,0,1,.61.14.51.51,0,0,1,.17.42,8.32,8.32,0,0,1-.22,1.08q-.2.74-.32,1.34a18.88,18.88,0,0,0-.4,2.8,1.25,1.25,0,0,0,.1.59.34.34,0,0,0,.32.17q.3,0,.75-.6a8.83,8.83,0,0,0,1-1.82,24.3,24.3,0,0,0,1-3,1.3,1.3,0,0,1,1.48-1.12,1.32,1.32,0,0,1,.64.11.44.44,0,0,1,.18.41,19.43,19.43,0,0,1-.5,2.74,22.1,22.1,0,0,0-.56,3.16,1,1,0,0,0,.16.59.5.5,0,0,0,.42.21,1.56,1.56,0,0,0,1-.49,16.15,16.15,0,0,0,1.47-1.59.7.7,0,0,1,.54-.28.46.46,0,0,1,.41.24,1.24,1.24,0,0,1,.15.66,1.84,1.84,0,0,1-.38,1.24,8.86,8.86,0,0,1-1.85,1.74,3.88,3.88,0,0,1-2.25.68,1.53,1.53,0,0,1-1.41-.74,4,4,0,0,1-.45-2.08,4.7,4.7,0,0,1-1,2.09,2,2,0,0,1-1.46.73A1.72,1.72,0,0,1,171,225.25Z" transform="translate(-60 -58)"/><path class="cls-9" d="M189,221.76a1.24,1.24,0,0,1,.15.66,1.83,1.83,0,0,1-.38,1.24,7.29,7.29,0,0,1-2.09,1.66,5.79,5.79,0,0,1-2.89.76,4.45,4.45,0,0,1-3.26-1.14,4.17,4.17,0,0,1-1.16-3.12,5.79,5.79,0,0,1,.58-2.57,4.75,4.75,0,0,1,1.61-1.89,4,4,0,0,1,2.33-.7,2.54,2.54,0,0,1,1.86.69,2.51,2.51,0,0,1,.7,1.87,3.23,3.23,0,0,1-1,2.37,7.17,7.17,0,0,1-3.35,1.57,2,2,0,0,0,1.9.92,4.37,4.37,0,0,0,2-.63,6.77,6.77,0,0,0,2-1.65.7.7,0,0,1,.54-.28A.46.46,0,0,1,189,221.76Zm-6.7-2.28a4,4,0,0,0-.51,2.08v0a4.56,4.56,0,0,0,1.86-.84,1.65,1.65,0,0,0,.68-1.3.87.87,0,0,0-.21-.61.74.74,0,0,0-.57-.23A1.47,1.47,0,0,0,182.29,219.48Z" transform="translate(-60 -58)"/><path class="cls-9" d="M189.65,226a1.41,1.41,0,0,1-.55-1.08,1.23,1.23,0,0,1,.38-.9,1.52,1.52,0,0,1,1.12-.38,4.42,4.42,0,0,1,.61,0l.53.07a2.57,2.57,0,0,0-.23-1,5,5,0,0,0-.53-.89q-.32-.43-.6-.75a13.16,13.16,0,0,1-1.23,2,14.5,14.5,0,0,1-1.33,1.48,1.07,1.07,0,0,1-.76.36.65.65,0,0,1-.52-.23.83.83,0,0,1-.2-.57,1.14,1.14,0,0,1,.28-.74l.26-.32a26.1,26.1,0,0,0,1.66-2.24q.34-.58.8-1.55t.9-2a1.54,1.54,0,0,1,1.58-.88,2.11,2.11,0,0,1,.78.1.33.33,0,0,1,.22.32,1.45,1.45,0,0,1-.08.38,2.89,2.89,0,0,1-.22.52,2.85,2.85,0,0,0-.36,1.22,1.34,1.34,0,0,0,.21.66,7.55,7.55,0,0,0,.65.9,12.68,12.68,0,0,1,1,1.43,2.59,2.59,0,0,1,.33,1.29,5.51,5.51,0,0,1,0,.56,6.38,6.38,0,0,0,2.3-2,.7.7,0,0,1,.54-.28.46.46,0,0,1,.41.24,1.24,1.24,0,0,1,.15.66,1.94,1.94,0,0,1-.38,1.24,6.1,6.1,0,0,1-1.91,1.69,5.44,5.44,0,0,1-2.25.49,2.84,2.84,0,0,1-1.9.68A2.35,2.35,0,0,1,189.65,226Z" transform="translate(-60 -58)"/><path class="cls-9" d="M196.54,225.18a3.59,3.59,0,0,1-.74-2.36,6.5,6.5,0,0,1,.74-3,6.31,6.31,0,0,1,2-2.3,4.44,4.44,0,0,1,2.61-.87.79.79,0,0,1,.59.17,1.46,1.46,0,0,1,.25.61,4.74,4.74,0,0,1,.88-.08q1,0,1,.7a14.94,14.94,0,0,1-.3,2,19.4,19.4,0,0,0-.46,3.2.72.72,0,0,0,.15.48.48.48,0,0,0,.39.18,1.52,1.52,0,0,0,.92-.49A17.1,17.1,0,0,0,206,221.8a.7.7,0,0,1,.54-.28.46.46,0,0,1,.41.24,1.24,1.24,0,0,1,.15.66,1.83,1.83,0,0,1-.38,1.24,10.1,10.1,0,0,1-1.74,1.72,3,3,0,0,1-1.78.7,1.87,1.87,0,0,1-1.21-.45,2.74,2.74,0,0,1-.83-1.23,3,3,0,0,1-2.62,1.68A2.43,2.43,0,0,1,196.54,225.18Zm3.54-1.64a3.36,3.36,0,0,0,.58-1.38l.74-3.68a2.43,2.43,0,0,0-1.55.63,4.25,4.25,0,0,0-1.13,1.61,5.41,5.41,0,0,0-.42,2.12,1.42,1.42,0,0,0,.25.92.85.85,0,0,0,.69.3A1.1,1.1,0,0,0,200.08,223.54Z" transform="translate(-60 -58)"/><path class="cls-9" d="M207.59,226A1.41,1.41,0,0,1,207,225a1.23,1.23,0,0,1,.38-.9,1.52,1.52,0,0,1,1.12-.38,4.42,4.42,0,0,1,.61,0l.53.07a2.57,2.57,0,0,0-.23-1,5,5,0,0,0-.53-.89q-.32-.43-.6-.75a13.16,13.16,0,0,1-1.23,2,14.5,14.5,0,0,1-1.33,1.48,1.07,1.07,0,0,1-.76.36.65.65,0,0,1-.52-.23.83.83,0,0,1-.2-.57,1.14,1.14,0,0,1,.28-.74l.26-.32a26.1,26.1,0,0,0,1.66-2.24,13.08,13.08,0,0,0,.73-1.38q.37-.8,1-2.18a1.54,1.54,0,0,1,1.58-.88,2.11,2.11,0,0,1,.78.1.33.33,0,0,1,.22.32,1.45,1.45,0,0,1-.08.38,2.89,2.89,0,0,1-.22.52,2.85,2.85,0,0,0-.36,1.22,1.34,1.34,0,0,0,.21.66,7.55,7.55,0,0,0,.65.9,12.68,12.68,0,0,1,1,1.43,2.59,2.59,0,0,1,.33,1.29,3.4,3.4,0,0,1-.39,1.59,3.18,3.18,0,0,1-1.09,1.21,2.85,2.85,0,0,1-1.6.46A2.35,2.35,0,0,1,207.59,226Z" transform="translate(-60 -58)"/><path class="cls-9" d="M84.5,220h-18a1.5,1.5,0,0,1,0-3h18a1.5,1.5,0,0,1,0,3Z" transform="translate(-60 -58)"/><path class="cls-9" d="M233.5,220h-18a1.5,1.5,0,0,1,0-3h18a1.5,1.5,0,0,1,0,3Z" transform="translate(-60 -58)"/></svg>