<svg id="Capa_1" data-name="Capa 1" xmlns="http://www.w3.org/2000/svg" viewBox="0 0 180 184"><defs><style>.cls-1{fill:#11393b;}.cls-2{fill:#e9f1df;}.cls-3{fill:#174c4f;}.cls-4{font-size:20px;font-family:Pacifico-Regular, Pacifico;}.cls-13,.cls-14,.cls-4{fill:#fff;}.cls-5{letter-spacing:-0.01em;}.cls-6{letter-spacing:0em;}.cls-7{fill:none;stroke:#fff;stroke-linecap:round;stroke-miterlimit:10;stroke-width:3px;}.cls-8{fill:#fcb065;}.cls-9{fill:#921116;}.cls-10{fill:#aa5602;}.cls-11{fill:#90c130;}.cls-12{fill:#f4df1c;}.cls-14{opacity:0.5;}</style></defs><title>c07</title><path class="cls-1" d="M0,141H180a0,0,0,0,1,0,0v35.51a7.49,7.49,0,0,1-7.49,7.49H7.49A7.49,7.49,0,0,1,0,176.51V141a0,0,0,0,1,0,0Z"/><path class="cls-2" d="M232.16,238H67.49A7.49,7.49,0,0,1,60,230.51V70A12,12,0,0,1,72,58H227.65a12,12,0,0,1,12,12V230.51A7.49,7.49,0,0,1,232.16,238Z" transform="translate(-60 -58)"/><path class="cls-3" d="M0,138H180a0,0,0,0,1,0,0v35.51a7.49,7.49,0,0,1-7.49,7.49H7.49A7.49,7.49,0,0,1,0,173.51V138a0,0,0,0,1,0,0Z"/><text class="cls-4" transform="translate(31.56 167.98)">Hambur<tspan class="cls-5" x="69.54" y="0">g</tspan><tspan class="cls-6" x="78.9" y="0">uesas</tspan></text><line class="cls-7" x1="24.5" y1="160.5" x2="6.5" y2="160.5"/><path class="cls-8" d="M198.3,115.32c0-17.45-11.07-31.59-24.73-31.59H125.86c-13.66,0-24.73,14.14-24.73,31.59,0,.15,0,.3,0,.44h97.15C198.29,115.61,198.3,115.47,198.3,115.32Z" transform="translate(-60 -58)"/><path class="cls-9" d="M199.81,117.3H99.62l0-1.65c0-.11,0-.22,0-.33,0-18.27,11.78-33.13,26.26-33.13h47.71c14.48,0,26.26,14.86,26.26,33.13,0,.11,0,.22,0,.33Zm-97.12-3.07h94.06c-.44-16.07-10.67-29-23.18-29H125.86C113.35,85.26,103.13,98.15,102.68,114.23Z" transform="translate(-60 -58)"/><path class="cls-8" d="M101.14,150c0,13,11.07,23.47,24.73,23.47h47.71c13.66,0,24.73-10.51,24.73-23.47,0-.11,0-.22,0-.33H101.14C101.14,149.77,101.14,149.88,101.14,150Z" transform="translate(-60 -58)"/><path class="cls-9" d="M173.57,175H125.86c-14.48,0-26.26-11.22-26.26-25,0-.09,0-.17,0-.26l0-1.6H199.8l0,1.61c0,.08,0,.17,0,.25C199.83,163.78,188,175,173.57,175ZM102.7,151.19c.66,11.54,10.8,20.74,23.16,20.74h47.71c12.36,0,22.49-9.2,23.16-20.74Z" transform="translate(-60 -58)"/><path class="cls-10" d="M195.84,124.24c0-4.23-3.06-7.66-6.83-7.66h-78.6c-3.77,0-6.83,3.43-6.83,7.66h0c0,4.23,3.06,7.66,6.83,7.66H189c3.77,0,6.83-3.43,6.83-7.66Z" transform="translate(-60 -58)"/><path class="cls-9" d="M189,133.44h-78.6c-4.61,0-8.36-4.13-8.36-9.2s3.75-9.2,8.36-9.2H189c4.61,0,8.36,4.13,8.36,9.2S193.62,133.44,189,133.44Zm-78.6-15.32c-2.92,0-5.29,2.75-5.29,6.13s2.37,6.13,5.29,6.13H189c2.92,0,5.29-2.75,5.29-6.13s-2.37-6.13-5.29-6.13Z" transform="translate(-60 -58)"/><path class="cls-11" d="M195.84,136.08c0-2.44-3.06-4.41-6.83-4.41h-78.6c-3.77,0-6.83,2-6.83,4.41h0c0,2.44,3.06,4.41,6.83,4.41H189c3.77,0,6.83-2,6.83-4.41Z" transform="translate(-60 -58)"/><path class="cls-9" d="M189,142h-78.6c-4.69,0-8.36-2.61-8.36-5.95s3.67-5.95,8.36-5.95H189c4.69,0,8.36,2.61,8.36,5.95S193.7,142,189,142Zm-78.6-8.82c-3.12,0-5.29,1.52-5.29,2.88s2.17,2.88,5.29,2.88H189c3.12,0,5.29-1.52,5.29-2.88s-2.17-2.88-5.29-2.88Z" transform="translate(-60 -58)"/><path class="cls-12" d="M195.84,145.14c0-2.44-3.06-4.41-6.83-4.41h-78.6c-3.77,0-6.83,2-6.83,4.41h0c0,2.44,3.06,4.41,6.83,4.41H189c3.77,0,6.83-2,6.83-4.41Z" transform="translate(-60 -58)"/><path class="cls-9" d="M189,151.08h-78.6c-4.69,0-8.36-2.61-8.36-5.95s3.67-5.95,8.36-5.95H189c4.69,0,8.36,2.61,8.36,5.95S193.7,151.08,189,151.08Zm-78.6-8.82c-3.12,0-5.29,1.52-5.29,2.88s2.17,2.88,5.29,2.88H189c3.12,0,5.29-1.52,5.29-2.88s-2.17-2.88-5.29-2.88Z" transform="translate(-60 -58)"/><ellipse class="cls-13" cx="135.44" cy="90.54" rx="3.02" ry="1.19" transform="translate(-84.13 65.4) rotate(-45.4)"/><ellipse class="cls-13" cx="159.5" cy="91" rx="1.19" ry="3.02" transform="translate(-77.96 80.19) rotate(-44.6)"/><ellipse class="cls-13" cx="148.43" cy="95.3" rx="1.19" ry="3.02" transform="translate(-60.66 -56.97) rotate(-0.4)"/><path class="cls-14" d="M142.61,169.8h-13.1c-16.75-.21-21.94-13.13-22.16-13.68a1.84,1.84,0,0,1,3.43-1.33c.19.47,4.58,11.15,18.75,11.33h13.07a1.84,1.84,0,1,1,0,3.68Z" transform="translate(-60 -58)"/><circle class="cls-14" cx="89.25" cy="109.9" r="2.03"/></svg>