<svg id="Capa_1" data-name="Capa 1" xmlns="http://www.w3.org/2000/svg" viewBox="0 0 180 184"><defs><style>.cls-1{fill:#e9f1df;}.cls-2{fill:#11393b;}.cls-3{fill:#174c4f;}.cls-4{font-size:27px;font-family:Pacifico-Regular, Pacifico;}.cls-11,.cls-4{fill:#fff;}.cls-5{letter-spacing:-0.01em;}.cls-6{letter-spacing:-0.01em;}.cls-7{letter-spacing:0em;}.cls-8{fill:none;stroke:#fff;stroke-linecap:round;stroke-miterlimit:10;stroke-width:3px;}.cls-9{fill:#ff1e0d;}.cls-10{fill:#a80202;}.cls-12{fill:#698e19;}.cls-13{fill:#aac605;}.cls-14{fill:#f0a8a9;}.cls-15{fill:#ec9797;}.cls-16{fill:#facfcf;}.cls-17{fill:#5b7514;}.cls-18{fill:#a2c733;}.cls-19{fill:#ff8812;}.cls-20{fill:#534741;}</style></defs><title>c08</title><path class="cls-1" d="M232.16,238H67.49A7.49,7.49,0,0,1,60,230.51V70A12,12,0,0,1,72,58H227.65a12,12,0,0,1,12,12V230.51A7.49,7.49,0,0,1,232.16,238Z" transform="translate(-60 -58)"/><path class="cls-2" d="M0,141H180a0,0,0,0,1,0,0v35.51a7.49,7.49,0,0,1-7.49,7.49H7.49A7.49,7.49,0,0,1,0,176.51V141a0,0,0,0,1,0,0Z"/><path class="cls-3" d="M0,138H180a0,0,0,0,1,0,0v35.51a7.49,7.49,0,0,1-7.49,7.49H7.49A7.49,7.49,0,0,1,0,173.51V138a0,0,0,0,1,0,0Z"/><text class="cls-4" transform="translate(35.56 169.98)">Ensa<tspan class="cls-5" x="56.13" y="0">l</tspan><tspan x="64.66" y="0">a</tspan><tspan class="cls-6" x="77.35" y="0">d</tspan><tspan class="cls-7" x="90.99" y="0">as</tspan></text><line class="cls-8" x1="27.5" y1="160.5" x2="9.5" y2="160.5"/><line class="cls-8" x1="173.5" y1="160.5" x2="155.5" y2="160.5"/><path class="cls-9" d="M170.74,112.48c.21-1.77,1.74-3.34,4.16-4.15-2.52-3.58-1.24-6.79,1.53-7.53,1.94-.52,4.54.16,6.94,2.13l.17.15c0-.07,0-.15.08-.22,1.07-3,3-4.89,4.94-5.41,2.8-.75,5.5,1.47,5.08,5.89,2.48-.48,4.61.1,5.72,1.5l5.71-1.52C201,88.93,192.56,85,183.4,87.44l-8,2.13c-9.25,2.47-14.27,10.07-10.18,24.38Z" transform="translate(-60 -58)"/><path class="cls-10" d="M165.25,114c-4.09-14.31.93-21.91,10.18-24.38l8-2.13c9.16-2.45,17.58,1.49,21.68,15.88l2-.54c-2.09-7.32-5.39-12.49-9.79-15.39-4.08-2.68-9.09-3.35-14.47-1.91l-8,2.13c-5.41,1.44-9.36,4.51-11.43,8.85-2.22,4.67-2.29,10.73-.21,18Z" transform="translate(-60 -58)"/><path class="cls-11" d="M178.48,95.07c-.62-2.16.3-3.36,1.75-3.74s2.86.18,3.48,2.35-1.25,5.49-1.25,5.49S179.09,97.23,178.48,95.07Z" transform="translate(-60 -58)"/><path class="cls-11" d="M168.38,99.57c-1.35-1.26-1.22-2.46-.39-3.3s2.07-1,3.42.23,1.48,4.31,1.48,4.31S169.73,100.83,168.38,99.57Z" transform="translate(-60 -58)"/><path class="cls-11" d="M194.24,92.67c.49-1.75-.26-2.72-1.42-3s-2.31.15-2.81,1.9S191,96,191,96,193.74,94.42,194.24,92.67Z" transform="translate(-60 -58)"/><path class="cls-12" d="M178,147.27c-1-.29-29.72-4.49-39.69.57a5.88,5.88,0,0,0-.76-4.07l72.65-35.43v0a12.83,12.83,0,0,1-4,16.41c6.63,4.7,5.59,12.74-1.9,16.4-6.59,3.21-11.59.71-13.59,1.05C190,147.29,184,149,178,147.27Z" transform="translate(-60 -58)"/><path class="cls-13" d="M210.23,108.36h0l-72.67,35.38a6.22,6.22,0,0,0-2.88-3.05c10.13-4.77,23.8-29.56,24.17-30.54,2.2-5.68,7.14-9.32,11.77-6.9,1.47-1.35,2.39-6.74,9-9.95,7.49-3.65,14.76.36,14.68,8.32C200.87,99.81,207.55,102.85,210.23,108.36Z" transform="translate(-60 -58)"/><path class="cls-12" d="M125.53,152.34c1-.31,29.66-4.89,39.7,0a5.87,5.87,0,0,1,.7-4.08L92.81,113.86v0A12.83,12.83,0,0,0,97,130.24c-6.57,4.79-5.41,12.82,2.12,16.37,6.63,3.12,11.6.55,13.6.87C113.56,152.52,119.55,154.11,125.53,152.34Z" transform="translate(-60 -58)"/><path class="cls-13" d="M92.78,113.88h0l73.15,34.38a6.22,6.22,0,0,1,2.84-3.09c-10.19-4.63-24.2-29.23-24.59-30.21-2.27-5.65-7.27-9.23-11.86-6.74-1.48-1.33-2.48-6.7-9.12-9.82-7.54-3.54-14.75.56-14.56,8.52C102,105.2,95.38,108.33,92.78,113.88Z" transform="translate(-60 -58)"/><ellipse class="cls-14" cx="91.96" cy="48.33" rx="20.14" ry="19.55"/><path class="cls-15" d="M156.68,103.27v-2.55a1.86,1.86,0,0,0-3.73,0,2.25,2.25,0,0,1-.7,2.12l-3.06,2.4a1.77,1.77,0,0,0-.28,2.54l3.62,4.37a1.91,1.91,0,0,0,2.62.28l3.76-2.94a1.78,1.78,0,0,0,.28-2.55c-2.19-2.65-2.52-2.82-2.52-3.68Z" transform="translate(-60 -58)"/><path class="cls-15" d="M148.55,94.18l1.47-1a1.21,1.21,0,0,0,.31-1.73,1.3,1.3,0,0,0-1.78-.3,1.66,1.66,0,0,1-1.5.46l-2.58-.72a1.28,1.28,0,0,0-1.58.85l-1.09,3.69a1.24,1.24,0,0,0,.88,1.53l3.17.88a1.28,1.28,0,0,0,1.58-.85c.66-2.24.63-2.48,1.12-2.82Z" transform="translate(-60 -58)"/><path class="cls-16" d="M143.22,101.2h-5.7a1.63,1.63,0,0,0-1.66,1.61v7.46a1.63,1.63,0,0,0,1.66,1.61h1.19a1.63,1.63,0,0,0,1.65-1.61,1.63,1.63,0,0,1,1.65-1.61c.61,0,2.85.3,2.85-1.61v-4.24a1.63,1.63,0,0,0-1.66-1.61Z" transform="translate(-60 -58)"/><path class="cls-16" d="M147.37,117.38v4.39a1.3,1.3,0,0,0,1.31,1.28h6.1a1.29,1.29,0,0,0,1.31-1.28v-.92a1.3,1.3,0,0,0-1.31-1.27,1.3,1.3,0,0,1-1.32-1.28c0-.46.24-2.2-1.31-2.2h-3.47a1.3,1.3,0,0,0-1.32,1.28Z" transform="translate(-60 -58)"/><path class="cls-16" d="M163.06,94.37a1.57,1.57,0,0,1-1.59,1.55h-6.35a1.57,1.57,0,0,1-1.59-1.54h0a1.57,1.57,0,0,1,1.59-1.54h6.35a1.57,1.57,0,0,1,1.59,1.54Z" transform="translate(-60 -58)"/><ellipse class="cls-16" cx="104.72" cy="46.54" rx="3.44" ry="3.34"/><ellipse class="cls-16" cx="101.34" cy="59.39" rx="1.72" ry="1.67"/><ellipse class="cls-16" cx="82.97" cy="59.37" rx="1.7" ry="1.65"/><ellipse class="cls-16" cx="89.61" cy="42.06" rx="1.18" ry="1.14"/><path class="cls-9" d="M122.31,138.42c-1.23-1.29-1.46-3.47-.54-5.85-4.37-.35-6-3.38-4.82-6,.84-1.82,3-3.39,6.07-4l.23,0-.12-.2c-1.6-2.72-1.86-5.42-1-7.26,1.21-2.63,4.65-3.29,7.77-.15,1.22-2.21,3-3.49,4.81-3.44l2.48-5.36c-13.7-6-22.1-2.07-26.07,6.55l-3.45,7.49c-4,8.69-1.36,17.41,12.26,23.41Z" transform="translate(-60 -58)"/><path class="cls-10" d="M119.94,143.58c-13.63-6-16.27-14.71-12.26-23.4l3.45-7.49c4-8.61,12.37-12.57,26.07-6.54l.87-1.9c-7-3.06-13.06-3.83-18.1-2.3-4.67,1.43-8.38,4.85-10.71,9.92l-3.45,7.49c-2.34,5.08-2.51,10.08-.49,14.45,2.18,4.69,6.8,8.62,13.74,11.67Z" transform="translate(-60 -58)"/><path class="cls-11" d="M113.85,121.35c-2.06-.91-2.4-2.38-1.77-3.73s2-2.09,4-1.18,3.43,4.46,3.43,4.46S115.91,122.26,113.85,121.35Z" transform="translate(-60 -58)"/><path class="cls-11" d="M110.87,132c-1.83.24-2.67-.63-2.79-1.81s.53-2.24,2.36-2.48,4.26,1.62,4.26,1.62S112.7,131.76,110.87,132Z" transform="translate(-60 -58)"/><path class="cls-11" d="M122.07,107.69c-1-1.49-2.25-1.54-3.24-.84s-1.37,1.87-.33,3.37,4.07,2,4.07,2S123.1,109.19,122.07,107.69Z" transform="translate(-60 -58)"/><ellipse class="cls-17" cx="73.35" cy="45.88" rx="16.14" ry="15.67"/><ellipse class="cls-18" cx="73.35" cy="45.88" rx="13.24" ry="12.85"/><ellipse class="cls-11" cx="73.37" cy="45.88" rx="5.31" ry="5.15"/><circle class="cls-19" cx="101.62" cy="66.11" r="2.97"/><circle class="cls-19" cx="79.38" cy="77.94" r="2.97"/><circle class="cls-19" cx="79.38" cy="61.1" r="2.04"/><circle class="cls-19" cx="60.82" cy="88.45" r="2.04"/><circle class="cls-19" cx="114.83" cy="81.51" r="2.97"/><circle class="cls-19" cx="121.61" cy="56.02" r="2.97"/><circle class="cls-19" cx="134.62" cy="61.1" r="2.04"/><path class="cls-20" d="M216,125.72c0,27.22-28.61,49.28-63.9,49.28s-63.9-22.06-63.9-49.28Z" transform="translate(-60 -58)"/></svg>