<svg id="Capa_1" data-name="Capa 1" xmlns="http://www.w3.org/2000/svg" viewBox="0 0 180 184"><defs><style>.cls-1{fill:#e9f1df;}.cls-2{fill:#11393b;}.cls-3{fill:#174c4f;}.cls-4{fill:#ff1e0d;}.cls-5{fill:#a80202;}.cls-6{fill:#fff;}.cls-7{fill:#698e19;}.cls-8{fill:#aac605;}.cls-9{fill:#f0a8a9;}.cls-10{fill:#ec9797;}.cls-11{fill:#facfcf;}.cls-12{fill:#5b7514;}.cls-13{fill:#a2c733;}.cls-14{fill:#ff8812;}.cls-15{fill:#534741;}</style></defs><title>c08</title><path class="cls-1" d="M232.16,238H67.49A7.49,7.49,0,0,1,60,230.51V70A12,12,0,0,1,72,58H227.65a12,12,0,0,1,12,12V230.51A7.49,7.49,0,0,1,232.16,238Z" transform="translate(-60 -58)"/><path class="cls-2" d="M0,141H180a0,0,0,0,1,0,0v35.51a7.49,7.49,0,0,1-7.49,7.49H7.49A7.49,7.49,0,0,1,0,176.51V141a0,0,0,0,1,0,0Z"/><path class="cls-3" d="M0,138H180a0,0,0,0,1,0,0v35.51a7.49,7.49,0,0,1-7.49,7.49H7.49A7.49,7.49,0,0,1,0,173.51V138a0,0,0,0,1,0,0Z"/><path class="cls-4" d="M170.74,112.48c.21-1.77,1.74-3.34,4.16-4.15-2.52-3.58-1.24-6.79,1.53-7.53,1.94-.52,4.54.16,6.94,2.13l.17.15c0-.07,0-.15.08-.22,1.07-3,3-4.89,4.94-5.41,2.8-.75,5.5,1.47,5.08,5.89,2.48-.48,4.61.1,5.72,1.5l5.71-1.52C201,88.93,192.56,85,183.4,87.44l-8,2.13c-9.25,2.47-14.27,10.07-10.18,24.38Z" transform="translate(-60 -58)"/><path class="cls-5" d="M165.25,114c-4.09-14.31.93-21.91,10.18-24.38l8-2.13c9.16-2.45,17.58,1.49,21.68,15.88l2-.54c-2.09-7.32-5.39-12.49-9.79-15.39-4.08-2.68-9.09-3.35-14.47-1.91l-8,2.13c-5.41,1.44-9.36,4.51-11.43,8.85-2.22,4.67-2.29,10.73-.21,18Z" transform="translate(-60 -58)"/><path class="cls-6" d="M178.48,95.07c-.62-2.16.3-3.36,1.75-3.74s2.86.18,3.48,2.35-1.25,5.49-1.25,5.49S179.09,97.23,178.48,95.07Z" transform="translate(-60 -58)"/><path class="cls-6" d="M168.38,99.57c-1.35-1.26-1.22-2.46-.39-3.3s2.07-1,3.42.23,1.48,4.31,1.48,4.31S169.73,100.83,168.38,99.57Z" transform="translate(-60 -58)"/><path class="cls-6" d="M194.24,92.67c.49-1.75-.26-2.72-1.42-3s-2.31.15-2.81,1.9S191,96,191,96,193.74,94.42,194.24,92.67Z" transform="translate(-60 -58)"/><path class="cls-7" d="M178,147.27c-1-.29-29.72-4.49-39.69.57a5.88,5.88,0,0,0-.76-4.07l72.65-35.43v0a12.83,12.83,0,0,1-4,16.41c6.63,4.7,5.59,12.74-1.9,16.4-6.59,3.21-11.59.71-13.59,1.05C190,147.29,184,149,178,147.27Z" transform="translate(-60 -58)"/><path class="cls-8" d="M210.23,108.36h0l-72.67,35.38a6.22,6.22,0,0,0-2.88-3.05c10.13-4.77,23.8-29.56,24.17-30.54,2.2-5.68,7.14-9.32,11.77-6.9,1.47-1.35,2.39-6.74,9-9.95,7.49-3.65,14.76.36,14.68,8.32C200.87,99.81,207.55,102.85,210.23,108.36Z" transform="translate(-60 -58)"/><path class="cls-7" d="M125.53,152.34c1-.31,29.66-4.89,39.7,0a5.87,5.87,0,0,1,.7-4.08L92.81,113.86v0A12.83,12.83,0,0,0,97,130.24c-6.57,4.79-5.41,12.82,2.12,16.37,6.63,3.12,11.6.55,13.6.87C113.56,152.52,119.55,154.11,125.53,152.34Z" transform="translate(-60 -58)"/><path class="cls-8" d="M92.78,113.88h0l73.15,34.38a6.22,6.22,0,0,1,2.84-3.09c-10.19-4.63-24.2-29.23-24.59-30.21-2.27-5.65-7.27-9.23-11.86-6.74-1.48-1.33-2.48-6.7-9.12-9.82-7.54-3.54-14.75.56-14.56,8.52C102,105.2,95.38,108.33,92.78,113.88Z" transform="translate(-60 -58)"/><ellipse class="cls-9" cx="91.96" cy="48.33" rx="20.14" ry="19.55"/><path class="cls-10" d="M156.68,103.27v-2.55a1.86,1.86,0,0,0-3.73,0,2.25,2.25,0,0,1-.7,2.12l-3.06,2.4a1.77,1.77,0,0,0-.28,2.54l3.62,4.37a1.91,1.91,0,0,0,2.62.28l3.76-2.94a1.78,1.78,0,0,0,.28-2.55c-2.19-2.65-2.52-2.82-2.52-3.68Z" transform="translate(-60 -58)"/><path class="cls-10" d="M148.55,94.18l1.47-1a1.21,1.21,0,0,0,.31-1.73,1.3,1.3,0,0,0-1.78-.3,1.66,1.66,0,0,1-1.5.46l-2.58-.72a1.28,1.28,0,0,0-1.58.85l-1.09,3.69a1.24,1.24,0,0,0,.88,1.53l3.17.88a1.28,1.28,0,0,0,1.58-.85c.66-2.24.63-2.48,1.12-2.82Z" transform="translate(-60 -58)"/><path class="cls-11" d="M143.22,101.2h-5.7a1.63,1.63,0,0,0-1.66,1.61v7.46a1.63,1.63,0,0,0,1.66,1.61h1.19a1.63,1.63,0,0,0,1.65-1.61,1.63,1.63,0,0,1,1.65-1.61c.61,0,2.85.3,2.85-1.61v-4.24a1.63,1.63,0,0,0-1.66-1.61Z" transform="translate(-60 -58)"/><path class="cls-11" d="M147.37,117.38v4.39a1.3,1.3,0,0,0,1.31,1.28h6.1a1.29,1.29,0,0,0,1.31-1.28v-.92a1.3,1.3,0,0,0-1.31-1.27,1.3,1.3,0,0,1-1.32-1.28c0-.46.24-2.2-1.31-2.2h-3.47a1.3,1.3,0,0,0-1.32,1.28Z" transform="translate(-60 -58)"/><path class="cls-11" d="M163.06,94.37a1.57,1.57,0,0,1-1.59,1.55h-6.35a1.57,1.57,0,0,1-1.59-1.54h0a1.57,1.57,0,0,1,1.59-1.54h6.35a1.57,1.57,0,0,1,1.59,1.54Z" transform="translate(-60 -58)"/><ellipse class="cls-11" cx="104.72" cy="46.54" rx="3.44" ry="3.34"/><ellipse class="cls-11" cx="101.34" cy="59.39" rx="1.72" ry="1.67"/><ellipse class="cls-11" cx="82.97" cy="59.37" rx="1.7" ry="1.65"/><ellipse class="cls-11" cx="89.61" cy="42.06" rx="1.18" ry="1.14"/><path class="cls-4" d="M122.31,138.42c-1.23-1.29-1.46-3.47-.54-5.85-4.37-.35-6-3.38-4.82-6,.84-1.82,3-3.39,6.07-4l.23,0-.12-.2c-1.6-2.72-1.86-5.42-1-7.26,1.21-2.63,4.65-3.29,7.77-.15,1.22-2.21,3-3.49,4.81-3.44l2.48-5.36c-13.7-6-22.1-2.07-26.07,6.55l-3.45,7.49c-4,8.69-1.36,17.41,12.26,23.41Z" transform="translate(-60 -58)"/><path class="cls-5" d="M119.94,143.58c-13.63-6-16.27-14.71-12.26-23.4l3.45-7.49c4-8.61,12.37-12.57,26.07-6.54l.87-1.9c-7-3.06-13.06-3.83-18.1-2.3-4.67,1.43-8.38,4.85-10.71,9.92l-3.45,7.49c-2.34,5.08-2.51,10.08-.49,14.45,2.18,4.69,6.8,8.62,13.74,11.67Z" transform="translate(-60 -58)"/><path class="cls-6" d="M113.85,121.35c-2.06-.91-2.4-2.38-1.77-3.73s2-2.09,4-1.18,3.43,4.46,3.43,4.46S115.91,122.26,113.85,121.35Z" transform="translate(-60 -58)"/><path class="cls-6" d="M110.87,132c-1.83.24-2.67-.63-2.79-1.81s.53-2.24,2.36-2.48,4.26,1.62,4.26,1.62S112.7,131.76,110.87,132Z" transform="translate(-60 -58)"/><path class="cls-6" d="M122.07,107.69c-1-1.49-2.25-1.54-3.24-.84s-1.37,1.87-.33,3.37,4.07,2,4.07,2S123.1,109.19,122.07,107.69Z" transform="translate(-60 -58)"/><ellipse class="cls-12" cx="73.35" cy="45.88" rx="16.14" ry="15.67"/><ellipse class="cls-13" cx="73.35" cy="45.88" rx="13.24" ry="12.85"/><ellipse class="cls-6" cx="73.37" cy="45.88" rx="5.31" ry="5.15"/><circle class="cls-14" cx="101.62" cy="66.11" r="2.97"/><circle class="cls-14" cx="79.38" cy="77.94" r="2.97"/><circle class="cls-14" cx="79.38" cy="61.1" r="2.04"/><circle class="cls-14" cx="60.82" cy="88.45" r="2.04"/><circle class="cls-14" cx="114.83" cy="81.51" r="2.97"/><circle class="cls-14" cx="121.61" cy="56.02" r="2.97"/><circle class="cls-14" cx="134.62" cy="61.1" r="2.04"/><path class="cls-15" d="M216,125.72c0,27.22-28.61,49.28-63.9,49.28s-63.9-22.06-63.9-49.28Z" transform="translate(-60 -58)"/><path class="cls-6" d="M116.62,222.91a.73.73,0,0,1,.65.32,1.48,1.48,0,0,1,.22.84,2.37,2.37,0,0,1-.39,1.38,3.37,3.37,0,0,1-1.34,1,16.39,16.39,0,0,1-4.13,1.2,28.87,28.87,0,0,1-5,.45,18.1,18.1,0,0,1-5.7-.77,7.34,7.34,0,0,1-3.42-2.12,4.65,4.65,0,0,1-1.12-3.05,5.65,5.65,0,0,1,1.5-4,8.68,8.68,0,0,1,4.41-2.36,4.43,4.43,0,0,1-2.44-1.62,4.28,4.28,0,0,1-.85-2.59,5.27,5.27,0,0,1,1.23-3.44,7.86,7.86,0,0,1,3.31-2.31,12.46,12.46,0,0,1,4.56-.81,7.52,7.52,0,0,1,5,1.45,4.71,4.71,0,0,1,1.67,3.74,5,5,0,0,1-.58,2.58,1.83,1.83,0,0,1-1.66,1,1.88,1.88,0,0,1-1.19-.34,1.2,1.2,0,0,1-.43-1,4.13,4.13,0,0,1,.13-1,9.91,9.91,0,0,0,.14-1.21,2,2,0,0,0-.73-1.58,3.81,3.81,0,0,0-2.43-.61,6.24,6.24,0,0,0-3.67,1,3,3,0,0,0-1.38,2.62,2.56,2.56,0,0,0,1,2.09,5.83,5.83,0,0,0,3.39.91,1.24,1.24,0,0,1,.84.27,1.12,1.12,0,0,1,.24.81q0,1.78-1.62,1.81a11.19,11.19,0,0,0-3.71.62,4.71,4.71,0,0,0-2.13,1.44,3.06,3.06,0,0,0-.66,1.88A2.72,2.72,0,0,0,102,224a10.92,10.92,0,0,0,5,.85,23,23,0,0,0,4.74-.53,23.39,23.39,0,0,0,4.28-1.28A1.89,1.89,0,0,1,116.62,222.91Z" transform="translate(-60 -58)"/><path class="cls-6" d="M115.85,227a10.34,10.34,0,0,1-.42-3.46,22,22,0,0,1,1-6.67,2,2,0,0,1,.8-1.15,2.81,2.81,0,0,1,1.55-.36,1.53,1.53,0,0,1,.76.13.56.56,0,0,1,.22.51,10.28,10.28,0,0,1-.4,1.94q-.27,1.08-.43,1.89a19.33,19.33,0,0,0-.27,2,15.35,15.35,0,0,1,2-3.78,7.84,7.84,0,0,1,2.17-2.08,4,4,0,0,1,2-.62,1.55,1.55,0,0,1,1.75,1.75,21.75,21.75,0,0,1-.59,3.81,18.7,18.7,0,0,0-.51,3.1q0,1.08.78,1.08a2.11,2.11,0,0,0,1.28-.66,21.8,21.8,0,0,0,2-2.15,1,1,0,0,1,.73-.38.62.62,0,0,1,.55.32,1.67,1.67,0,0,1,.2.89,2.48,2.48,0,0,1-.51,1.67,11.92,11.92,0,0,1-2.5,2.35,5.23,5.23,0,0,1-3,.92,2.62,2.62,0,0,1-2.08-.8,3.39,3.39,0,0,1-.7-2.31,16.86,16.86,0,0,1,.38-2.7,14,14,0,0,0,.35-2.35q0-.43-.3-.43t-1,.9a14.52,14.52,0,0,0-1.3,2.39,18.61,18.61,0,0,0-1.07,3.13,4.21,4.21,0,0,1-.69,1.71,1.55,1.55,0,0,1-1.23.45A1.47,1.47,0,0,1,115.85,227Z" transform="translate(-60 -58)"/><path class="cls-6" d="M131.65,228.06a1.91,1.91,0,0,1-.74-1.46,1.66,1.66,0,0,1,.51-1.21,2.05,2.05,0,0,1,1.51-.51,6,6,0,0,1,.82.07l.72.09a3.48,3.48,0,0,0-.31-1.32,6.63,6.63,0,0,0-.72-1.2q-.43-.58-.81-1a17.69,17.69,0,0,1-1.66,2.65,19.79,19.79,0,0,1-1.8,2,1.45,1.45,0,0,1-1,.49.89.89,0,0,1-.7-.31,1.13,1.13,0,0,1-.27-.77,1.54,1.54,0,0,1,.38-1l.35-.43a34.87,34.87,0,0,0,2.24-3q.46-.78,1.08-2.09t1.21-2.71a2.08,2.08,0,0,1,2.13-1.19,2.84,2.84,0,0,1,1.05.13.45.45,0,0,1,.3.43,2,2,0,0,1-.11.51,3.89,3.89,0,0,1-.3.7,3.85,3.85,0,0,0-.49,1.65,1.8,1.8,0,0,0,.28.89,10.21,10.21,0,0,0,.88,1.21,17.13,17.13,0,0,1,1.31,1.93,3.5,3.5,0,0,1,.45,1.74,7.3,7.3,0,0,1-.05.76,8.61,8.61,0,0,0,3.1-2.73,1,1,0,0,1,.73-.38.63.63,0,0,1,.55.32,1.68,1.68,0,0,1,.2.89,2.62,2.62,0,0,1-.51,1.67,8.24,8.24,0,0,1-2.58,2.28,7.3,7.3,0,0,1-3,.66,3.83,3.83,0,0,1-2.56.92A3.17,3.17,0,0,1,131.65,228.06Z" transform="translate(-60 -58)"/><path class="cls-6" d="M140.95,226.9a4.85,4.85,0,0,1-1-3.19,8.78,8.78,0,0,1,1-4.09,8.53,8.53,0,0,1,2.66-3.11,6,6,0,0,1,3.52-1.17,1.05,1.05,0,0,1,.8.23,1.94,1.94,0,0,1,.34.82,6.4,6.4,0,0,1,1.19-.11q1.32,0,1.32.95a20.36,20.36,0,0,1-.41,2.7,26.2,26.2,0,0,0-.62,4.32,1,1,0,0,0,.2.65.65.65,0,0,0,.53.24,2.05,2.05,0,0,0,1.24-.66,23.34,23.34,0,0,0,2-2.15,1,1,0,0,1,.73-.38.63.63,0,0,1,.55.32,1.68,1.68,0,0,1,.2.89,2.48,2.48,0,0,1-.51,1.67,13.61,13.61,0,0,1-2.35,2.32,4,4,0,0,1-2.4.94,2.52,2.52,0,0,1-1.63-.61,3.7,3.7,0,0,1-1.12-1.66,4.1,4.1,0,0,1-3.54,2.27A3.28,3.28,0,0,1,140.95,226.9Zm4.78-2.21a4.55,4.55,0,0,0,.78-1.86l1-5a3.28,3.28,0,0,0-2.09.85,5.73,5.73,0,0,0-1.53,2.17,7.31,7.31,0,0,0-.57,2.86,1.91,1.91,0,0,0,.34,1.24,1.14,1.14,0,0,0,.93.41A1.48,1.48,0,0,0,145.73,224.69Z" transform="translate(-60 -58)"/><path class="cls-6" d="M163.77,222.29a1.67,1.67,0,0,1,.2.89,2.49,2.49,0,0,1-.51,1.67,11.62,11.62,0,0,1-2.53,2.35,5.41,5.41,0,0,1-3.09.92,3.75,3.75,0,0,1-3.52-2.16,11.87,11.87,0,0,1-1.15-5.59,38.37,38.37,0,0,1,.85-7.51,25.45,25.45,0,0,1,2.51-7.24q1.66-3,4-3a2.29,2.29,0,0,1,2,1.2,6.6,6.6,0,0,1,.74,3.44,19.65,19.65,0,0,1-1.78,7.45,41.25,41.25,0,0,1-4.83,8.4,3.13,3.13,0,0,0,.62,1.58,1.46,1.46,0,0,0,1.13.47,3.13,3.13,0,0,0,1.94-.63,14.86,14.86,0,0,0,2.13-2.17,1,1,0,0,1,.73-.38A.62.62,0,0,1,163.77,222.29Zm-5.28-14.77a36.72,36.72,0,0,0-1.38,5.56,40.23,40.23,0,0,0-.65,6.37,34.8,34.8,0,0,0,3.05-6.33,17.36,17.36,0,0,0,1.13-5.79q0-2.05-.76-2.05T158.5,207.52Z" transform="translate(-60 -58)"/><path class="cls-6" d="M162.17,226.9a4.85,4.85,0,0,1-1-3.19,8.78,8.78,0,0,1,1-4.09,8.52,8.52,0,0,1,2.66-3.11,6,6,0,0,1,3.52-1.17,1.05,1.05,0,0,1,.8.23,1.94,1.94,0,0,1,.34.82,6.4,6.4,0,0,1,1.19-.11q1.32,0,1.32.95a20.36,20.36,0,0,1-.41,2.7,26.2,26.2,0,0,0-.62,4.32,1,1,0,0,0,.2.65.65.65,0,0,0,.53.24,2.05,2.05,0,0,0,1.24-.66,23.34,23.34,0,0,0,2-2.15,1,1,0,0,1,.73-.38.63.63,0,0,1,.55.32,1.68,1.68,0,0,1,.2.89,2.48,2.48,0,0,1-.51,1.67,13.61,13.61,0,0,1-2.35,2.32,4,4,0,0,1-2.4.94,2.52,2.52,0,0,1-1.63-.61,3.7,3.7,0,0,1-1.12-1.66,4.1,4.1,0,0,1-3.54,2.27A3.28,3.28,0,0,1,162.17,226.9Zm4.78-2.21a4.55,4.55,0,0,0,.78-1.86l1-5a3.28,3.28,0,0,0-2.09.85,5.73,5.73,0,0,0-1.53,2.17,7.31,7.31,0,0,0-.57,2.86,1.91,1.91,0,0,0,.34,1.24,1.15,1.15,0,0,0,.93.41A1.48,1.48,0,0,0,166.95,224.69Z" transform="translate(-60 -58)"/><path class="cls-6" d="M190.1,222.29a1.68,1.68,0,0,1,.2.89,2.48,2.48,0,0,1-.51,1.67,13,13,0,0,1-2.43,2.31,4.46,4.46,0,0,1-2.62,1q-2.05,0-3.13-2.4a7.77,7.77,0,0,1-2,1.92,3.94,3.94,0,0,1-2,.49,3.43,3.43,0,0,1-2.71-1.23,4.7,4.7,0,0,1-1.07-3.2,8.89,8.89,0,0,1,.92-4,8.18,8.18,0,0,1,2.52-3,7.34,7.34,0,0,1,3.6-1.39,34,34,0,0,1,2-9q1.44-3.71,3.79-3.71a2.31,2.31,0,0,1,1.93,1.05,5.4,5.4,0,0,1,.77,3.19,21,21,0,0,1-1.49,7.07,52.62,52.62,0,0,1-4,8.32,5.88,5.88,0,0,0,.47,2.24,1.07,1.07,0,0,0,.93.67,2.31,2.31,0,0,0,1.49-.65,19.73,19.73,0,0,0,2-2.16,1,1,0,0,1,.73-.38A.63.63,0,0,1,190.1,222.29ZM179.61,225a7.89,7.89,0,0,0,1.3-1.55,18,18,0,0,1-.27-3.27q0-.65.05-2.11a4.52,4.52,0,0,0-2.47,2,6.11,6.11,0,0,0-1,3.39q0,2,1.35,2A1.63,1.63,0,0,0,179.61,225Zm5.72-17.9a33.21,33.21,0,0,0-.88,4.76q-.36,2.94-.53,6.16,3-6.59,3-10.58a5.63,5.63,0,0,0-.18-1.59c-.12-.38-.26-.57-.42-.57Q185.85,205.25,185.33,207.07Z" transform="translate(-60 -58)"/><path class="cls-6" d="M188.49,226.9a4.85,4.85,0,0,1-1-3.19,8.78,8.78,0,0,1,1-4.09,8.52,8.52,0,0,1,2.66-3.11,6,6,0,0,1,3.52-1.17,1.05,1.05,0,0,1,.8.23,1.94,1.94,0,0,1,.34.82,6.4,6.4,0,0,1,1.19-.11q1.32,0,1.32.95a20.36,20.36,0,0,1-.41,2.7,26.2,26.2,0,0,0-.62,4.32,1,1,0,0,0,.2.65.65.65,0,0,0,.53.24,2.05,2.05,0,0,0,1.24-.66,23.34,23.34,0,0,0,2-2.15A1,1,0,0,1,202,222a.63.63,0,0,1,.55.32,1.68,1.68,0,0,1,.2.89,2.48,2.48,0,0,1-.51,1.67,13.61,13.61,0,0,1-2.35,2.32,4,4,0,0,1-2.4.94,2.52,2.52,0,0,1-1.63-.61,3.7,3.7,0,0,1-1.12-1.66,4.1,4.1,0,0,1-3.54,2.27A3.28,3.28,0,0,1,188.49,226.9Zm4.78-2.21a4.55,4.55,0,0,0,.78-1.86l1-5a3.28,3.28,0,0,0-2.09.85,5.73,5.73,0,0,0-1.53,2.17,7.31,7.31,0,0,0-.57,2.86,1.91,1.91,0,0,0,.34,1.24,1.15,1.15,0,0,0,.93.41A1.48,1.48,0,0,0,193.27,224.69Z" transform="translate(-60 -58)"/><path class="cls-6" d="M203.41,228.06a1.9,1.9,0,0,1-.74-1.46,1.66,1.66,0,0,1,.51-1.21,2.05,2.05,0,0,1,1.51-.51,6,6,0,0,1,.82.07l.72.09a3.49,3.49,0,0,0-.31-1.32,6.66,6.66,0,0,0-.72-1.2q-.43-.58-.81-1a17.69,17.69,0,0,1-1.66,2.65,19.79,19.79,0,0,1-1.79,2,1.45,1.45,0,0,1-1,.49.89.89,0,0,1-.7-.31,1.13,1.13,0,0,1-.27-.77,1.54,1.54,0,0,1,.38-1l.35-.43a34.79,34.79,0,0,0,2.24-3,17.48,17.48,0,0,0,1-1.86q.5-1.08,1.31-2.94a2.08,2.08,0,0,1,2.13-1.19,2.84,2.84,0,0,1,1.05.13.45.45,0,0,1,.3.43,2,2,0,0,1-.11.51,3.92,3.92,0,0,1-.3.7,3.85,3.85,0,0,0-.49,1.65,1.8,1.8,0,0,0,.28.89,10.18,10.18,0,0,0,.88,1.21,17.08,17.08,0,0,1,1.31,1.93,3.51,3.51,0,0,1,.45,1.74,4.58,4.58,0,0,1-.53,2.15,4.29,4.29,0,0,1-1.47,1.63,3.85,3.85,0,0,1-2.16.62A3.17,3.17,0,0,1,203.41,228.06Z" transform="translate(-60 -58)"/><path class="cls-6" d="M87.5,220h-18a1.5,1.5,0,0,1,0-3h18a1.5,1.5,0,0,1,0,3Z" transform="translate(-60 -58)"/><path class="cls-6" d="M233.5,220h-18a1.5,1.5,0,0,1,0-3h18a1.5,1.5,0,0,1,0,3Z" transform="translate(-60 -58)"/></svg>