<svg id="Capa_1" data-name="Capa 1" xmlns="http://www.w3.org/2000/svg" viewBox="0 0 180 184"><defs><style>.cls-1{fill:#e9f1df;}.cls-2{fill:#11393b;}.cls-3{fill:#174c4f;}.cls-4{fill:#d8b555;}.cls-5{fill:#aa804f;}.cls-6{fill:#d1a26a;}.cls-7{fill:#b68421;}.cls-8{fill:#abdaf4;}.cls-9{fill:#4cb1cc;}.cls-10{fill:#94d2ed;}.cls-11{fill:#68bfdd;}.cls-12{fill:#b8e9ff;}.cls-13{fill:#b6e9ff;}.cls-14{fill:#626868;}.cls-15{fill:#ffbc00;}.cls-16{fill:#7f7f7f;}.cls-17{fill:#fff;}</style></defs><title>c09</title><path class="cls-1" d="M232.16,238H67.49A7.49,7.49,0,0,1,60,230.51V70A12,12,0,0,1,72,58H227.65a12,12,0,0,1,12,12V230.51A7.49,7.49,0,0,1,232.16,238Z" transform="translate(-60 -58)"/><path class="cls-2" d="M0,141H180a0,0,0,0,1,0,0v35.51a7.49,7.49,0,0,1-7.49,7.49H7.49A7.49,7.49,0,0,1,0,176.51V141a0,0,0,0,1,0,0Z"/><path class="cls-3" d="M0,138H180a0,0,0,0,1,0,0v35.51a7.49,7.49,0,0,1-7.49,7.49H7.49A7.49,7.49,0,0,1,0,173.51V138a0,0,0,0,1,0,0Z"/><path class="cls-4" d="M188.87,124.27a14.7,14.7,0,0,0-12.69-18.36,14.7,14.7,0,0,0-21.07-9.34,17,17,0,0,0-26.54,0,14.7,14.7,0,0,0-21.07,9.34,14.7,14.7,0,0,0-12.69,18.36Z" transform="translate(-60 -58)"/><circle class="cls-5" cx="41.73" cy="56.16" r="2.45"/><circle class="cls-6" cx="54.7" cy="55.86" r="3.8"/><circle class="cls-6" cx="91.05" cy="50.28" r="2.75"/><circle class="cls-6" cx="113.69" cy="55.87" r="1.47"/><circle class="cls-6" cx="122.4" cy="102.36" r="2.35" transform="translate(-43.23 163.95) rotate(-88.45)"/><circle class="cls-6" cx="144.26" cy="102.36" r="2.35" transform="translate(-21.96 185.8) rotate(-88.45)"/><circle class="cls-6" cx="162.27" cy="110.4" r="3.7" transform="translate(-12.49 211.63) rotate(-88.45)"/><circle class="cls-5" cx="54.7" cy="51.16" r="3.85"/><circle class="cls-5" cx="104.79" cy="47.12" r="3.85"/><circle class="cls-7" cx="72.94" cy="49.13" r="2.02"/><circle class="cls-5" cx="82.24" cy="37.94" r="2.02"/><circle class="cls-7" cx="86.28" cy="55.73" r="2.02"/><path class="cls-8" d="M188.91,137H94.78c-8.66,0-8.84-13.9,0-13.9h94.13C197.74,123.12,197.57,137,188.91,137Z" transform="translate(-60 -58)"/><rect class="cls-9" x="65.33" y="110.85" width="34.36" height="9.15"/><path class="cls-10" d="M98.12,137c1,7,6.16,31.83,27.21,31.83h16.95V137Z" transform="translate(-60 -58)"/><path class="cls-11" d="M186.44,137c-1,7-6.16,31.83-27.21,31.83h-17V137Z" transform="translate(-60 -58)"/><path class="cls-12" d="M112.89,134.89s-.18,23.78,18.66,23.78V134.89H112.89Z" transform="translate(-60 -58)"/><rect class="cls-13" x="43.99" y="65.12" width="27.56" height="13.9"/><path class="cls-14" d="M216.73,157.94l-3.81,2.61-13.09-19.12c-.57-.84-2.31-2.7-1.07-3.55l2.88-2Z" transform="translate(-60 -58)"/><path class="cls-15" d="M211.38,149.4l-4.49,3.07a.63.63,0,0,0-.16.87l15.87,23.18c2.5,3.65,8-.18,5.53-3.78l-15.87-23.18A.63.63,0,0,0,211.38,149.4Z" transform="translate(-60 -58)"/><path class="cls-16" d="M188.91,123.48l12.71,18.57c4.13-2.83,4.64-9.28,1.13-14.41S193,120.65,188.91,123.48Z" transform="translate(-60 -58)"/><path class="cls-17" d="M108.2,226.94a8.45,8.45,0,0,1-3.65-3.33,9.73,9.73,0,0,1-1.27-5,15.91,15.91,0,0,1,1.5-7,11.65,11.65,0,0,1,4.06-4.77,10.15,10.15,0,0,1,5.7-1.69,6,6,0,0,1,4.43,1.5,5.32,5.32,0,0,1,1.51,4,5.25,5.25,0,0,1-.58,2.65,2,2,0,0,1-2.85.65,1.24,1.24,0,0,1-.43-1,6.57,6.57,0,0,1,.11-.89,6.93,6.93,0,0,0,.16-1.3q0-2.46-2.62-2.46a5.76,5.76,0,0,0-3.4,1.16,8.12,8.12,0,0,0-2.62,3.42,13.15,13.15,0,0,0-1,5.36,6.69,6.69,0,0,0,1.81,5,7.35,7.35,0,0,0,5.35,1.77,14.71,14.71,0,0,0,3.55-.45,27.55,27.55,0,0,0,4-1.36,1.89,1.89,0,0,1,.68-.16.73.73,0,0,1,.65.32,1.48,1.48,0,0,1,.22.84,2.57,2.57,0,0,1-1.78,2.43,18.52,18.52,0,0,1-4,1.23,21.14,21.14,0,0,1-3.93.39A12.48,12.48,0,0,1,108.2,226.94Z" transform="translate(-60 -58)"/><path class="cls-17" d="M133.71,222.29a1.68,1.68,0,0,1,.2.89,2.48,2.48,0,0,1-.51,1.67,9.88,9.88,0,0,1-2.82,2.24,7.83,7.83,0,0,1-3.9,1,6,6,0,0,1-4.4-1.54,5.63,5.63,0,0,1-1.57-4.21,7.81,7.81,0,0,1,.78-3.47,6.41,6.41,0,0,1,2.17-2.55,5.47,5.47,0,0,1,3.15-.95,3.42,3.42,0,0,1,2.51.93,3.39,3.39,0,0,1,.95,2.52,4.36,4.36,0,0,1-1.34,3.2,9.66,9.66,0,0,1-4.52,2.12,2.65,2.65,0,0,0,2.56,1.24,5.91,5.91,0,0,0,2.77-.85,9.14,9.14,0,0,0,2.69-2.23,1,1,0,0,1,.73-.38A.63.63,0,0,1,133.71,222.29Zm-9-3.08A5.42,5.42,0,0,0,124,222v.05a6.14,6.14,0,0,0,2.51-1.13,2.23,2.23,0,0,0,.92-1.75,1.18,1.18,0,0,0-.28-.82,1,1,0,0,0-.77-.31A2,2,0,0,0,124.66,219.21Z" transform="translate(-60 -58)"/><path class="cls-17" d="M132.19,227a10.34,10.34,0,0,1-.42-3.46,22,22,0,0,1,1-6.67,2,2,0,0,1,.8-1.15,2.81,2.81,0,0,1,1.55-.36,1.53,1.53,0,0,1,.76.13.56.56,0,0,1,.22.51,10.28,10.28,0,0,1-.4,1.94q-.27,1.08-.43,1.89a19.33,19.33,0,0,0-.27,2,15.35,15.35,0,0,1,2-3.78,7.84,7.84,0,0,1,2.17-2.08,4,4,0,0,1,2-.62,1.55,1.55,0,0,1,1.75,1.75,13.49,13.49,0,0,1-.24,1.7,9.88,9.88,0,0,0-.22,1.35q0,.95.68.95A3.24,3.24,0,0,0,145,220a1,1,0,0,1,.73-.35.63.63,0,0,1,.55.31,1.49,1.49,0,0,1,.2.82,2.18,2.18,0,0,1-.54,1.57,7.28,7.28,0,0,1-1.77,1.34,4.41,4.41,0,0,1-2.15.55,3,3,0,0,1-2.17-.73,2.64,2.64,0,0,1-.74-2,4.15,4.15,0,0,1,.08-.81q.05-.54.05-.73,0-.43-.3-.43t-1.07.9a12.72,12.72,0,0,0-1.31,2.39,19.4,19.4,0,0,0-1.05,3.13,4.21,4.21,0,0,1-.69,1.71,1.55,1.55,0,0,1-1.23.45A1.47,1.47,0,0,1,132.19,227Z" transform="translate(-60 -58)"/><path class="cls-17" d="M156.6,222.29a1.68,1.68,0,0,1,.2.89,2.48,2.48,0,0,1-.51,1.67,9.89,9.89,0,0,1-2.82,2.24,7.83,7.83,0,0,1-3.9,1,6,6,0,0,1-4.4-1.54,5.63,5.63,0,0,1-1.57-4.21,7.81,7.81,0,0,1,.78-3.47,6.41,6.41,0,0,1,2.17-2.55,5.47,5.47,0,0,1,3.15-.95,3.42,3.42,0,0,1,2.51.93,3.38,3.38,0,0,1,.95,2.52,4.36,4.36,0,0,1-1.34,3.2,9.66,9.66,0,0,1-4.52,2.12,2.65,2.65,0,0,0,2.57,1.24,5.91,5.91,0,0,0,2.77-.85,9.16,9.16,0,0,0,2.69-2.23A1,1,0,0,1,156,222,.63.63,0,0,1,156.6,222.29Zm-9-3.08a5.42,5.42,0,0,0-.69,2.81v.05a6.14,6.14,0,0,0,2.51-1.13,2.23,2.23,0,0,0,.92-1.75,1.18,1.18,0,0,0-.28-.82,1,1,0,0,0-.77-.31A2,2,0,0,0,147.56,219.21Z" transform="translate(-60 -58)"/><path class="cls-17" d="M155.13,226.9a4.85,4.85,0,0,1-1-3.19,8.78,8.78,0,0,1,1-4.09,8.52,8.52,0,0,1,2.66-3.11,6,6,0,0,1,3.52-1.17,1.05,1.05,0,0,1,.8.23,1.94,1.94,0,0,1,.34.82,6.4,6.4,0,0,1,1.19-.11q1.32,0,1.32.95a20.36,20.36,0,0,1-.41,2.7,26.2,26.2,0,0,0-.62,4.32,1,1,0,0,0,.2.65.65.65,0,0,0,.53.24,2.05,2.05,0,0,0,1.24-.66,23.34,23.34,0,0,0,2-2.15,1,1,0,0,1,.73-.38.63.63,0,0,1,.55.32,1.68,1.68,0,0,1,.2.89,2.48,2.48,0,0,1-.51,1.67,13.61,13.61,0,0,1-2.35,2.32,4,4,0,0,1-2.4.94,2.52,2.52,0,0,1-1.63-.61,3.7,3.7,0,0,1-1.12-1.66,4.1,4.1,0,0,1-3.54,2.27A3.28,3.28,0,0,1,155.13,226.9Zm4.78-2.21a4.55,4.55,0,0,0,.78-1.86l1-5a3.28,3.28,0,0,0-2.09.85,5.73,5.73,0,0,0-1.53,2.17,7.31,7.31,0,0,0-.57,2.86,1.91,1.91,0,0,0,.34,1.24,1.15,1.15,0,0,0,.93.41A1.48,1.48,0,0,0,159.91,224.69Z" transform="translate(-60 -58)"/><path class="cls-17" d="M178,222.29a1.67,1.67,0,0,1,.2.89,2.49,2.49,0,0,1-.51,1.67,11.62,11.62,0,0,1-2.53,2.35,5.41,5.41,0,0,1-3.09.92,3.75,3.75,0,0,1-3.52-2.16,11.87,11.87,0,0,1-1.15-5.59,38.37,38.37,0,0,1,.85-7.51,25.45,25.45,0,0,1,2.51-7.24q1.66-3,4-3a2.29,2.29,0,0,1,2,1.2,6.6,6.6,0,0,1,.74,3.44,19.65,19.65,0,0,1-1.78,7.45,41.25,41.25,0,0,1-4.83,8.4,3.13,3.13,0,0,0,.62,1.58,1.46,1.46,0,0,0,1.13.47,3.13,3.13,0,0,0,1.94-.63,14.86,14.86,0,0,0,2.13-2.17,1,1,0,0,1,.73-.38A.62.62,0,0,1,178,222.29Zm-5.28-14.77a36.72,36.72,0,0,0-1.38,5.56,40.23,40.23,0,0,0-.65,6.37,34.8,34.8,0,0,0,3.05-6.33,17.36,17.36,0,0,0,1.13-5.79q0-2.05-.76-2.05T172.68,207.52Z" transform="translate(-60 -58)"/><path class="cls-17" d="M188.57,222.29a1.68,1.68,0,0,1,.2.89,2.48,2.48,0,0,1-.51,1.67,9.88,9.88,0,0,1-2.82,2.24,7.83,7.83,0,0,1-3.9,1,6,6,0,0,1-4.4-1.54,5.63,5.63,0,0,1-1.57-4.21,7.81,7.81,0,0,1,.78-3.47,6.41,6.41,0,0,1,2.17-2.55,5.46,5.46,0,0,1,3.15-.95,3.42,3.42,0,0,1,2.51.93,3.39,3.39,0,0,1,.95,2.52,4.36,4.36,0,0,1-1.34,3.2,9.66,9.66,0,0,1-4.52,2.12,2.65,2.65,0,0,0,2.57,1.24,5.91,5.91,0,0,0,2.77-.85,9.17,9.17,0,0,0,2.69-2.23A1,1,0,0,1,188,222,.63.63,0,0,1,188.57,222.29Zm-9-3.08a5.42,5.42,0,0,0-.69,2.81v.05a6.14,6.14,0,0,0,2.51-1.13,2.23,2.23,0,0,0,.92-1.75,1.18,1.18,0,0,0-.28-.82,1,1,0,0,0-.77-.31A2,2,0,0,0,179.52,219.21Z" transform="translate(-60 -58)"/><path class="cls-17" d="M189.46,228.06a1.9,1.9,0,0,1-.74-1.46,1.66,1.66,0,0,1,.51-1.21,2.05,2.05,0,0,1,1.51-.51,6,6,0,0,1,.82.07l.72.09a3.49,3.49,0,0,0-.31-1.32,6.66,6.66,0,0,0-.72-1.2q-.43-.58-.81-1a17.69,17.69,0,0,1-1.66,2.65,19.79,19.79,0,0,1-1.79,2,1.45,1.45,0,0,1-1,.49.89.89,0,0,1-.7-.31,1.13,1.13,0,0,1-.27-.77,1.54,1.54,0,0,1,.38-1l.35-.43a34.79,34.79,0,0,0,2.24-3,17.48,17.48,0,0,0,1-1.86q.5-1.08,1.31-2.94a2.08,2.08,0,0,1,2.13-1.19,2.84,2.84,0,0,1,1.05.13.45.45,0,0,1,.3.43,2,2,0,0,1-.11.51,3.92,3.92,0,0,1-.3.7,3.85,3.85,0,0,0-.49,1.65,1.8,1.8,0,0,0,.28.89,10.18,10.18,0,0,0,.88,1.21,17.08,17.08,0,0,1,1.31,1.93,3.51,3.51,0,0,1,.45,1.74,4.58,4.58,0,0,1-.53,2.15,4.29,4.29,0,0,1-1.47,1.63,3.85,3.85,0,0,1-2.16.62A3.17,3.17,0,0,1,189.46,228.06Z" transform="translate(-60 -58)"/><path class="cls-17" d="M91.5,220h-18a1.5,1.5,0,0,1,0-3h18a1.5,1.5,0,0,1,0,3Z" transform="translate(-60 -58)"/><path class="cls-17" d="M230.5,220h-18a1.5,1.5,0,0,1,0-3h18a1.5,1.5,0,0,1,0,3Z" transform="translate(-60 -58)"/></svg>