<svg id="Capa_1" data-name="Capa 1" xmlns="http://www.w3.org/2000/svg" viewBox="0 0 180 184"><defs><style>.cls-1{fill:#e9f1df;}.cls-2{fill:#11393b;}.cls-3{fill:#174c4f;}.cls-4{font-size:27px;fill:#fff;font-family:Pacifico-Regular, Pacifico;}.cls-5{letter-spacing:-0.01em;}.cls-6{letter-spacing:0em;}.cls-7{fill:none;stroke:#fff;stroke-linecap:round;stroke-miterlimit:10;stroke-width:3px;}.cls-8{fill:#d8b555;}.cls-9{fill:#aa804f;}.cls-10{fill:#d1a26a;}.cls-11{fill:#b68421;}.cls-12{fill:#abdaf4;}.cls-13{fill:#4cb1cc;}.cls-14{fill:#94d2ed;}.cls-15{fill:#68bfdd;}.cls-16{fill:#b8e9ff;}.cls-17{fill:#b6e9ff;}.cls-18{fill:#626868;}.cls-19{fill:#ffbc00;}.cls-20{fill:#7f7f7f;}</style></defs><title>c09</title><path class="cls-1" d="M232.16,238H67.49A7.49,7.49,0,0,1,60,230.51V70A12,12,0,0,1,72,58H227.65a12,12,0,0,1,12,12V230.51A7.49,7.49,0,0,1,232.16,238Z" transform="translate(-60 -58)"/><path class="cls-2" d="M0,141H180a0,0,0,0,1,0,0v35.51a7.49,7.49,0,0,1-7.49,7.49H7.49A7.49,7.49,0,0,1,0,176.51V141a0,0,0,0,1,0,0Z"/><path class="cls-3" d="M0,138H180a0,0,0,0,1,0,0v35.51a7.49,7.49,0,0,1-7.49,7.49H7.49A7.49,7.49,0,0,1,0,173.51V138a0,0,0,0,1,0,0Z"/><text class="cls-4" transform="translate(41.56 169.98)"><tspan class="cls-5">C</tspan><tspan x="18.25" y="0">er</tspan><tspan class="cls-6" x="41.15" y="0">e</tspan><tspan x="51.62" y="0">ales</tspan></text><line class="cls-7" x1="31.5" y1="160.5" x2="13.5" y2="160.5"/><line class="cls-7" x1="170.5" y1="160.5" x2="152.5" y2="160.5"/><path class="cls-8" d="M188.87,124.27a14.7,14.7,0,0,0-12.69-18.36,14.7,14.7,0,0,0-21.07-9.34,17,17,0,0,0-26.54,0,14.7,14.7,0,0,0-21.07,9.34,14.7,14.7,0,0,0-12.69,18.36Z" transform="translate(-60 -58)"/><circle class="cls-9" cx="41.73" cy="56.16" r="2.45"/><circle class="cls-10" cx="54.7" cy="55.86" r="3.8"/><circle class="cls-10" cx="91.05" cy="50.28" r="2.75"/><circle class="cls-10" cx="113.69" cy="55.87" r="1.47"/><circle class="cls-10" cx="122.4" cy="102.36" r="2.35" transform="translate(-43.23 163.95) rotate(-88.45)"/><circle class="cls-10" cx="144.26" cy="102.36" r="2.35" transform="translate(-21.96 185.8) rotate(-88.45)"/><circle class="cls-10" cx="162.27" cy="110.4" r="3.7" transform="translate(-12.49 211.63) rotate(-88.45)"/><circle class="cls-9" cx="54.7" cy="51.16" r="3.85"/><circle class="cls-9" cx="104.79" cy="47.12" r="3.85"/><circle class="cls-11" cx="72.94" cy="49.13" r="2.02"/><circle class="cls-9" cx="82.24" cy="37.94" r="2.02"/><circle class="cls-11" cx="86.28" cy="55.73" r="2.02"/><path class="cls-12" d="M188.91,137H94.78c-8.66,0-8.84-13.9,0-13.9h94.13C197.74,123.12,197.57,137,188.91,137Z" transform="translate(-60 -58)"/><rect class="cls-13" x="65.33" y="110.85" width="34.36" height="9.15"/><path class="cls-14" d="M98.12,137c1,7,6.16,31.83,27.21,31.83h16.95V137Z" transform="translate(-60 -58)"/><path class="cls-15" d="M186.44,137c-1,7-6.16,31.83-27.21,31.83h-17V137Z" transform="translate(-60 -58)"/><path class="cls-16" d="M112.89,134.89s-.18,23.78,18.66,23.78V134.89H112.89Z" transform="translate(-60 -58)"/><rect class="cls-17" x="43.99" y="65.12" width="27.56" height="13.9"/><path class="cls-18" d="M216.73,157.94l-3.81,2.61-13.09-19.12c-.57-.84-2.31-2.7-1.07-3.55l2.88-2Z" transform="translate(-60 -58)"/><path class="cls-19" d="M211.38,149.4l-4.49,3.07a.63.63,0,0,0-.16.87l15.87,23.18c2.5,3.65,8-.18,5.53-3.78l-15.87-23.18A.63.63,0,0,0,211.38,149.4Z" transform="translate(-60 -58)"/><path class="cls-20" d="M188.91,123.48l12.71,18.57c4.13-2.83,4.64-9.28,1.13-14.41S193,120.65,188.91,123.48Z" transform="translate(-60 -58)"/></svg>