<svg id="Capa_1" data-name="Capa 1" xmlns="http://www.w3.org/2000/svg" viewBox="0 0 361.96 370"><defs><style>.cls-1{fill:#11393b;}.cls-2{fill:#e9f1df;}.cls-3{fill:#174c4f;}.cls-4{fill:#fff;}.cls-5{fill:#2e3192;}.cls-6{fill:#db2209;}.cls-7{fill:#f78107;}.cls-8{fill:#fff68a;}.cls-9{fill:#ffbd03;}.cls-10{fill:#d4ef2c;}.cls-11{fill:#eef779;}.cls-12{fill:#ffff8a;}.cls-13{fill:#ffd236;}.cls-14{fill:#90bae0;}.cls-15{fill:#599fd3;}.cls-16{fill:#f28a2e;}</style></defs><title>poy</title><path class="cls-1" d="M0,283.53H362a0,0,0,0,1,0,0v79a7.49,7.49,0,0,1-7.49,7.49H7.49A7.49,7.49,0,0,1,0,362.51v-79a0,0,0,0,1,0,0Z"/><path class="cls-2" d="M359.19,379H28.05A15.05,15.05,0,0,1,13,363.9V41.13A24.2,24.2,0,0,1,37.13,17h313a24.2,24.2,0,0,1,24.13,24.13V363.9A15.05,15.05,0,0,1,359.19,379Z" transform="translate(-13 -17)"/><path class="cls-3" d="M0,277.5H362a0,0,0,0,1,0,0v79a7.49,7.49,0,0,1-7.49,7.49H7.49A7.49,7.49,0,0,1,0,356.48v-79a0,0,0,0,1,0,0Z"/><path class="cls-4" d="M173.68,315.59a2.71,2.71,0,0,1-2.2.81q-.11,1.14-.49,4-.54,3.8-.6,4.24-4.83,36-20.14,36a9.45,9.45,0,0,1-7-2.55,8.74,8.74,0,0,1-2.52-6.41q0-6.89,5.86-12.19A46.43,46.43,0,0,1,162,330.69q.6-3.85.92-6.89l1-8.2q-3.26-.32-6.08-.33-7.55,0-11.13,1.47t-3.58,4.78a7.18,7.18,0,0,0,1.09,3.53,2.18,2.18,0,0,1,.33,1.14,2.56,2.56,0,0,1-1.17,2,4.07,4.07,0,0,1-2.52.9,3,3,0,0,1-2.66-1.46,11,11,0,0,1-1.52-5.81q0-13,22.8-13a48.89,48.89,0,0,1,11.84,1.3q3.09.76,3.09,3A3.75,3.75,0,0,1,173.68,315.59Zm-17.4,35.18q2.66-4,4.67-14.06-13.25,5.81-13.25,14.23a4.23,4.23,0,0,0,.87,2.85,3,3,0,0,0,2.39,1Q153.62,354.79,156.28,350.77Z" transform="translate(-13 -17)"/><path class="cls-4" d="M175.09,352.81a9.7,9.7,0,0,1-1.55-5.62,47.36,47.36,0,0,1,.54-7.46,46.72,46.72,0,0,1,1.79-7.2,4.54,4.54,0,0,1,1.52-2.33,5.36,5.36,0,0,1,3.09-.7,2.68,2.68,0,0,1,1.66.38,1.39,1.39,0,0,1,.46,1.14,22.42,22.42,0,0,1-.6,2.93q-.54,2-.87,3.64a51.24,51.24,0,0,0-1.09,7.6,3.38,3.38,0,0,0,.27,1.6.93.93,0,0,0,.87.46q.81,0,2-1.63a23.9,23.9,0,0,0,2.61-4.94,66.12,66.12,0,0,0,2.69-8.15,3.52,3.52,0,0,1,4-3,3.59,3.59,0,0,1,1.74.3,1.2,1.2,0,0,1,.49,1.11,52.63,52.63,0,0,1-1.36,7.44,60.09,60.09,0,0,0-1.52,8.58,2.59,2.59,0,0,0,.43,1.6,1.37,1.37,0,0,0,1.14.57,4.24,4.24,0,0,0,2.58-1.33,43.57,43.57,0,0,0,4-4.32,1.91,1.91,0,0,1,1.47-.76,1.26,1.26,0,0,1,1.11.65,3.38,3.38,0,0,1,.41,1.79,5,5,0,0,1-1,3.37,23.93,23.93,0,0,1-5,4.72,10.52,10.52,0,0,1-6.11,1.85,4.16,4.16,0,0,1-3.83-2,10.9,10.9,0,0,1-1.22-5.65,12.72,12.72,0,0,1-2.77,5.67,5.4,5.4,0,0,1-4,2A4.67,4.67,0,0,1,175.09,352.81Z" transform="translate(-13 -17)"/><path class="cls-4" d="M227.54,343.47a3.29,3.29,0,0,1,.41,1.71,4.19,4.19,0,0,1-.38,2,3.56,3.56,0,0,1-1.19,1.25q-4.67,3.15-6.84,4.67l-3.48,2.33q-2.06,11.24-5.4,17.67t-8.5,6.43a6.14,6.14,0,0,1-4.5-1.71,6,6,0,0,1-1.74-4.48,14.84,14.84,0,0,1,3-8.28q3-4.43,11.4-10.89l.33-2.12a6.56,6.56,0,0,1-5.38,3,6.6,6.6,0,0,1-5.37-2.44,9.76,9.76,0,0,1-2-6.41,17.65,17.65,0,0,1,2-8.23,17.16,17.16,0,0,1,5.35-6.24,12.07,12.07,0,0,1,7.09-2.36,2.11,2.11,0,0,1,1.6.46,3.91,3.91,0,0,1,.68,1.66,11.79,11.79,0,0,1,2.39-.22,3.43,3.43,0,0,1,1.93.41,1.86,1.86,0,0,1,.57,1.6,7.8,7.8,0,0,1-.05,1q-.22,1.68-1.36,8.52-.22,1.3-.46,2.85l-.51,3.29q4.18-3.26,8-5.76a2.47,2.47,0,0,1,1.25-.43A1.25,1.25,0,0,1,227.54,343.47ZM205.82,371a44.63,44.63,0,0,0,3.29-10.37,31.56,31.56,0,0,0-6,6.46,9.75,9.75,0,0,0-1.85,5.05,3,3,0,0,0,.35,1.52,1.25,1.25,0,0,0,1.17.6Q204.11,374.23,205.82,371Zm3.83-22.91a10.11,10.11,0,0,0,1.63-4.34l1.74-9.28a6.42,6.42,0,0,0-4.13,1.71,11.66,11.66,0,0,0-3,4.37,14.7,14.7,0,0,0-1.14,5.75,3.84,3.84,0,0,0,.68,2.5,2.3,2.3,0,0,0,1.87.81A3.11,3.11,0,0,0,209.65,348.06Z" transform="translate(-13 -17)"/><path class="cls-4" d="M228.35,353.46a10,10,0,0,1-3.39-4.21,13.8,13.8,0,0,1-1.14-5.59,16.84,16.84,0,0,1,1.55-7.36,12.49,12.49,0,0,1,4.21-5,10.33,10.33,0,0,1,6-1.82A9.31,9.31,0,0,1,241,331a9.89,9.89,0,0,1,3.42,4.21,13.82,13.82,0,0,1,1.14,5.59A16.6,16.6,0,0,1,244,348.2a12.59,12.59,0,0,1-4.26,5,10.37,10.37,0,0,1-5.95,1.82A9.17,9.17,0,0,1,228.35,353.46Zm9.18-6.27a11,11,0,0,0,1.28-5.86,7.71,7.71,0,0,0-1.09-4.5,3.15,3.15,0,0,0-2.6-1.52,3.76,3.76,0,0,0-3.23,2,11,11,0,0,0-1.28,5.89,7.68,7.68,0,0,0,1.09,4.56,3.27,3.27,0,0,0,2.71,1.46A3.68,3.68,0,0,0,237.53,347.19Z" transform="translate(-13 -17)"/><path class="cls-4" d="M254.74,355a3.83,3.83,0,0,1-1.49-2.93,3.33,3.33,0,0,1,1-2.44,4.12,4.12,0,0,1,3-1,12,12,0,0,1,1.65.14l1.44.19a7.1,7.1,0,0,0-.62-2.66,13.29,13.29,0,0,0-1.44-2.42q-.87-1.17-1.63-2a35.57,35.57,0,0,1-3.34,5.32,39.55,39.55,0,0,1-3.61,4,2.91,2.91,0,0,1-2.06,1,1.78,1.78,0,0,1-1.41-.62,2.28,2.28,0,0,1-.54-1.55,3.1,3.1,0,0,1,.76-2l.7-.87a70,70,0,0,0,4.51-6.08,34.81,34.81,0,0,0,2-3.75q1-2.17,2.64-5.92,1-2.39,4.29-2.39a5.7,5.7,0,0,1,2.12.27.91.91,0,0,1,.6.87,4,4,0,0,1-.22,1,8,8,0,0,1-.6,1.41,7.74,7.74,0,0,0-1,3.31,3.61,3.61,0,0,0,.57,1.79,20.93,20.93,0,0,0,1.76,2.44,34.4,34.4,0,0,1,2.64,3.88,7,7,0,0,1,.9,3.5,9.21,9.21,0,0,1-1.06,4.32,8.62,8.62,0,0,1-3,3.29,7.75,7.75,0,0,1-4.34,1.25A6.38,6.38,0,0,1,254.74,355Z" transform="translate(-13 -17)"/><path class="cls-4" d="M124.6,342.76H88.41a3,3,0,0,1,0-6h36.2a3,3,0,0,1,0,6Z" transform="translate(-13 -17)"/><path class="cls-4" d="M317.65,342.76h-36.2a3,3,0,1,1,0-6h36.2a3,3,0,1,1,0,6Z" transform="translate(-13 -17)"/><path class="cls-5" d="M255,125.43l-22.92,131.9,5.82-4.43H173.16l5.82,4.43h0L173.16,265h64.74c2.43,0,5.37-1.86,5.82-4.43l19-109.45-5.82,4.43h0c2.43,0,5.37-1.86,5.82-4.43l3.9-22.44c.66-3.8-1.6-7.64-5.82-7.64H157.9l5.82,4.43c-2.29-6.33-3.76-15.73-7.66-21.15-.19-.26-1.3,3.72.22.49.89-1.89,1.12-4.5,1.63-6.53l2.59-10.38c.71-2.86-.92-6.95-4.21-7.42h0l4.21,7.42L161.71,83c.75-3-1-6.75-4.21-7.42a66.33,66.33,0,0,0-16.57-1.41l5.82,4.43L135.08,46.33c-1-2.88-4.16-5.39-7.42-4.21l-13.14,4.76c-2.88,1-5.39,4.16-4.21,7.42l11.14,30.75,2.77-6.81c-45.87,20.35-41.35,88,7,101.66a6.11,6.11,0,0,0,7.42-4.21l9.46-38H136.44l23,132.23c.45,2.57,3.36,4.43,5.82,4.43h80.6c2.43,0,5.37-1.86,5.82-4.43l24.56-141.32c.66-3.8-1.6-7.64-5.82-7.64h-9.56c-7.76,0-7.78,12.07,0,12.07h9.56l-5.82-7.64L240,266.75l5.82-4.43h-80.6l5.82,4.43-23-132.23c-1-6-10.26-5.5-11.63,0l-9.46,38,7.42-4.21c-39.13-11-40-63.7-4.1-79.61,2.25-1,3.6-4.53,2.77-6.81L121.94,51.09l-4.21,7.42,13.14-4.76-7.42-4.21,11.67,32.22c.88,2.43,3,4.55,5.82,4.43a50.72,50.72,0,0,1,13.36,1l-4.21-7.42-1.22,4.91c-.71,2.86.92,6.95,4.21,7.42h0l-4.21-7.42c-1.66,6.65-5.72,15.31-4.67,22.18,1.1,7.19,5.41,14.93,7.89,21.8a6.24,6.24,0,0,0,5.82,4.43H260.83L255,125.43l-3.9,22.44,5.82-4.43h0c-2.43,0-5.37,1.86-5.82,4.43l-19,109.45,5.82-4.43H173.16c-4.24,0-6.45,3.84-5.82,7.64h0c.43,2.57,3.37,4.43,5.82,4.43h64.74c2.43,0,5.37-1.86,5.82-4.43l22.92-131.9C268,121,256.34,117.78,255,125.43Z" transform="translate(-13 -17)"/><path class="cls-5" d="M151.5,169.37l7.47,43,11.63-3.21-7.47-43L161.58,172h0c5.78-5.21-2.77-13.72-8.53-8.53-4.47,4,.65,18.53,1.47,23.24L159,212.33c1.33,7.64,13,4.4,11.63-3.21l-7.47-43C161.81,158.53,150.18,161.77,151.5,169.37Z" transform="translate(-13 -17)"/><rect class="cls-6" x="137.58" y="46.48" width="13.98" height="128.51" transform="translate(-42.06 38.83) rotate(-19.9)"/><path class="cls-7" d="M132.8,174.09C107.7,167.83,92.54,142,98.91,116.4s31.89-41.3,57-35.05Z" transform="translate(-13 -17)"/><path class="cls-8" d="M134,169.18c-22.44-5.59-36-28.68-30.32-51.58s28.53-36.93,51-31.33Z" transform="translate(-13 -17)"/><path class="cls-9" d="M153.83,89.66l-8.69,34.88a2.42,2.42,0,0,1-1.89-2.1c-.33-3.32-2.88-30-3.17-33.15A2.29,2.29,0,0,1,143,87Z" transform="translate(-13 -17)"/><path class="cls-9" d="M143.34,122.42l-9.75-31.71a2.24,2.24,0,0,0-3.62-.89l-17.72,13.84a2.34,2.34,0,0,0-.1,3.81l27.46,17.87a2.59,2.59,0,0,0,3.73-2.92Z" transform="translate(-13 -17)"/><path class="cls-9" d="M139.65,125.26l-30.51-11.78a2.3,2.3,0,0,0-3,2.33l-.55,22.63a2.27,2.27,0,0,0,2.87,2.43L139.53,130a2.61,2.61,0,0,0,.11-4.76Z" transform="translate(-13 -17)"/><path class="cls-9" d="M143,133.26c-.8,2.26.76-2.12-11.15,31.11a2.25,2.25,0,0,1-3.66.77l-17-14.38a2.33,2.33,0,0,1,.1-3.81l28-16.83a2.52,2.52,0,0,1,3.75,3.14Z" transform="translate(-13 -17)"/><path class="cls-10" d="M143.07,133l-.1.29,0-.31a.94.94,0,0,1,.15-.47,1,1,0,0,1-.09.49Z" transform="translate(-13 -17)"/><path class="cls-11" d="M146.09,120.74l-3.48,14a7.2,7.2,0,0,1,3.48-14Z" transform="translate(-13 -17)"/><path class="cls-12" d="M143.07,133l-.1.29.19-.78a1,1,0,0,1-.09.49Z" transform="translate(-13 -17)"/><path class="cls-12" d="M142.76,134.74l-.09,0h-.06l.36-1.44Z" transform="translate(-13 -17)"/><polygon class="cls-13" points="189.66 132.47 189.66 241.93 160.16 241.93 141.14 132.47 189.66 132.47"/><path class="cls-14" d="M260.83,127l-22.92,131.9H173.16L150.24,127h-9.56l24.56,141.32h80.6L270.39,127Z" transform="translate(-13 -17)"/><polygon class="cls-15" points="247.83 110.03 243.93 132.47 141.14 132.47 137.24 110.03 247.83 110.03"/><rect class="cls-4" x="146.87" y="134.2" width="11.09" height="11.09" transform="translate(-67.17 131.7) rotate(-45)"/><rect class="cls-4" x="153.29" y="159.82" width="7.01" height="7.01" transform="translate(-82.57 141.69) rotate(-45)"/><polygon class="cls-16" points="243.93 132.47 224.91 241.93 189.66 241.93 189.66 132.47 243.93 132.47"/><path class="cls-4" d="M233.65,248.4l9.72-74.86c.25-1.92-2.77-1.9-3,0l-9.72,74.86c-.25,1.92,2.77,1.9,3,0Z" transform="translate(-13 -17)"/></svg>